<?xml version="1.0" encoding="utf-8" standalone="no"?>
<!DOCTYPE svg PUBLIC "-//W3C//DTD SVG 1.1//EN"
  "http://www.w3.org/Graphics/SVG/1.1/DTD/svg11.dtd">
<!-- Created with matplotlib (https://matplotlib.org/) -->
<svg height="648pt" version="1.1" viewBox="0 0 864 648" width="864pt" xmlns="http://www.w3.org/2000/svg" xmlns:xlink="http://www.w3.org/1999/xlink">
 <metadata>
  <rdf:RDF xmlns:cc="http://creativecommons.org/ns#" xmlns:dc="http://purl.org/dc/elements/1.1/" xmlns:rdf="http://www.w3.org/1999/02/22-rdf-syntax-ns#">
   <cc:Work>
    <dc:type rdf:resource="http://purl.org/dc/dcmitype/StillImage"/>
    <dc:date>2021-06-28T10:33:17.146729</dc:date>
    <dc:format>image/svg+xml</dc:format>
    <dc:creator>
     <cc:Agent>
      <dc:title>Matplotlib v3.3.2, https://matplotlib.org/</dc:title>
     </cc:Agent>
    </dc:creator>
   </cc:Work>
  </rdf:RDF>
 </metadata>
 <defs>
  <style type="text/css">*{stroke-linecap:butt;stroke-linejoin:round;}</style>
 </defs>
 <g id="figure_1">
  <g id="patch_1">
   <path d="M 0 648 
L 864 648 
L 864 0 
L 0 0 
z
" style="fill:none;"/>
  </g>
  <g id="axes_1">
   <g id="patch_2">
    <path d="M 108 567 
L 777.6 567 
L 777.6 77.76 
L 108 77.76 
z
" style="fill:#ffffff;"/>
   </g>
   <g id="matplotlib.axis_1">
    <g id="xtick_1">
     <g id="line2d_1">
      <defs>
       <path d="M 0 0 
L 0 3.5 
" id="mbe925f6c07" style="stroke:#000000;stroke-width:0.8;"/>
      </defs>
      <g>
       <use style="stroke:#000000;stroke-width:0.8;" x="115.358242" xlink:href="#mbe925f6c07" y="567"/>
      </g>
     </g>
     <g id="text_1">
      <!-- 0 -->
      <g transform="translate(106.768867 594.515781)scale(0.27 -0.27)">
       <defs>
        <path d="M 31.78125 66.40625 
Q 24.171875 66.40625 20.328125 58.90625 
Q 16.5 51.421875 16.5 36.375 
Q 16.5 21.390625 20.328125 13.890625 
Q 24.171875 6.390625 31.78125 6.390625 
Q 39.453125 6.390625 43.28125 13.890625 
Q 47.125 21.390625 47.125 36.375 
Q 47.125 51.421875 43.28125 58.90625 
Q 39.453125 66.40625 31.78125 66.40625 
z
M 31.78125 74.21875 
Q 44.046875 74.21875 50.515625 64.515625 
Q 56.984375 54.828125 56.984375 36.375 
Q 56.984375 17.96875 50.515625 8.265625 
Q 44.046875 -1.421875 31.78125 -1.421875 
Q 19.53125 -1.421875 13.0625 8.265625 
Q 6.59375 17.96875 6.59375 36.375 
Q 6.59375 54.828125 13.0625 64.515625 
Q 19.53125 74.21875 31.78125 74.21875 
z
" id="DejaVuSans-48"/>
       </defs>
       <use xlink:href="#DejaVuSans-48"/>
      </g>
     </g>
    </g>
    <g id="xtick_2">
     <g id="line2d_2">
      <g>
       <use style="stroke:#000000;stroke-width:0.8;" x="262.523077" xlink:href="#mbe925f6c07" y="567"/>
      </g>
     </g>
     <g id="text_2">
      <!-- 200 -->
      <g transform="translate(236.754952 594.515781)scale(0.27 -0.27)">
       <defs>
        <path d="M 19.1875 8.296875 
L 53.609375 8.296875 
L 53.609375 0 
L 7.328125 0 
L 7.328125 8.296875 
Q 12.9375 14.109375 22.625 23.890625 
Q 32.328125 33.6875 34.8125 36.53125 
Q 39.546875 41.84375 41.421875 45.53125 
Q 43.3125 49.21875 43.3125 52.78125 
Q 43.3125 58.59375 39.234375 62.25 
Q 35.15625 65.921875 28.609375 65.921875 
Q 23.96875 65.921875 18.8125 64.3125 
Q 13.671875 62.703125 7.8125 59.421875 
L 7.8125 69.390625 
Q 13.765625 71.78125 18.9375 73 
Q 24.125 74.21875 28.421875 74.21875 
Q 39.75 74.21875 46.484375 68.546875 
Q 53.21875 62.890625 53.21875 53.421875 
Q 53.21875 48.921875 51.53125 44.890625 
Q 49.859375 40.875 45.40625 35.40625 
Q 44.1875 33.984375 37.640625 27.21875 
Q 31.109375 20.453125 19.1875 8.296875 
z
" id="DejaVuSans-50"/>
       </defs>
       <use xlink:href="#DejaVuSans-50"/>
       <use x="63.623047" xlink:href="#DejaVuSans-48"/>
       <use x="127.246094" xlink:href="#DejaVuSans-48"/>
      </g>
     </g>
    </g>
    <g id="xtick_3">
     <g id="line2d_3">
      <g>
       <use style="stroke:#000000;stroke-width:0.8;" x="409.687912" xlink:href="#mbe925f6c07" y="567"/>
      </g>
     </g>
     <g id="text_3">
      <!-- 400 -->
      <g transform="translate(383.919787 594.515781)scale(0.27 -0.27)">
       <defs>
        <path d="M 37.796875 64.3125 
L 12.890625 25.390625 
L 37.796875 25.390625 
z
M 35.203125 72.90625 
L 47.609375 72.90625 
L 47.609375 25.390625 
L 58.015625 25.390625 
L 58.015625 17.1875 
L 47.609375 17.1875 
L 47.609375 0 
L 37.796875 0 
L 37.796875 17.1875 
L 4.890625 17.1875 
L 4.890625 26.703125 
z
" id="DejaVuSans-52"/>
       </defs>
       <use xlink:href="#DejaVuSans-52"/>
       <use x="63.623047" xlink:href="#DejaVuSans-48"/>
       <use x="127.246094" xlink:href="#DejaVuSans-48"/>
      </g>
     </g>
    </g>
    <g id="xtick_4">
     <g id="line2d_4">
      <g>
       <use style="stroke:#000000;stroke-width:0.8;" x="556.852747" xlink:href="#mbe925f6c07" y="567"/>
      </g>
     </g>
     <g id="text_4">
      <!-- 600 -->
      <g transform="translate(531.084622 594.515781)scale(0.27 -0.27)">
       <defs>
        <path d="M 33.015625 40.375 
Q 26.375 40.375 22.484375 35.828125 
Q 18.609375 31.296875 18.609375 23.390625 
Q 18.609375 15.53125 22.484375 10.953125 
Q 26.375 6.390625 33.015625 6.390625 
Q 39.65625 6.390625 43.53125 10.953125 
Q 47.40625 15.53125 47.40625 23.390625 
Q 47.40625 31.296875 43.53125 35.828125 
Q 39.65625 40.375 33.015625 40.375 
z
M 52.59375 71.296875 
L 52.59375 62.3125 
Q 48.875 64.0625 45.09375 64.984375 
Q 41.3125 65.921875 37.59375 65.921875 
Q 27.828125 65.921875 22.671875 59.328125 
Q 17.53125 52.734375 16.796875 39.40625 
Q 19.671875 43.65625 24.015625 45.921875 
Q 28.375 48.1875 33.59375 48.1875 
Q 44.578125 48.1875 50.953125 41.515625 
Q 57.328125 34.859375 57.328125 23.390625 
Q 57.328125 12.15625 50.6875 5.359375 
Q 44.046875 -1.421875 33.015625 -1.421875 
Q 20.359375 -1.421875 13.671875 8.265625 
Q 6.984375 17.96875 6.984375 36.375 
Q 6.984375 53.65625 15.1875 63.9375 
Q 23.390625 74.21875 37.203125 74.21875 
Q 40.921875 74.21875 44.703125 73.484375 
Q 48.484375 72.75 52.59375 71.296875 
z
" id="DejaVuSans-54"/>
       </defs>
       <use xlink:href="#DejaVuSans-54"/>
       <use x="63.623047" xlink:href="#DejaVuSans-48"/>
       <use x="127.246094" xlink:href="#DejaVuSans-48"/>
      </g>
     </g>
    </g>
    <g id="xtick_5">
     <g id="line2d_5">
      <g>
       <use style="stroke:#000000;stroke-width:0.8;" x="704.017582" xlink:href="#mbe925f6c07" y="567"/>
      </g>
     </g>
     <g id="text_5">
      <!-- 800 -->
      <g transform="translate(678.249457 594.515781)scale(0.27 -0.27)">
       <defs>
        <path d="M 31.78125 34.625 
Q 24.75 34.625 20.71875 30.859375 
Q 16.703125 27.09375 16.703125 20.515625 
Q 16.703125 13.921875 20.71875 10.15625 
Q 24.75 6.390625 31.78125 6.390625 
Q 38.8125 6.390625 42.859375 10.171875 
Q 46.921875 13.96875 46.921875 20.515625 
Q 46.921875 27.09375 42.890625 30.859375 
Q 38.875 34.625 31.78125 34.625 
z
M 21.921875 38.8125 
Q 15.578125 40.375 12.03125 44.71875 
Q 8.5 49.078125 8.5 55.328125 
Q 8.5 64.0625 14.71875 69.140625 
Q 20.953125 74.21875 31.78125 74.21875 
Q 42.671875 74.21875 48.875 69.140625 
Q 55.078125 64.0625 55.078125 55.328125 
Q 55.078125 49.078125 51.53125 44.71875 
Q 48 40.375 41.703125 38.8125 
Q 48.828125 37.15625 52.796875 32.3125 
Q 56.78125 27.484375 56.78125 20.515625 
Q 56.78125 9.90625 50.3125 4.234375 
Q 43.84375 -1.421875 31.78125 -1.421875 
Q 19.734375 -1.421875 13.25 4.234375 
Q 6.78125 9.90625 6.78125 20.515625 
Q 6.78125 27.484375 10.78125 32.3125 
Q 14.796875 37.15625 21.921875 38.8125 
z
M 18.3125 54.390625 
Q 18.3125 48.734375 21.84375 45.5625 
Q 25.390625 42.390625 31.78125 42.390625 
Q 38.140625 42.390625 41.71875 45.5625 
Q 45.3125 48.734375 45.3125 54.390625 
Q 45.3125 60.0625 41.71875 63.234375 
Q 38.140625 66.40625 31.78125 66.40625 
Q 25.390625 66.40625 21.84375 63.234375 
Q 18.3125 60.0625 18.3125 54.390625 
z
" id="DejaVuSans-56"/>
       </defs>
       <use xlink:href="#DejaVuSans-56"/>
       <use x="63.623047" xlink:href="#DejaVuSans-48"/>
       <use x="127.246094" xlink:href="#DejaVuSans-48"/>
      </g>
     </g>
    </g>
    <g id="text_6">
     <!-- Elapsed Time (Seconds) -->
     <g transform="translate(280.90125 624.646719)scale(0.27 -0.27)">
      <defs>
       <path d="M 9.8125 72.90625 
L 55.90625 72.90625 
L 55.90625 64.59375 
L 19.671875 64.59375 
L 19.671875 43.015625 
L 54.390625 43.015625 
L 54.390625 34.71875 
L 19.671875 34.71875 
L 19.671875 8.296875 
L 56.78125 8.296875 
L 56.78125 0 
L 9.8125 0 
z
" id="DejaVuSans-69"/>
       <path d="M 9.421875 75.984375 
L 18.40625 75.984375 
L 18.40625 0 
L 9.421875 0 
z
" id="DejaVuSans-108"/>
       <path d="M 34.28125 27.484375 
Q 23.390625 27.484375 19.1875 25 
Q 14.984375 22.515625 14.984375 16.5 
Q 14.984375 11.71875 18.140625 8.90625 
Q 21.296875 6.109375 26.703125 6.109375 
Q 34.1875 6.109375 38.703125 11.40625 
Q 43.21875 16.703125 43.21875 25.484375 
L 43.21875 27.484375 
z
M 52.203125 31.203125 
L 52.203125 0 
L 43.21875 0 
L 43.21875 8.296875 
Q 40.140625 3.328125 35.546875 0.953125 
Q 30.953125 -1.421875 24.3125 -1.421875 
Q 15.921875 -1.421875 10.953125 3.296875 
Q 6 8.015625 6 15.921875 
Q 6 25.140625 12.171875 29.828125 
Q 18.359375 34.515625 30.609375 34.515625 
L 43.21875 34.515625 
L 43.21875 35.40625 
Q 43.21875 41.609375 39.140625 45 
Q 35.0625 48.390625 27.6875 48.390625 
Q 23 48.390625 18.546875 47.265625 
Q 14.109375 46.140625 10.015625 43.890625 
L 10.015625 52.203125 
Q 14.9375 54.109375 19.578125 55.046875 
Q 24.21875 56 28.609375 56 
Q 40.484375 56 46.34375 49.84375 
Q 52.203125 43.703125 52.203125 31.203125 
z
" id="DejaVuSans-97"/>
       <path d="M 18.109375 8.203125 
L 18.109375 -20.796875 
L 9.078125 -20.796875 
L 9.078125 54.6875 
L 18.109375 54.6875 
L 18.109375 46.390625 
Q 20.953125 51.265625 25.265625 53.625 
Q 29.59375 56 35.59375 56 
Q 45.5625 56 51.78125 48.09375 
Q 58.015625 40.1875 58.015625 27.296875 
Q 58.015625 14.40625 51.78125 6.484375 
Q 45.5625 -1.421875 35.59375 -1.421875 
Q 29.59375 -1.421875 25.265625 0.953125 
Q 20.953125 3.328125 18.109375 8.203125 
z
M 48.6875 27.296875 
Q 48.6875 37.203125 44.609375 42.84375 
Q 40.53125 48.484375 33.40625 48.484375 
Q 26.265625 48.484375 22.1875 42.84375 
Q 18.109375 37.203125 18.109375 27.296875 
Q 18.109375 17.390625 22.1875 11.75 
Q 26.265625 6.109375 33.40625 6.109375 
Q 40.53125 6.109375 44.609375 11.75 
Q 48.6875 17.390625 48.6875 27.296875 
z
" id="DejaVuSans-112"/>
       <path d="M 44.28125 53.078125 
L 44.28125 44.578125 
Q 40.484375 46.53125 36.375 47.5 
Q 32.28125 48.484375 27.875 48.484375 
Q 21.1875 48.484375 17.84375 46.4375 
Q 14.5 44.390625 14.5 40.28125 
Q 14.5 37.15625 16.890625 35.375 
Q 19.28125 33.59375 26.515625 31.984375 
L 29.59375 31.296875 
Q 39.15625 29.25 43.1875 25.515625 
Q 47.21875 21.78125 47.21875 15.09375 
Q 47.21875 7.46875 41.1875 3.015625 
Q 35.15625 -1.421875 24.609375 -1.421875 
Q 20.21875 -1.421875 15.453125 -0.5625 
Q 10.6875 0.296875 5.421875 2 
L 5.421875 11.28125 
Q 10.40625 8.6875 15.234375 7.390625 
Q 20.0625 6.109375 24.8125 6.109375 
Q 31.15625 6.109375 34.5625 8.28125 
Q 37.984375 10.453125 37.984375 14.40625 
Q 37.984375 18.0625 35.515625 20.015625 
Q 33.0625 21.96875 24.703125 23.78125 
L 21.578125 24.515625 
Q 13.234375 26.265625 9.515625 29.90625 
Q 5.8125 33.546875 5.8125 39.890625 
Q 5.8125 47.609375 11.28125 51.796875 
Q 16.75 56 26.8125 56 
Q 31.78125 56 36.171875 55.265625 
Q 40.578125 54.546875 44.28125 53.078125 
z
" id="DejaVuSans-115"/>
       <path d="M 56.203125 29.59375 
L 56.203125 25.203125 
L 14.890625 25.203125 
Q 15.484375 15.921875 20.484375 11.0625 
Q 25.484375 6.203125 34.421875 6.203125 
Q 39.59375 6.203125 44.453125 7.46875 
Q 49.3125 8.734375 54.109375 11.28125 
L 54.109375 2.78125 
Q 49.265625 0.734375 44.1875 -0.34375 
Q 39.109375 -1.421875 33.890625 -1.421875 
Q 20.796875 -1.421875 13.15625 6.1875 
Q 5.515625 13.8125 5.515625 26.8125 
Q 5.515625 40.234375 12.765625 48.109375 
Q 20.015625 56 32.328125 56 
Q 43.359375 56 49.78125 48.890625 
Q 56.203125 41.796875 56.203125 29.59375 
z
M 47.21875 32.234375 
Q 47.125 39.59375 43.09375 43.984375 
Q 39.0625 48.390625 32.421875 48.390625 
Q 24.90625 48.390625 20.390625 44.140625 
Q 15.875 39.890625 15.1875 32.171875 
z
" id="DejaVuSans-101"/>
       <path d="M 45.40625 46.390625 
L 45.40625 75.984375 
L 54.390625 75.984375 
L 54.390625 0 
L 45.40625 0 
L 45.40625 8.203125 
Q 42.578125 3.328125 38.25 0.953125 
Q 33.9375 -1.421875 27.875 -1.421875 
Q 17.96875 -1.421875 11.734375 6.484375 
Q 5.515625 14.40625 5.515625 27.296875 
Q 5.515625 40.1875 11.734375 48.09375 
Q 17.96875 56 27.875 56 
Q 33.9375 56 38.25 53.625 
Q 42.578125 51.265625 45.40625 46.390625 
z
M 14.796875 27.296875 
Q 14.796875 17.390625 18.875 11.75 
Q 22.953125 6.109375 30.078125 6.109375 
Q 37.203125 6.109375 41.296875 11.75 
Q 45.40625 17.390625 45.40625 27.296875 
Q 45.40625 37.203125 41.296875 42.84375 
Q 37.203125 48.484375 30.078125 48.484375 
Q 22.953125 48.484375 18.875 42.84375 
Q 14.796875 37.203125 14.796875 27.296875 
z
" id="DejaVuSans-100"/>
       <path id="DejaVuSans-32"/>
       <path d="M -0.296875 72.90625 
L 61.375 72.90625 
L 61.375 64.59375 
L 35.5 64.59375 
L 35.5 0 
L 25.59375 0 
L 25.59375 64.59375 
L -0.296875 64.59375 
z
" id="DejaVuSans-84"/>
       <path d="M 9.421875 54.6875 
L 18.40625 54.6875 
L 18.40625 0 
L 9.421875 0 
z
M 9.421875 75.984375 
L 18.40625 75.984375 
L 18.40625 64.59375 
L 9.421875 64.59375 
z
" id="DejaVuSans-105"/>
       <path d="M 52 44.1875 
Q 55.375 50.25 60.0625 53.125 
Q 64.75 56 71.09375 56 
Q 79.640625 56 84.28125 50.015625 
Q 88.921875 44.046875 88.921875 33.015625 
L 88.921875 0 
L 79.890625 0 
L 79.890625 32.71875 
Q 79.890625 40.578125 77.09375 44.375 
Q 74.3125 48.1875 68.609375 48.1875 
Q 61.625 48.1875 57.5625 43.546875 
Q 53.515625 38.921875 53.515625 30.90625 
L 53.515625 0 
L 44.484375 0 
L 44.484375 32.71875 
Q 44.484375 40.625 41.703125 44.40625 
Q 38.921875 48.1875 33.109375 48.1875 
Q 26.21875 48.1875 22.15625 43.53125 
Q 18.109375 38.875 18.109375 30.90625 
L 18.109375 0 
L 9.078125 0 
L 9.078125 54.6875 
L 18.109375 54.6875 
L 18.109375 46.1875 
Q 21.1875 51.21875 25.484375 53.609375 
Q 29.78125 56 35.6875 56 
Q 41.65625 56 45.828125 52.96875 
Q 50 49.953125 52 44.1875 
z
" id="DejaVuSans-109"/>
       <path d="M 31 75.875 
Q 24.46875 64.65625 21.28125 53.65625 
Q 18.109375 42.671875 18.109375 31.390625 
Q 18.109375 20.125 21.3125 9.0625 
Q 24.515625 -2 31 -13.1875 
L 23.1875 -13.1875 
Q 15.875 -1.703125 12.234375 9.375 
Q 8.59375 20.453125 8.59375 31.390625 
Q 8.59375 42.28125 12.203125 53.3125 
Q 15.828125 64.359375 23.1875 75.875 
z
" id="DejaVuSans-40"/>
       <path d="M 53.515625 70.515625 
L 53.515625 60.890625 
Q 47.90625 63.578125 42.921875 64.890625 
Q 37.9375 66.21875 33.296875 66.21875 
Q 25.25 66.21875 20.875 63.09375 
Q 16.5 59.96875 16.5 54.203125 
Q 16.5 49.359375 19.40625 46.890625 
Q 22.3125 44.4375 30.421875 42.921875 
L 36.375 41.703125 
Q 47.40625 39.59375 52.65625 34.296875 
Q 57.90625 29 57.90625 20.125 
Q 57.90625 9.515625 50.796875 4.046875 
Q 43.703125 -1.421875 29.984375 -1.421875 
Q 24.8125 -1.421875 18.96875 -0.25 
Q 13.140625 0.921875 6.890625 3.21875 
L 6.890625 13.375 
Q 12.890625 10.015625 18.65625 8.296875 
Q 24.421875 6.59375 29.984375 6.59375 
Q 38.421875 6.59375 43.015625 9.90625 
Q 47.609375 13.234375 47.609375 19.390625 
Q 47.609375 24.75 44.3125 27.78125 
Q 41.015625 30.8125 33.5 32.328125 
L 27.484375 33.5 
Q 16.453125 35.6875 11.515625 40.375 
Q 6.59375 45.0625 6.59375 53.421875 
Q 6.59375 63.09375 13.40625 68.65625 
Q 20.21875 74.21875 32.171875 74.21875 
Q 37.3125 74.21875 42.625 73.28125 
Q 47.953125 72.359375 53.515625 70.515625 
z
" id="DejaVuSans-83"/>
       <path d="M 48.78125 52.59375 
L 48.78125 44.1875 
Q 44.96875 46.296875 41.140625 47.34375 
Q 37.3125 48.390625 33.40625 48.390625 
Q 24.65625 48.390625 19.8125 42.84375 
Q 14.984375 37.3125 14.984375 27.296875 
Q 14.984375 17.28125 19.8125 11.734375 
Q 24.65625 6.203125 33.40625 6.203125 
Q 37.3125 6.203125 41.140625 7.25 
Q 44.96875 8.296875 48.78125 10.40625 
L 48.78125 2.09375 
Q 45.015625 0.34375 40.984375 -0.53125 
Q 36.96875 -1.421875 32.421875 -1.421875 
Q 20.0625 -1.421875 12.78125 6.34375 
Q 5.515625 14.109375 5.515625 27.296875 
Q 5.515625 40.671875 12.859375 48.328125 
Q 20.21875 56 33.015625 56 
Q 37.15625 56 41.109375 55.140625 
Q 45.0625 54.296875 48.78125 52.59375 
z
" id="DejaVuSans-99"/>
       <path d="M 30.609375 48.390625 
Q 23.390625 48.390625 19.1875 42.75 
Q 14.984375 37.109375 14.984375 27.296875 
Q 14.984375 17.484375 19.15625 11.84375 
Q 23.34375 6.203125 30.609375 6.203125 
Q 37.796875 6.203125 41.984375 11.859375 
Q 46.1875 17.53125 46.1875 27.296875 
Q 46.1875 37.015625 41.984375 42.703125 
Q 37.796875 48.390625 30.609375 48.390625 
z
M 30.609375 56 
Q 42.328125 56 49.015625 48.375 
Q 55.71875 40.765625 55.71875 27.296875 
Q 55.71875 13.875 49.015625 6.21875 
Q 42.328125 -1.421875 30.609375 -1.421875 
Q 18.84375 -1.421875 12.171875 6.21875 
Q 5.515625 13.875 5.515625 27.296875 
Q 5.515625 40.765625 12.171875 48.375 
Q 18.84375 56 30.609375 56 
z
" id="DejaVuSans-111"/>
       <path d="M 54.890625 33.015625 
L 54.890625 0 
L 45.90625 0 
L 45.90625 32.71875 
Q 45.90625 40.484375 42.875 44.328125 
Q 39.84375 48.1875 33.796875 48.1875 
Q 26.515625 48.1875 22.3125 43.546875 
Q 18.109375 38.921875 18.109375 30.90625 
L 18.109375 0 
L 9.078125 0 
L 9.078125 54.6875 
L 18.109375 54.6875 
L 18.109375 46.1875 
Q 21.34375 51.125 25.703125 53.5625 
Q 30.078125 56 35.796875 56 
Q 45.21875 56 50.046875 50.171875 
Q 54.890625 44.34375 54.890625 33.015625 
z
" id="DejaVuSans-110"/>
       <path d="M 8.015625 75.875 
L 15.828125 75.875 
Q 23.140625 64.359375 26.78125 53.3125 
Q 30.421875 42.28125 30.421875 31.390625 
Q 30.421875 20.453125 26.78125 9.375 
Q 23.140625 -1.703125 15.828125 -13.1875 
L 8.015625 -13.1875 
Q 14.5 -2 17.703125 9.0625 
Q 20.90625 20.125 20.90625 31.390625 
Q 20.90625 42.671875 17.703125 53.65625 
Q 14.5 64.65625 8.015625 75.875 
z
" id="DejaVuSans-41"/>
      </defs>
      <use xlink:href="#DejaVuSans-69"/>
      <use x="63.183594" xlink:href="#DejaVuSans-108"/>
      <use x="90.966797" xlink:href="#DejaVuSans-97"/>
      <use x="152.246094" xlink:href="#DejaVuSans-112"/>
      <use x="215.722656" xlink:href="#DejaVuSans-115"/>
      <use x="267.822266" xlink:href="#DejaVuSans-101"/>
      <use x="329.345703" xlink:href="#DejaVuSans-100"/>
      <use x="392.822266" xlink:href="#DejaVuSans-32"/>
      <use x="424.609375" xlink:href="#DejaVuSans-84"/>
      <use x="482.568359" xlink:href="#DejaVuSans-105"/>
      <use x="510.351562" xlink:href="#DejaVuSans-109"/>
      <use x="607.763672" xlink:href="#DejaVuSans-101"/>
      <use x="669.287109" xlink:href="#DejaVuSans-32"/>
      <use x="701.074219" xlink:href="#DejaVuSans-40"/>
      <use x="740.087891" xlink:href="#DejaVuSans-83"/>
      <use x="803.564453" xlink:href="#DejaVuSans-101"/>
      <use x="865.087891" xlink:href="#DejaVuSans-99"/>
      <use x="920.068359" xlink:href="#DejaVuSans-111"/>
      <use x="981.25" xlink:href="#DejaVuSans-110"/>
      <use x="1044.628906" xlink:href="#DejaVuSans-100"/>
      <use x="1108.105469" xlink:href="#DejaVuSans-115"/>
      <use x="1160.205078" xlink:href="#DejaVuSans-41"/>
     </g>
    </g>
   </g>
   <g id="matplotlib.axis_2">
    <g id="ytick_1">
     <g id="line2d_6">
      <defs>
       <path d="M 0 0 
L -3.5 0 
" id="m5989e5410a" style="stroke:#000000;stroke-width:0.8;"/>
      </defs>
      <g>
       <use style="stroke:#000000;stroke-width:0.8;" x="108" xlink:href="#m5989e5410a" y="567"/>
      </g>
     </g>
     <g id="text_7">
      <!-- 0 -->
      <g transform="translate(83.82125 577.257891)scale(0.27 -0.27)">
       <use xlink:href="#DejaVuSans-48"/>
      </g>
     </g>
    </g>
    <g id="ytick_2">
     <g id="line2d_7">
      <g>
       <use style="stroke:#000000;stroke-width:0.8;" x="108" xlink:href="#m5989e5410a" y="427.217143"/>
      </g>
     </g>
     <g id="text_8">
      <!-- 1 -->
      <g transform="translate(83.82125 437.475033)scale(0.27 -0.27)">
       <defs>
        <path d="M 12.40625 8.296875 
L 28.515625 8.296875 
L 28.515625 63.921875 
L 10.984375 60.40625 
L 10.984375 69.390625 
L 28.421875 72.90625 
L 38.28125 72.90625 
L 38.28125 8.296875 
L 54.390625 8.296875 
L 54.390625 0 
L 12.40625 0 
z
" id="DejaVuSans-49"/>
       </defs>
       <use xlink:href="#DejaVuSans-49"/>
      </g>
     </g>
    </g>
    <g id="ytick_3">
     <g id="line2d_8">
      <g>
       <use style="stroke:#000000;stroke-width:0.8;" x="108" xlink:href="#m5989e5410a" y="287.434286"/>
      </g>
     </g>
     <g id="text_9">
      <!-- 10 -->
      <g transform="translate(66.6425 297.692176)scale(0.27 -0.27)">
       <use xlink:href="#DejaVuSans-49"/>
       <use x="63.623047" xlink:href="#DejaVuSans-48"/>
      </g>
     </g>
    </g>
    <g id="ytick_4">
     <g id="line2d_9">
      <g>
       <use style="stroke:#000000;stroke-width:0.8;" x="108" xlink:href="#m5989e5410a" y="147.651429"/>
      </g>
     </g>
     <g id="text_10">
      <!-- 100 -->
      <g transform="translate(49.46375 157.909319)scale(0.27 -0.27)">
       <use xlink:href="#DejaVuSans-49"/>
       <use x="63.623047" xlink:href="#DejaVuSans-48"/>
       <use x="127.246094" xlink:href="#DejaVuSans-48"/>
      </g>
     </g>
    </g>
    <g id="ytick_5">
     <g id="line2d_10">
      <defs>
       <path d="M 0 0 
L -2 0 
" id="m0ba83c3f29" style="stroke:#000000;stroke-width:0.6;"/>
      </defs>
      <g>
       <use style="stroke:#000000;stroke-width:0.6;" x="108" xlink:href="#m0ba83c3f29" y="524.921167"/>
      </g>
     </g>
    </g>
    <g id="ytick_6">
     <g id="line2d_11">
      <g>
       <use style="stroke:#000000;stroke-width:0.6;" x="108" xlink:href="#m0ba83c3f29" y="500.306628"/>
      </g>
     </g>
    </g>
    <g id="ytick_7">
     <g id="line2d_12">
      <g>
       <use style="stroke:#000000;stroke-width:0.6;" x="108" xlink:href="#m0ba83c3f29" y="482.842334"/>
      </g>
     </g>
    </g>
    <g id="ytick_8">
     <g id="line2d_13">
      <g>
       <use style="stroke:#000000;stroke-width:0.6;" x="108" xlink:href="#m0ba83c3f29" y="469.295976"/>
      </g>
     </g>
    </g>
    <g id="ytick_9">
     <g id="line2d_14">
      <g>
       <use style="stroke:#000000;stroke-width:0.6;" x="108" xlink:href="#m0ba83c3f29" y="458.227795"/>
      </g>
     </g>
    </g>
    <g id="ytick_10">
     <g id="line2d_15">
      <g>
       <use style="stroke:#000000;stroke-width:0.6;" x="108" xlink:href="#m0ba83c3f29" y="448.869781"/>
      </g>
     </g>
    </g>
    <g id="ytick_11">
     <g id="line2d_16">
      <g>
       <use style="stroke:#000000;stroke-width:0.6;" x="108" xlink:href="#m0ba83c3f29" y="440.763501"/>
      </g>
     </g>
    </g>
    <g id="ytick_12">
     <g id="line2d_17">
      <g>
       <use style="stroke:#000000;stroke-width:0.6;" x="108" xlink:href="#m0ba83c3f29" y="433.613256"/>
      </g>
     </g>
    </g>
    <g id="ytick_13">
     <g id="line2d_18">
      <g>
       <use style="stroke:#000000;stroke-width:0.6;" x="108" xlink:href="#m0ba83c3f29" y="385.13831"/>
      </g>
     </g>
    </g>
    <g id="ytick_14">
     <g id="line2d_19">
      <g>
       <use style="stroke:#000000;stroke-width:0.6;" x="108" xlink:href="#m0ba83c3f29" y="360.523771"/>
      </g>
     </g>
    </g>
    <g id="ytick_15">
     <g id="line2d_20">
      <g>
       <use style="stroke:#000000;stroke-width:0.6;" x="108" xlink:href="#m0ba83c3f29" y="343.059477"/>
      </g>
     </g>
    </g>
    <g id="ytick_16">
     <g id="line2d_21">
      <g>
       <use style="stroke:#000000;stroke-width:0.6;" x="108" xlink:href="#m0ba83c3f29" y="329.513119"/>
      </g>
     </g>
    </g>
    <g id="ytick_17">
     <g id="line2d_22">
      <g>
       <use style="stroke:#000000;stroke-width:0.6;" x="108" xlink:href="#m0ba83c3f29" y="318.444938"/>
      </g>
     </g>
    </g>
    <g id="ytick_18">
     <g id="line2d_23">
      <g>
       <use style="stroke:#000000;stroke-width:0.6;" x="108" xlink:href="#m0ba83c3f29" y="309.086924"/>
      </g>
     </g>
    </g>
    <g id="ytick_19">
     <g id="line2d_24">
      <g>
       <use style="stroke:#000000;stroke-width:0.6;" x="108" xlink:href="#m0ba83c3f29" y="300.980644"/>
      </g>
     </g>
    </g>
    <g id="ytick_20">
     <g id="line2d_25">
      <g>
       <use style="stroke:#000000;stroke-width:0.6;" x="108" xlink:href="#m0ba83c3f29" y="293.830398"/>
      </g>
     </g>
    </g>
    <g id="ytick_21">
     <g id="line2d_26">
      <g>
       <use style="stroke:#000000;stroke-width:0.6;" x="108" xlink:href="#m0ba83c3f29" y="245.355453"/>
      </g>
     </g>
    </g>
    <g id="ytick_22">
     <g id="line2d_27">
      <g>
       <use style="stroke:#000000;stroke-width:0.6;" x="108" xlink:href="#m0ba83c3f29" y="220.740914"/>
      </g>
     </g>
    </g>
    <g id="ytick_23">
     <g id="line2d_28">
      <g>
       <use style="stroke:#000000;stroke-width:0.6;" x="108" xlink:href="#m0ba83c3f29" y="203.27662"/>
      </g>
     </g>
    </g>
    <g id="ytick_24">
     <g id="line2d_29">
      <g>
       <use style="stroke:#000000;stroke-width:0.6;" x="108" xlink:href="#m0ba83c3f29" y="189.730261"/>
      </g>
     </g>
    </g>
    <g id="ytick_25">
     <g id="line2d_30">
      <g>
       <use style="stroke:#000000;stroke-width:0.6;" x="108" xlink:href="#m0ba83c3f29" y="178.662081"/>
      </g>
     </g>
    </g>
    <g id="ytick_26">
     <g id="line2d_31">
      <g>
       <use style="stroke:#000000;stroke-width:0.6;" x="108" xlink:href="#m0ba83c3f29" y="169.304067"/>
      </g>
     </g>
    </g>
    <g id="ytick_27">
     <g id="line2d_32">
      <g>
       <use style="stroke:#000000;stroke-width:0.6;" x="108" xlink:href="#m0ba83c3f29" y="161.197787"/>
      </g>
     </g>
    </g>
    <g id="ytick_28">
     <g id="line2d_33">
      <g>
       <use style="stroke:#000000;stroke-width:0.6;" x="108" xlink:href="#m0ba83c3f29" y="154.047541"/>
      </g>
     </g>
    </g>
    <g id="ytick_29">
     <g id="line2d_34">
      <g>
       <use style="stroke:#000000;stroke-width:0.6;" x="108" xlink:href="#m0ba83c3f29" y="105.572596"/>
      </g>
     </g>
    </g>
    <g id="ytick_30">
     <g id="line2d_35">
      <g>
       <use style="stroke:#000000;stroke-width:0.6;" x="108" xlink:href="#m0ba83c3f29" y="80.958056"/>
      </g>
     </g>
    </g>
    <g id="text_11">
     <!-- Particles/cc -->
     <g transform="translate(39.848594 398.684531)rotate(-90)scale(0.27 -0.27)">
      <defs>
       <path d="M 19.671875 64.796875 
L 19.671875 37.40625 
L 32.078125 37.40625 
Q 38.96875 37.40625 42.71875 40.96875 
Q 46.484375 44.53125 46.484375 51.125 
Q 46.484375 57.671875 42.71875 61.234375 
Q 38.96875 64.796875 32.078125 64.796875 
z
M 9.8125 72.90625 
L 32.078125 72.90625 
Q 44.34375 72.90625 50.609375 67.359375 
Q 56.890625 61.8125 56.890625 51.125 
Q 56.890625 40.328125 50.609375 34.8125 
Q 44.34375 29.296875 32.078125 29.296875 
L 19.671875 29.296875 
L 19.671875 0 
L 9.8125 0 
z
" id="DejaVuSans-80"/>
       <path d="M 41.109375 46.296875 
Q 39.59375 47.171875 37.8125 47.578125 
Q 36.03125 48 33.890625 48 
Q 26.265625 48 22.1875 43.046875 
Q 18.109375 38.09375 18.109375 28.8125 
L 18.109375 0 
L 9.078125 0 
L 9.078125 54.6875 
L 18.109375 54.6875 
L 18.109375 46.1875 
Q 20.953125 51.171875 25.484375 53.578125 
Q 30.03125 56 36.53125 56 
Q 37.453125 56 38.578125 55.875 
Q 39.703125 55.765625 41.0625 55.515625 
z
" id="DejaVuSans-114"/>
       <path d="M 18.3125 70.21875 
L 18.3125 54.6875 
L 36.8125 54.6875 
L 36.8125 47.703125 
L 18.3125 47.703125 
L 18.3125 18.015625 
Q 18.3125 11.328125 20.140625 9.421875 
Q 21.96875 7.515625 27.59375 7.515625 
L 36.8125 7.515625 
L 36.8125 0 
L 27.59375 0 
Q 17.1875 0 13.234375 3.875 
Q 9.28125 7.765625 9.28125 18.015625 
L 9.28125 47.703125 
L 2.6875 47.703125 
L 2.6875 54.6875 
L 9.28125 54.6875 
L 9.28125 70.21875 
z
" id="DejaVuSans-116"/>
       <path d="M 25.390625 72.90625 
L 33.6875 72.90625 
L 8.296875 -9.28125 
L 0 -9.28125 
z
" id="DejaVuSans-47"/>
      </defs>
      <use xlink:href="#DejaVuSans-80"/>
      <use x="55.802734" xlink:href="#DejaVuSans-97"/>
      <use x="117.082031" xlink:href="#DejaVuSans-114"/>
      <use x="158.195312" xlink:href="#DejaVuSans-116"/>
      <use x="197.404297" xlink:href="#DejaVuSans-105"/>
      <use x="225.1875" xlink:href="#DejaVuSans-99"/>
      <use x="280.167969" xlink:href="#DejaVuSans-108"/>
      <use x="307.951172" xlink:href="#DejaVuSans-101"/>
      <use x="369.474609" xlink:href="#DejaVuSans-115"/>
      <use x="421.574219" xlink:href="#DejaVuSans-47"/>
      <use x="455.265625" xlink:href="#DejaVuSans-99"/>
      <use x="510.246094" xlink:href="#DejaVuSans-99"/>
     </g>
    </g>
   </g>
   <g id="line2d_36">
    <path clip-path="url(#p5ecccf483b)" d="M 78.567033 431.622686 
L 80.774505 438.455541 
L 82.981978 446.156171 
L 85.189451 454.9775 
L 85.925275 458.227795 
L 88.868571 464.623908 
L 91.076044 469.906101 
L 93.283516 475.692089 
L 95.490989 469.906101 
L 97.698462 464.623908 
L 100.641758 458.227795 
L 103.585055 452.441807 
L 106.528352 447.159614 
L 108 444.681436 
L 110.207473 450.007796 
L 112.414945 455.846826 
L 114.622418 462.307831 
L 115.358242 464.623908 
L 116.82989 472.923215 
L 118.301538 482.539556 
L 119.773187 493.971252 
L 121.244835 508.066999 
L 121.980659 516.568765 
L 122.716484 526.458133 
L 124.188132 508.066999 
L 125.65978 493.971252 
L 127.131429 482.539556 
L 128.603077 472.923215 
L 130.074725 464.623908 
L 132.282198 473.31112 
L 133.753846 479.880433 
L 135.225495 487.247878 
L 136.697143 495.63456 
L 137.432967 500.306628 
L 138.168791 471.207677 
L 138.904615 451.619579 
L 139.64044 436.833711 
L 140.376264 424.953031 
L 141.847912 406.48817 
L 143.31956 392.349293 
L 144.791209 380.889288 
L 145.527033 344.038642 
L 146.262857 321.271916 
L 146.998681 304.753057 
L 147.734505 291.781109 
L 149.206154 272.018108 
L 150.677802 257.133179 
L 152.149451 245.188738 
L 154.356923 252.366801 
L 156.564396 260.508864 
L 158.036044 266.614773 
L 159.507692 273.404204 
L 161.715165 263.965714 
L 163.922637 255.799147 
L 166.13011 248.602053 
L 166.865934 246.380906 
L 169.809231 252.392358 
L 172.016703 257.326963 
L 175.695824 266.253958 
L 177.903297 272.011045 
L 180.110769 278.371853 
L 181.582418 283.015692 
L 185.261538 287.998438 
L 188.940659 293.427029 
L 190.412308 299.378074 
L 191.883956 305.976535 
L 193.355604 313.380669 
L 194.827253 321.814944 
L 196.298901 331.613059 
L 199.978022 327.073806 
L 203.657143 322.850481 
L 207.336264 327.777662 
L 211.015385 333.140358 
L 218.373626 332.181302 
L 221.316923 337.591653 
L 224.26022 343.531788 
L 225.731868 346.735069 
L 227.939341 337.156328 
L 230.146813 328.885027 
L 232.354286 321.606741 
L 233.09011 319.36244 
L 240.448352 320.607754 
L 244.127473 324.841051 
L 247.806593 329.391826 
L 250.014066 337.425447 
L 251.485714 343.440086 
L 252.957363 350.116836 
L 254.429011 357.619714 
L 255.164835 361.750215 
L 262.523077 362.686587 
L 264.730549 355.403679 
L 266.938022 348.901645 
L 269.145495 343.029131 
L 269.881319 341.191424 
L 272.824615 346.445528 
L 275.767912 352.197826 
L 277.975385 356.957816 
L 280.182857 362.247815 
L 282.39033 368.043172 
L 284.597802 374.450738 
L 291.956044 371.108228 
L 294.899341 376.232946 
L 297.842637 381.8305 
L 299.314286 384.835532 
L 302.993407 380.466242 
L 306.672527 376.390421 
L 311.823297 380.381985 
L 314.030769 382.176409 
L 316.974066 386.675276 
L 319.917363 391.534423 
L 321.389011 394.118086 
L 324.332308 389.641847 
L 328.011429 384.47418 
L 328.747253 383.491412 
L 333.162198 387.90172 
L 336.105495 391.030628 
L 338.312967 399.409878 
L 339.784615 405.716462 
L 341.256264 412.754982 
L 342.727912 420.717916 
L 343.463736 425.128738 
L 344.935385 414.798196 
L 346.407033 405.972609 
L 347.878681 398.268737 
L 349.35033 391.433329 
L 352.293626 379.297159 
L 354.501099 371.289173 
L 356.708571 364.215489 
L 358.18022 359.919717 
L 360.387692 367.495951 
L 362.595165 376.15436 
L 364.066813 382.698997 
L 365.538462 390.03541 
L 367.745934 384.790245 
L 370.689231 378.434889 
L 372.896703 374.070129 
L 380.254945 372.942414 
L 382.462418 378.680004 
L 384.66989 385.017017 
L 386.877363 392.093469 
L 389.820659 402.663341 
L 391.292308 408.662389 
L 392.763956 415.319928 
L 394.235604 422.798549 
L 394.971429 426.914365 
L 398.650549 432.114243 
L 401.593846 436.620704 
L 402.32967 437.801601 
L 404.537143 430.171456 
L 406.744615 423.394137 
L 408.952088 417.298023 
L 409.687912 415.394829 
L 411.15956 405.207386 
L 412.631209 396.486387 
L 414.102857 388.862293 
L 415.574505 382.089747 
L 417.046154 375.997495 
L 420.725275 381.101922 
L 423.668571 385.518919 
L 424.404396 386.675276 
L 426.611868 393.17525 
L 428.819341 400.455573 
L 431.026813 408.729506 
L 431.762637 411.758597 
L 433.97011 404.01517 
L 436.177582 397.148651 
L 438.385055 390.980478 
L 439.120879 389.056245 
L 445.007473 393.071389 
L 446.479121 394.118086 
L 453.837363 395.183147 
L 456.044835 401.638981 
L 458.252308 408.863962 
L 460.45978 417.066465 
L 462.667253 426.37314 
L 464.138901 433.411236 
L 465.610549 441.373626 
L 467.082198 450.540316 
L 468.553846 461.341653 
L 470.025495 453.275325 
L 471.497143 446.156171 
L 473.704615 436.833711 
L 475.912088 428.754109 
L 481.798681 424.428939 
L 483.27033 423.394137 
L 485.477802 417.763808 
L 488.421099 410.987037 
L 490.628571 406.358869 
L 497.986813 404.451688 
L 500.93011 398.722622 
L 503.873407 393.487905 
L 505.345055 391.030628 
L 507.552527 397.538334 
L 509.76 404.828361 
L 511.967473 413.114834 
L 512.703297 416.148962 
L 515.646593 409.540746 
L 518.58989 403.581769 
L 520.061538 400.80818 
L 523.740659 395.452358 
L 527.41978 390.53098 
L 532.570549 394.861662 
L 534.778022 396.816616 
L 537.721319 390.134201 
L 540.664615 384.114966 
L 542.136264 381.315304 
L 549.494505 382.176409 
L 551.701978 390.830275 
L 553.173626 397.371021 
L 554.645275 404.702544 
L 556.116923 413.042693 
L 556.852747 417.685928 
L 558.324396 424.603134 
L 559.796044 432.411099 
L 561.267692 441.373626 
L 562.739341 451.892419 
L 564.210989 464.623908 
L 565.682637 453.555727 
L 567.154286 444.197713 
L 568.625934 436.091433 
L 570.097582 428.941188 
L 571.569231 422.545075 
L 573.776703 417.220739 
L 576.72 410.778303 
L 578.927473 406.358869 
L 580.399121 412.468628 
L 581.870769 419.26282 
L 583.342418 426.914365 
L 584.814066 435.671315 
L 586.285714 445.907881 
L 591.436484 441.719536 
L 593.643956 440.009368 
L 600.266374 444.197713 
L 606.152967 448.179923 
L 608.36044 449.743277 
L 609.832088 442.067427 
L 611.303736 435.254083 
L 613.511209 426.283403 
L 615.718681 418.469254 
L 617.19033 425.304956 
L 618.661978 433.009202 
L 620.133626 441.835278 
L 621.605275 452.166492 
L 623.076923 464.623908 
L 630.435165 468.093819 
L 633.378462 461.98406 
L 636.321758 456.433371 
L 637.793407 453.83743 
L 645.151648 449.743277 
L 647.359121 443.717814 
L 649.566593 438.236778 
L 652.50989 431.622686 
L 654.717363 439.784943 
L 656.189011 445.907881 
L 657.660659 452.718377 
L 659.132308 460.390611 
L 659.868132 464.623908 
L 661.33978 453.275325 
L 662.811429 443.717814 
L 664.283077 435.46234 
L 665.754725 428.196308 
L 667.226374 421.707725 
L 669.433846 428.847576 
L 671.641319 436.940495 
L 673.112967 443.005005 
L 674.584615 449.743277 
L 676.792088 441.604013 
L 678.99956 434.428126 
L 681.207033 428.011507 
L 681.942857 426.014986 
L 686.357802 421.874273 
L 689.301099 419.26282 
L 691.508571 426.643149 
L 693.716044 435.046538 
L 695.187692 441.373626 
L 696.659341 448.437702 
L 698.866813 453.696415 
L 701.074286 459.454239 
L 703.281758 465.815947 
L 704.017582 468.093819 
L 711.375824 468.093819 
L 713.583297 473.116857 
L 715.790769 478.593313 
L 717.998242 484.613239 
L 718.734066 486.760269 
L 720.941538 477.332916 
L 723.149011 469.174683 
L 725.356484 461.98406 
L 726.092308 459.764761 
L 729.035604 466.334075 
L 731.243077 471.774153 
L 733.450549 477.750147 
L 735.658022 486.517926 
L 737.12967 493.156382 
L 738.601319 500.610924 
L 740.072967 509.110696 
L 740.808791 513.852986 
L 742.28044 497.925659 
L 743.752088 485.320512 
L 745.223736 474.888012 
L 746.695385 465.988166 
L 748.167033 458.227795 
L 750.374505 452.579934 
L 752.581978 447.413088 
L 755.525275 441.14411 
L 759.204396 446.530521 
L 762.147692 451.212604 
L 762.883516 452.441807 
L 770.241758 449.743277 
L 775.392527 445.291561 
L 777.6 443.47928 
L 777.6 443.47928 
" style="fill:none;stroke:#1f77b4;stroke-linecap:square;stroke-width:4;"/>
   </g>
   <g id="line2d_37">
    <path clip-path="url(#p5ecccf483b)" d="M 78.567033 479.880433 
L 80.774505 472.250289 
L 82.981978 465.472969 
L 85.189451 459.376856 
L 85.925275 457.473662 
L 89.604396 453.135608 
L 93.283516 449.08698 
L 97.698462 453.135608 
L 100.641758 455.992932 
L 102.849231 461.022981 
L 105.056703 466.507772 
L 107.264176 472.537773 
L 108 474.688645 
L 112.414945 470.646438 
L 115.358242 468.093819 
L 118.301538 462.9606 
L 121.244835 458.227795 
L 122.716484 455.992932 
L 126.395604 460.155161 
L 130.074725 464.623908 
L 132.282198 471.869082 
L 134.48967 480.097632 
L 135.961319 486.276546 
L 137.432967 493.156382 
L 138.168791 474.390819 
L 138.904615 460.07688 
L 139.64044 448.502318 
L 141.112088 430.410931 
L 142.583736 416.491403 
L 144.055385 405.17571 
L 146.262857 390.630581 
L 147.734505 382.350106 
L 149.206154 375.06472 
L 151.413626 365.552628 
L 152.149451 362.686587 
L 153.621099 352.863041 
L 155.092747 344.40994 
L 156.564396 336.991307 
L 158.771868 327.328012 
L 159.507692 324.420932 
L 160.979341 317.73579 
L 163.186813 308.913723 
L 165.394286 301.212532 
L 171.280879 282.593821 
L 173.488352 276.651338 
L 174.224176 274.793105 
L 176.431648 280.049759 
L 178.639121 285.805115 
L 180.846593 292.16381 
L 181.582418 294.440523 
L 188.940659 295.679483 
L 191.883956 302.214832 
L 194.091429 307.623881 
L 196.298901 313.562447 
L 202.921319 317.399214 
L 203.657143 317.840884 
L 205.864615 324.103575 
L 208.072088 331.087454 
L 210.27956 338.980503 
L 211.015385 341.857321 
L 218.373626 345.537655 
L 221.316923 350.992556 
L 224.26022 356.986445 
L 225.731868 360.220992 
L 227.939341 355.055947 
L 230.882637 348.788958 
L 233.09011 344.479811 
L 240.448352 348.452147 
L 249.278242 348.377553 
L 255.164835 348.576674 
L 258.108132 353.671042 
L 261.051429 359.232405 
L 262.523077 362.216596 
L 266.202198 366.667463 
L 269.881319 371.470659 
L 277.23956 373.691892 
L 280.918681 379.111353 
L 283.861978 383.824662 
L 284.597802 385.062474 
L 286.805275 379.214508 
L 289.012747 373.880716 
L 291.956044 367.427894 
L 300.05011 369.415629 
L 306.672527 370.211507 
L 314.030769 369.503547 
L 316.238242 376.311632 
L 318.445714 383.980807 
L 320.653187 392.760867 
L 321.389011 395.994388 
L 324.332308 391.382845 
L 328.011429 386.071222 
L 328.747253 385.062474 
L 336.841319 380.995512 
L 342.727912 376.885183 
L 343.463736 376.390421 
L 347.878681 371.725654 
L 350.821978 368.803747 
L 353.029451 375.997495 
L 355.236923 384.159752 
L 356.708571 390.282689 
L 358.18022 397.093185 
L 364.066813 393.019525 
L 365.538462 392.042433 
L 372.896703 394.915125 
L 379.519121 391.181328 
L 380.254945 390.78029 
L 383.198242 395.560377 
L 386.141538 400.749269 
L 387.613187 403.520106 
L 389.820659 397.874351 
L 392.028132 392.709267 
L 394.971429 386.442236 
L 402.32967 388.092623 
L 406.744615 392.400587 
L 409.687912 395.452358 
L 411.895385 400.514199 
L 414.102857 406.036816 
L 416.31033 412.112574 
L 417.046154 414.280909 
L 424.404396 412.468628 
L 429.555165 408.361279 
L 431.762637 406.68264 
L 435.441758 411.406672 
L 439.120879 416.529571 
L 445.743297 420.432236 
L 446.479121 420.881767 
L 449.422418 425.481686 
L 452.365714 430.45894 
L 453.837363 433.109461 
L 455.309011 424.690419 
L 456.780659 417.298023 
L 458.988132 407.664445 
L 461.195604 399.352308 
L 467.082198 395.560377 
L 468.553846 394.648281 
L 471.497143 399.525181 
L 474.44044 404.828361 
L 475.912088 407.664445 
L 481.798681 411.476894 
L 483.27033 412.468628 
L 485.477802 418.193939 
L 487.685275 424.515974 
L 489.892747 431.573749 
L 490.628571 434.121266 
L 497.986813 430.171456 
L 505.345055 428.754109 
L 512.703297 426.014986 
L 520.061538 426.914365 
L 522.269011 419.502927 
L 524.476484 412.898667 
L 526.683956 406.942906 
L 527.41978 405.080781 
L 530.363077 411.617582 
L 532.570549 417.027957 
L 535.513846 424.428939 
L 538.457143 430.651355 
L 540.664615 435.776072 
L 542.136264 439.449854 
L 549.494505 440.574088 
L 551.701978 434.428126 
L 553.909451 428.847576 
L 556.852747 422.124956 
L 564.210989 418.469254 
L 567.154286 424.953031 
L 569.361758 430.315028 
L 571.569231 436.196919 
L 578.927473 436.196919 
L 582.606593 430.892735 
L 586.285714 426.014986 
L 592.908132 430.171456 
L 593.643956 430.651355 
L 596.587253 437.154629 
L 598.794725 442.534406 
L 601.002198 448.437702 
L 604.681319 453.485505 
L 607.624615 457.849557 
L 608.36044 458.991414 
L 613.511209 462.878619 
L 615.718681 464.623908 
L 617.19033 457.473662 
L 619.397802 448.115648 
L 621.605275 440.009368 
L 623.076923 435.150222 
L 630.435165 436.196919 
L 632.642637 443.419792 
L 634.85011 451.619579 
L 636.321758 457.774192 
L 637.793407 464.623908 
L 639.265055 456.728782 
L 640.736703 449.743277 
L 642.944176 440.574088 
L 645.151648 432.609813 
L 649.566593 436.620704 
L 652.50989 439.449854 
L 659.868132 437.26198 
L 662.075604 427.597752 
L 664.283077 419.26282 
L 666.490549 411.935328 
L 667.226374 409.677013 
L 674.584615 410.019025 
L 676.792088 417.569296 
L 678.99956 426.193799 
L 680.471209 432.709414 
L 681.942857 440.009368 
L 687.093626 444.499588 
L 689.301099 446.530521 
L 696.659341 450.406748 
L 699.602637 443.837434 
L 702.545934 437.910103 
L 704.017582 435.150222 
L 706.225055 429.790249 
L 709.168352 423.308694 
L 711.375824 418.864741 
L 713.583297 424.603134 
L 715.790769 430.941126 
L 717.998242 438.018799 
L 718.734066 440.574088 
L 721.677363 447.033273 
L 723.884835 452.372861 
L 726.092308 458.227795 
L 733.450549 457.473662 
L 740.808791 461.341653 
L 743.016264 452.649116 
L 745.223736 445.046775 
L 747.431209 438.291395 
L 748.167033 436.196919 
L 751.846154 440.291072 
L 755.525275 444.681436 
L 756.996923 452.441807 
L 758.468571 461.341653 
L 759.94022 471.774153 
L 761.411868 484.3793 
L 762.883516 500.306628 
L 765.090989 493.021627 
L 767.298462 486.517926 
L 769.505934 480.644053 
L 770.241758 478.805947 
L 772.449231 470.18267 
L 774.656703 462.633338 
L 776.864176 455.919835 
L 777.6 453.83743 
L 777.6 453.83743 
" style="fill:none;stroke:#ff7f0e;stroke-linecap:square;stroke-width:4;"/>
   </g>
   <g id="line2d_38">
    <path clip-path="url(#p5ecccf483b)" d="M 78.567033 447.159614 
L 81.51033 442.567899 
L 85.189451 437.277331 
L 85.925275 436.272378 
L 93.283516 437.185281 
L 100.641758 436.879452 
L 103.585055 442.411754 
L 106.528352 448.49924 
L 108.735824 453.182145 
L 111.679121 459.101291 
L 114.622418 465.660551 
L 116.82989 471.198728 
L 119.037363 477.352719 
L 121.244835 484.201665 
L 122.716484 489.238447 
L 130.074725 485.956192 
L 133.753846 480.503074 
L 137.432967 475.499673 
L 144.055385 479.243678 
L 144.791209 479.674298 
L 146.262857 472.831221 
L 148.47033 463.826171 
L 150.677802 455.985966 
L 152.149451 451.270576 
L 153.621099 441.264225 
L 155.092747 432.676195 
L 156.564396 425.153881 
L 158.036044 418.461746 
L 159.507692 412.434628 
L 161.715165 407.201174 
L 164.658462 400.85872 
L 166.865934 396.502071 
L 169.809231 391.582622 
L 172.752527 387.032114 
L 174.224176 384.878693 
L 177.167473 379.447004 
L 180.110769 374.461648 
L 181.582418 372.114539 
L 188.940659 369.91552 
L 196.298901 366.217323 
L 200.713846 362.182421 
L 211.015385 353.078737 
L 216.166154 357.150296 
L 218.373626 358.982468 
L 224.996044 354.840362 
L 225.731868 354.3971 
L 233.09011 355.691314 
L 238.240879 359.728253 
L 240.448352 361.544079 
L 247.806593 359.010658 
L 253.693187 362.827546 
L 256.636484 364.910667 
L 261.787253 368.888294 
L 263.258901 369.993182 
L 269.145495 374.276449 
L 269.881319 374.833748 
L 274.296264 370.491909 
L 277.23956 367.760803 
L 284.597802 369.344551 
L 287.541099 375.889419 
L 289.748571 381.307161 
L 291.956044 387.256208 
L 299.314286 383.301802 
L 306.672527 385.748435 
L 313.294945 389.739999 
L 314.030769 390.200151 
L 321.389011 387.346078 
L 325.068132 382.093871 
L 328.747253 377.260109 
L 335.36967 373.280318 
L 336.105495 372.853804 
L 343.463736 376.956194 
L 347.878681 381.0715 
L 351.557802 384.534256 
L 356.708571 388.572522 
L 358.18022 389.777432 
L 365.538462 392.849426 
L 372.896703 389.777432 
L 375.84 394.810789 
L 378.783297 400.299514 
L 380.254945 403.241936 
L 387.613187 400.72404 
L 392.763956 396.444581 
L 394.971429 394.699018 
L 402.32967 391.630859 
L 408.216264 395.826099 
L 409.687912 396.921827 
L 413.367033 401.258906 
L 417.046154 405.929843 
L 424.404396 405.261726 
L 428.083516 399.806117 
L 431.762637 394.80062 
L 439.120879 394.546934 
L 446.479121 398.414259 
L 450.158242 403.564144 
L 453.101538 408.023714 
L 453.837363 409.191743 
L 461.195604 411.691406 
L 464.138901 416.148962 
L 467.082198 420.959948 
L 468.553846 423.516406 
L 472.232967 428.754109 
L 475.176264 433.296097 
L 475.912088 434.486752 
L 478.11956 428.06425 
L 480.327033 422.25668 
L 482.534505 416.956508 
L 483.27033 415.287857 
L 490.628571 416.949185 
L 495.779341 421.030396 
L 497.986813 422.867128 
L 505.345055 420.881767 
L 509.024176 425.380634 
L 512.703297 430.239781 
L 514.910769 437.185281 
L 517.118242 445.029328 
L 519.325714 454.03945 
L 520.061538 457.366689 
L 523.004835 452.863751 
L 526.683956 447.667625 
L 527.41978 446.679715 
L 530.363077 441.373626 
L 533.306374 436.494268 
L 534.778022 434.194188 
L 542.136264 430.789169 
L 552.437802 427.722239 
L 556.852747 426.270595 
L 560.531868 431.576078 
L 563.475165 436.181838 
L 564.210989 437.390027 
L 567.154286 431.084221 
L 570.097582 425.372221 
L 571.569231 422.705888 
L 575.248352 418.431723 
L 578.927473 414.438795 
L 584.078242 418.929015 
L 586.285714 420.959948 
L 589.964835 425.086857 
L 593.643956 429.514914 
L 601.002198 427.217143 
L 610.567912 430.954959 
L 616.454505 432.971051 
L 625.284396 436.869285 
L 632.642637 440.127256 
L 638.529231 442.534406 
L 645.151648 445.73115 
L 652.50989 444.220661 
L 654.717363 438.476417 
L 656.924835 433.229033 
L 659.868132 426.871234 
L 662.811429 422.160853 
L 666.490549 416.744489 
L 667.226374 415.716882 
L 674.584615 414.088494 
L 679.735385 418.394215 
L 681.942857 420.337307 
L 684.886154 415.259362 
L 687.829451 410.57358 
L 689.301099 408.35969 
L 693.716044 412.543495 
L 696.659341 415.50199 
L 698.866813 421.898103 
L 701.074286 429.048349 
L 703.281758 437.154629 
L 706.225055 449.304958 
L 707.696703 456.307205 
L 709.168352 464.223729 
L 710.64 473.329653 
L 711.375824 478.451969 
L 715.054945 473.052241 
L 719.46989 466.798375 
L 722.413187 461.876519 
L 725.356484 457.323953 
L 726.092308 456.237226 
L 733.450549 453.502217 
L 740.808791 451.658481 
L 748.167033 452.705178 
L 751.11033 446.393586 
L 754.053626 440.676839 
L 755.525275 438.008439 
L 762.883516 441.417442 
L 765.826813 446.727535 
L 768.77011 452.547018 
L 770.241758 455.680278 
L 776.128352 459.690683 
L 777.6 460.736093 
L 777.6 460.736093 
" style="fill:none;stroke:#2ca02c;stroke-linecap:square;stroke-width:4;"/>
   </g>
   <g id="line2d_39">
    <path clip-path="url(#p5ecccf483b)" d="M 78.567033 464.623908 
L 82.246154 468.993197 
L 85.925275 473.701519 
L 90.34022 469.174683 
L 93.283516 466.334075 
L 96.962637 470.832942 
L 100.641758 475.692089 
L 103.585055 480.753929 
L 106.528352 486.276546 
L 108 489.238447 
L 109.471648 471.02002 
L 110.943297 457.025638 
L 112.414945 445.660602 
L 113.886593 436.091433 
L 115.358242 427.827268 
L 116.82989 434.223381 
L 118.301538 441.373626 
L 119.773187 449.479906 
L 121.244835 458.83792 
L 122.716484 469.906101 
L 128.603077 465.644216 
L 130.074725 464.623908 
L 134.48967 468.812253 
L 137.432967 471.774153 
L 139.64044 462.796749 
L 141.847912 454.9775 
L 144.055385 448.051442 
L 144.791209 445.907881 
L 148.47033 441.14411 
L 152.149451 436.727114 
L 159.507692 433.613256 
L 162.450989 427.460458 
L 165.394286 421.874273 
L 166.865934 419.26282 
L 170.545055 415.021247 
L 174.224176 411.056775 
L 179.374945 415.09578 
L 181.582418 416.912581 
L 183.054066 423.737114 
L 184.525714 431.427173 
L 185.997363 440.234626 
L 187.469011 450.540316 
L 188.940659 462.9606 
L 191.148132 455.555665 
L 193.355604 448.956568 
L 195.563077 443.005005 
L 196.298901 441.14411 
L 197.770549 430.651355 
L 199.242198 421.707725 
L 200.713846 413.914099 
L 202.185495 407.008147 
L 203.657143 400.80818 
L 209.543736 405.207386 
L 211.015385 406.358869 
L 213.958681 411.476894 
L 216.901978 417.066465 
L 218.373626 420.066897 
L 220.581099 414.280909 
L 222.788571 408.998716 
L 225.731868 402.602604 
L 228.675165 396.596264 
L 231.618462 391.131053 
L 233.09011 388.572522 
L 235.297582 393.697239 
L 237.505055 399.294793 
L 239.712527 405.46139 
L 240.448352 407.664445 
L 244.127473 402.602604 
L 247.806593 397.930536 
L 250.014066 390.03541 
L 252.221538 383.049905 
L 254.429011 376.785908 
L 257.372308 369.222658 
L 260.315604 362.466805 
L 262.523077 357.851641 
L 264.730549 362.844063 
L 266.938022 368.284141 
L 269.145495 374.260135 
L 269.881319 376.390421 
L 272.824615 381.144539 
L 275.767912 386.30284 
L 277.23956 389.056245 
L 279.447033 381.272567 
L 281.654505 374.374425 
L 283.861978 368.180752 
L 284.597802 366.249082 
L 291.956044 368.977942 
L 294.899341 374.987632 
L 297.106813 379.920652 
L 299.314286 385.290267 
L 304.465055 380.974253 
L 306.672527 379.214508 
L 310.351648 383.491412 
L 314.030769 388.092623 
L 316.974066 392.451925 
L 319.917363 397.148651 
L 321.389011 399.640703 
L 325.068132 394.648281 
L 328.747253 390.03541 
L 333.162198 394.329609 
L 336.105495 397.371021 
L 338.312967 390.134201 
L 340.52044 383.668918 
L 342.727912 377.826395 
L 343.463736 375.997495 
L 347.878681 380.129915 
L 350.821978 383.049905 
L 353.029451 389.59283 
L 355.236923 396.927092 
L 357.444396 405.270787 
L 358.18022 408.327915 
L 365.538462 408.327915 
L 367.745934 398.722622 
L 369.953407 390.431542 
L 372.160879 383.13795 
L 372.896703 380.889288 
L 375.104176 389.34834 
L 376.575824 395.722768 
L 378.047473 402.845918 
L 379.519121 410.917379 
L 380.254945 415.394829 
L 387.613187 413.187061 
L 389.820659 406.423485 
L 392.028132 400.338491 
L 394.235604 394.808246 
L 394.971429 393.071389 
L 397.178901 402.11888 
L 398.650549 408.998716 
L 400.122198 416.759087 
L 401.593846 425.658933 
L 402.32967 430.651355 
L 409.687912 434.633564 
L 414.102857 429.885327 
L 417.046154 426.914365 
L 418.517802 436.091433 
L 419.989451 446.907194 
L 421.461099 460.07688 
L 422.932747 476.918533 
L 423.668571 487.493159 
L 424.404396 500.306628 
L 425.14022 486.276546 
L 425.876044 474.888012 
L 427.347692 457.025638 
L 428.819341 443.241679 
L 430.290989 432.015613 
L 431.762637 422.545075 
L 433.97011 428.381673 
L 436.177582 434.8397 
L 438.385055 442.067427 
L 439.120879 444.681436 
L 441.328352 449.611449 
L 443.535824 454.9775 
L 445.743297 460.86427 
L 446.479121 462.9606 
L 447.950769 447.159614 
L 449.422418 434.633564 
L 450.894066 424.255242 
L 452.365714 415.394829 
L 453.837363 407.664445 
L 457.516484 411.758597 
L 461.195604 416.148962 
L 462.667253 422.208748 
L 464.138901 428.941188 
L 465.610549 436.51448 
L 467.082198 445.169045 
L 468.553846 455.265894 
L 475.912088 452.441807 
L 477.383736 443.95729 
L 478.855385 436.51448 
L 481.062857 426.823825 
L 483.27033 418.469254 
L 489.892747 414.354538 
L 490.628571 413.914099 
L 497.986813 416.912581 
L 500.194286 409.950468 
L 502.401758 403.705282 
L 504.609231 398.04306 
L 506.080879 394.701556 
L 509.024176 388.813902 
L 511.967473 383.447117 
L 512.703297 382.176409 
L 514.174945 388.1883 
L 515.646593 394.861662 
L 517.118242 402.36026 
L 518.58989 410.917379 
L 520.061538 420.881767 
L 522.269011 426.014986 
L 524.476484 431.622686 
L 526.683956 437.801601 
L 527.41978 440.009368 
L 534.778022 440.009368 
L 536.24967 432.015613 
L 537.721319 424.953031 
L 539.928791 415.695359 
L 542.136264 407.664445 
L 543.607912 413.622238 
L 545.07956 420.228998 
L 546.551209 427.643586 
L 548.022857 436.091433 
L 549.494505 445.907881 
L 552.437802 452.166492 
L 554.645275 457.323953 
L 556.852747 462.9606 
L 558.324396 456.13939 
L 560.531868 447.159614 
L 562.739341 439.338567 
L 564.210989 434.633564 
L 568.625934 430.45894 
L 571.569231 427.827268 
L 573.776703 433.310477 
L 575.984176 439.338567 
L 578.191648 446.031899 
L 578.927473 448.437702 
L 584.814066 452.718377 
L 586.285714 453.83743 
L 587.757363 447.159614 
L 589.964835 438.346061 
L 592.172308 430.651355 
L 593.643956 426.014986 
L 595.851429 417.530469 
L 598.058901 410.087659 
L 600.266374 403.458506 
L 601.002198 401.400447 
L 606.152967 405.716462 
L 608.36044 407.664445 
L 611.303736 412.325956 
L 614.247033 417.375406 
L 615.718681 420.066897 
L 623.076923 422.545075 
L 625.284396 430.075929 
L 627.491868 438.675097 
L 628.963516 445.169045 
L 630.435165 452.441807 
L 634.114286 456.728782 
L 637.793407 461.341653 
L 639.265055 448.179923 
L 640.736703 437.369521 
L 642.208352 428.196308 
L 643.68 420.228998 
L 645.151648 413.187061 
L 652.50989 415.394829 
L 658.396484 419.743987 
L 659.868132 420.881767 
L 662.811429 427.460458 
L 665.018901 432.909108 
L 667.226374 438.895449 
L 670.16967 443.95729 
L 673.112967 449.479906 
L 674.584615 452.441807 
L 681.207033 456.286203 
L 681.942857 456.728782 
L 687.093626 452.718377 
L 689.301099 451.077549 
L 692.98022 455.992932 
L 696.659341 461.341653 
L 698.866813 455.410607 
L 701.074286 450.007796 
L 704.017582 443.47928 
L 708.432527 438.675097 
L 711.375824 435.671315 
L 715.054945 441.14411 
L 717.998242 445.907881 
L 718.734066 447.159614 
L 720.941538 454.833815 
L 723.149011 463.620465 
L 724.620659 470.275141 
L 726.092308 477.750147 
L 733.450549 477.750147 
L 734.922198 470.646438 
L 737.12967 461.341653 
L 739.337143 453.275325 
L 740.808791 448.437702 
L 743.016264 453.696415 
L 745.223736 459.454239 
L 747.431209 465.815947 
L 748.167033 468.093819 
L 751.11033 474.094446 
L 753.317802 479.019328 
L 755.525275 484.3793 
L 762.147692 480.31561 
L 762.883516 479.880433 
L 764.355165 470.275141 
L 765.826813 461.98406 
L 767.298462 454.690469 
L 769.505934 445.169045 
L 770.241758 442.300468 
L 774.656703 446.655819 
L 777.6 449.743277 
L 777.6 449.743277 
" style="fill:none;stroke:#d62728;stroke-linecap:square;stroke-width:4;"/>
   </g>
   <g id="line2d_40">
    <path clip-path="url(#p5ecccf483b)" d="M 78.567033 436.727114 
L 85.925275 435.671315 
L 89.604396 441.14411 
L 92.547692 445.907881 
L 93.283516 447.159614 
L 99.17011 451.347959 
L 100.641758 452.441807 
L 102.849231 445.414326 
L 105.056703 439.116603 
L 107.264176 433.411236 
L 108 431.622686 
L 115.358242 435.671315 
L 116.82989 424.255242 
L 118.301538 414.64995 
L 119.773187 406.358869 
L 121.244835 399.065277 
L 122.716484 392.554731 
L 130.074725 394.648281 
L 132.282198 399.640703 
L 134.48967 405.080781 
L 136.697143 411.056775 
L 137.432967 413.187061 
L 141.847912 408.595347 
L 144.791209 405.716462 
L 149.206154 410.087659 
L 152.149451 413.187061 
L 155.092747 419.583174 
L 157.30022 424.865367 
L 159.507692 430.651355 
L 163.186813 425.128738 
L 168.337582 417.685928 
L 171.280879 413.187061 
L 174.224176 408.998716 
L 177.903297 413.914099 
L 181.582418 419.26282 
L 183.054066 426.014986 
L 184.525714 433.613256 
L 185.997363 442.300468 
L 187.469011 452.441807 
L 188.940659 464.623908 
L 190.412308 452.996212 
L 191.883956 443.241679 
L 193.355604 434.8397 
L 194.827253 427.460458 
L 196.298901 420.881767 
L 201.44967 416.989474 
L 203.657143 415.394829 
L 206.60044 421.046062 
L 209.543736 427.27788 
L 211.015385 430.651355 
L 215.43033 435.46234 
L 218.373626 438.895449 
L 220.581099 432.909108 
L 222.788571 427.460458 
L 225.731868 420.881767 
L 228.675165 427.09585 
L 230.882637 432.213034 
L 233.09011 437.801601 
L 235.297582 446.156171 
L 236.769231 452.441807 
L 238.240879 459.454239 
L 239.712527 467.383789 
L 240.448352 471.774153 
L 242.655824 462.796749 
L 244.863297 454.9775 
L 247.070769 448.051442 
L 248.542418 443.95729 
L 250.74989 438.455541 
L 253.693187 431.818832 
L 255.164835 428.754109 
L 261.051429 424.428939 
L 262.523077 423.394137 
L 269.881319 421.707725 
L 272.088791 415.997384 
L 274.296264 410.778303 
L 277.23956 404.451688 
L 278.711209 412.468628 
L 280.182857 421.707725 
L 281.654505 432.609813 
L 283.126154 445.907881 
L 284.597802 462.9606 
L 286.069451 454.690469 
L 287.541099 447.413088 
L 289.748571 437.910103 
L 291.956044 429.695321 
L 295.635165 425.128738 
L 299.314286 420.881767 
L 301.521758 426.014986 
L 303.729231 431.622686 
L 305.936703 437.801601 
L 306.672527 440.009368 
L 311.087473 435.46234 
L 314.030769 432.609813 
L 316.238242 426.914365 
L 318.445714 421.707725 
L 321.389011 415.394829 
L 323.596484 423.565383 
L 325.068132 429.695321 
L 326.53978 436.51448 
L 328.011429 444.197713 
L 328.747253 448.437702 
L 336.105495 445.907881 
L 339.784615 441.14411 
L 343.463736 436.727114 
L 345.671209 429.222891 
L 347.878681 422.545075 
L 350.086154 416.529571 
L 350.821978 414.64995 
L 354.501099 419.663527 
L 358.18022 425.128738 
L 359.651868 431.232287 
L 361.123516 438.018799 
L 362.595165 445.660602 
L 364.066813 454.404789 
L 365.538462 464.623908 
L 367.745934 457.025638 
L 369.953407 450.273472 
L 372.160879 444.197713 
L 372.896703 442.300468 
L 375.84 446.655819 
L 378.783297 451.347959 
L 380.254945 453.83743 
L 381.726593 444.681436 
L 383.198242 436.727114 
L 384.66989 429.695321 
L 386.877363 420.472965 
L 387.613187 417.685928 
L 389.820659 425.658933 
L 391.292308 431.622686 
L 392.763956 438.236778 
L 394.235604 445.660602 
L 394.971429 449.743277 
L 397.914725 443.241679 
L 400.858022 437.369521 
L 402.32967 434.633564 
L 404.537143 428.754109 
L 406.744615 423.394137 
L 409.687912 416.912581 
L 417.046154 420.881767 
L 419.989451 414.64995 
L 422.932747 408.998716 
L 424.404396 406.358869 
L 431.762637 408.998716 
L 436.913407 412.898667 
L 439.120879 414.64995 
L 442.064176 419.905227 
L 445.007473 425.658933 
L 446.479121 428.754109 
L 450.158242 424.255242 
L 453.837363 420.066897 
L 461.195604 420.066897 
L 462.667253 427.09585 
L 464.138901 435.046538 
L 465.610549 444.197713 
L 467.082198 454.9775 
L 468.553846 468.093819 
L 475.912088 466.334075 
L 477.383736 457.323953 
L 478.855385 449.479906 
L 480.327033 442.534406 
L 482.534505 433.411236 
L 483.27033 430.651355 
L 490.628571 431.622686 
L 495.779341 427.643586 
L 497.986813 426.014986 
L 500.194286 418.944148 
L 502.401758 412.611636 
L 504.609231 406.877735 
L 505.345055 405.080781 
L 509.024176 409.677013 
L 512.703297 414.64995 
L 514.910769 420.717916 
L 517.118242 427.460458 
L 519.325714 435.046538 
L 520.061538 437.801601 
L 522.269011 431.038024 
L 524.476484 424.953031 
L 526.683956 419.422786 
L 527.41978 417.685928 
L 529.627253 425.393257 
L 531.834725 434.223381 
L 533.306374 440.915459 
L 534.778022 448.437702 
L 537.721319 442.534406 
L 540.664615 437.154629 
L 542.136264 434.633564 
L 544.343736 426.283403 
L 546.551209 418.944148 
L 548.758681 412.39725 
L 549.494505 410.362974 
L 554.645275 414.872455 
L 556.852747 416.912581 
L 559.796044 422.71394 
L 562.739341 429.128844 
L 564.210989 432.609813 
L 565.682637 439.116603 
L 567.154286 446.405481 
L 568.625934 454.690469 
L 570.097582 464.28758 
L 571.569231 475.692089 
L 573.040879 461.022981 
L 574.512527 449.217673 
L 575.984176 439.338567 
L 577.455824 430.844382 
L 578.927473 423.394137 
L 583.342418 427.643586 
L 587.757363 432.213034 
L 591.436484 436.302588 
L 593.643956 438.895449 
L 596.587253 433.411236 
L 599.530549 428.381673 
L 601.002198 426.014986 
L 606.152967 430.555071 
L 608.36044 432.609813 
L 609.832088 425.836699 
L 612.03956 416.912581 
L 614.247033 409.133771 
L 615.718681 404.451688 
L 617.926154 410.570283 
L 620.133626 417.375406 
L 622.341099 425.040821 
L 623.076923 427.827268 
L 625.284396 433.917552 
L 627.491868 440.687665 
L 629.699341 448.308675 
L 631.170989 453.555727 
L 633.378462 461.662007 
L 634.85011 467.737766 
L 636.321758 474.489932 
L 637.793407 482.088201 
L 639.265055 472.923215 
L 640.736703 464.962109 
L 642.208352 457.925017 
L 644.415824 448.69658 
L 645.151648 445.907881 
L 648.094945 440.687665 
L 651.038242 435.881011 
L 652.50989 433.613256 
L 659.868132 433.613256 
L 663.547253 438.895449 
L 666.490549 443.47928 
L 667.226374 444.681436 
L 670.16967 440.009368 
L 673.848791 434.633564 
L 674.584615 433.613256 
L 678.263736 438.895449 
L 681.207033 443.47928 
L 681.942857 444.681436 
L 689.301099 443.47928 
L 691.508571 437.047468 
L 693.716044 431.232287 
L 695.923516 425.925777 
L 697.395165 422.71394 
L 700.338462 416.912581 
L 703.281758 411.617582 
L 704.017582 410.362974 
L 706.960879 415.544908 
L 709.904176 421.210803 
L 711.375824 424.255242 
L 714.319121 419.583174 
L 717.998242 414.20737 
L 718.734066 413.187061 
L 726.092308 410.362974 
L 728.29978 417.608149 
L 730.507253 425.836699 
L 731.978901 432.015613 
L 733.450549 438.895449 
L 741.544615 440.009368 
L 748.167033 440.009368 
L 752.581978 444.197713 
L 755.525275 447.159614 
L 759.204396 442.887012 
L 762.883516 438.895449 
L 765.826813 434.223381 
L 769.505934 428.847576 
L 770.241758 427.827268 
L 773.185055 422.208748 
L 776.128352 417.066465 
L 777.6 414.64995 
L 777.6 414.64995 
" style="fill:none;stroke:#9467bd;stroke-linecap:square;stroke-width:4;"/>
   </g>
   <g id="patch_3">
    <path d="M 108 567 
L 108 77.76 
" style="fill:none;stroke:#000000;stroke-linecap:square;stroke-linejoin:miter;stroke-width:0.8;"/>
   </g>
   <g id="patch_4">
    <path d="M 108 567 
L 777.6 567 
" style="fill:none;stroke:#000000;stroke-linecap:square;stroke-linejoin:miter;stroke-width:0.8;"/>
   </g>
   <g id="legend_1">
    <g id="patch_5">
     <path d="M 577.8 297.514688 
L 758.7 297.514688 
Q 764.1 297.514688 764.1 292.114688 
L 764.1 96.66 
Q 764.1 91.26 758.7 91.26 
L 577.8 91.26 
Q 572.4 91.26 572.4 96.66 
L 572.4 292.114688 
Q 572.4 297.514688 577.8 297.514688 
z
" style="fill:#ffffff;opacity:0.8;stroke:#cccccc;stroke-linejoin:miter;"/>
    </g>
    <g id="line2d_41">
     <path d="M 583.2 113.125781 
L 637.2 113.125781 
" style="fill:none;stroke:#1f77b4;stroke-linecap:square;stroke-width:4;"/>
    </g>
    <g id="line2d_42"/>
    <g id="text_12">
     <!-- Zone 1 -->
     <g transform="translate(658.8 122.575781)scale(0.27 -0.27)">
      <defs>
       <path d="M 5.609375 72.90625 
L 62.890625 72.90625 
L 62.890625 65.375 
L 16.796875 8.296875 
L 64.015625 8.296875 
L 64.015625 0 
L 4.5 0 
L 4.5 7.515625 
L 50.59375 64.59375 
L 5.609375 64.59375 
z
" id="DejaVuSans-90"/>
      </defs>
      <use xlink:href="#DejaVuSans-90"/>
      <use x="68.505859" xlink:href="#DejaVuSans-111"/>
      <use x="129.6875" xlink:href="#DejaVuSans-110"/>
      <use x="193.066406" xlink:href="#DejaVuSans-101"/>
      <use x="254.589844" xlink:href="#DejaVuSans-32"/>
      <use x="286.376953" xlink:href="#DejaVuSans-49"/>
     </g>
    </g>
    <g id="line2d_43">
     <path d="M 583.2 152.756719 
L 637.2 152.756719 
" style="fill:none;stroke:#ff7f0e;stroke-linecap:square;stroke-width:4;"/>
    </g>
    <g id="line2d_44"/>
    <g id="text_13">
     <!-- Zone 2 -->
     <g transform="translate(658.8 162.206719)scale(0.27 -0.27)">
      <use xlink:href="#DejaVuSans-90"/>
      <use x="68.505859" xlink:href="#DejaVuSans-111"/>
      <use x="129.6875" xlink:href="#DejaVuSans-110"/>
      <use x="193.066406" xlink:href="#DejaVuSans-101"/>
      <use x="254.589844" xlink:href="#DejaVuSans-32"/>
      <use x="286.376953" xlink:href="#DejaVuSans-50"/>
     </g>
    </g>
    <g id="line2d_45">
     <path d="M 583.2 192.387656 
L 637.2 192.387656 
" style="fill:none;stroke:#2ca02c;stroke-linecap:square;stroke-width:4;"/>
    </g>
    <g id="line2d_46"/>
    <g id="text_14">
     <!-- Zone 3 -->
     <g transform="translate(658.8 201.837656)scale(0.27 -0.27)">
      <defs>
       <path d="M 40.578125 39.3125 
Q 47.65625 37.796875 51.625 33 
Q 55.609375 28.21875 55.609375 21.1875 
Q 55.609375 10.40625 48.1875 4.484375 
Q 40.765625 -1.421875 27.09375 -1.421875 
Q 22.515625 -1.421875 17.65625 -0.515625 
Q 12.796875 0.390625 7.625 2.203125 
L 7.625 11.71875 
Q 11.71875 9.328125 16.59375 8.109375 
Q 21.484375 6.890625 26.8125 6.890625 
Q 36.078125 6.890625 40.9375 10.546875 
Q 45.796875 14.203125 45.796875 21.1875 
Q 45.796875 27.640625 41.28125 31.265625 
Q 36.765625 34.90625 28.71875 34.90625 
L 20.21875 34.90625 
L 20.21875 43.015625 
L 29.109375 43.015625 
Q 36.375 43.015625 40.234375 45.921875 
Q 44.09375 48.828125 44.09375 54.296875 
Q 44.09375 59.90625 40.109375 62.90625 
Q 36.140625 65.921875 28.71875 65.921875 
Q 24.65625 65.921875 20.015625 65.03125 
Q 15.375 64.15625 9.8125 62.3125 
L 9.8125 71.09375 
Q 15.4375 72.65625 20.34375 73.4375 
Q 25.25 74.21875 29.59375 74.21875 
Q 40.828125 74.21875 47.359375 69.109375 
Q 53.90625 64.015625 53.90625 55.328125 
Q 53.90625 49.265625 50.4375 45.09375 
Q 46.96875 40.921875 40.578125 39.3125 
z
" id="DejaVuSans-51"/>
      </defs>
      <use xlink:href="#DejaVuSans-90"/>
      <use x="68.505859" xlink:href="#DejaVuSans-111"/>
      <use x="129.6875" xlink:href="#DejaVuSans-110"/>
      <use x="193.066406" xlink:href="#DejaVuSans-101"/>
      <use x="254.589844" xlink:href="#DejaVuSans-32"/>
      <use x="286.376953" xlink:href="#DejaVuSans-51"/>
     </g>
    </g>
    <g id="line2d_47">
     <path d="M 583.2 232.018594 
L 637.2 232.018594 
" style="fill:none;stroke:#d62728;stroke-linecap:square;stroke-width:4;"/>
    </g>
    <g id="line2d_48"/>
    <g id="text_15">
     <!-- Zone 4 -->
     <g transform="translate(658.8 241.468594)scale(0.27 -0.27)">
      <use xlink:href="#DejaVuSans-90"/>
      <use x="68.505859" xlink:href="#DejaVuSans-111"/>
      <use x="129.6875" xlink:href="#DejaVuSans-110"/>
      <use x="193.066406" xlink:href="#DejaVuSans-101"/>
      <use x="254.589844" xlink:href="#DejaVuSans-32"/>
      <use x="286.376953" xlink:href="#DejaVuSans-52"/>
     </g>
    </g>
    <g id="line2d_49">
     <path d="M 583.2 271.649531 
L 637.2 271.649531 
" style="fill:none;stroke:#9467bd;stroke-linecap:square;stroke-width:4;"/>
    </g>
    <g id="line2d_50"/>
    <g id="text_16">
     <!-- Zone 5 -->
     <g transform="translate(658.8 281.099531)scale(0.27 -0.27)">
      <defs>
       <path d="M 10.796875 72.90625 
L 49.515625 72.90625 
L 49.515625 64.59375 
L 19.828125 64.59375 
L 19.828125 46.734375 
Q 21.96875 47.46875 24.109375 47.828125 
Q 26.265625 48.1875 28.421875 48.1875 
Q 40.625 48.1875 47.75 41.5 
Q 54.890625 34.8125 54.890625 23.390625 
Q 54.890625 11.625 47.5625 5.09375 
Q 40.234375 -1.421875 26.90625 -1.421875 
Q 22.3125 -1.421875 17.546875 -0.640625 
Q 12.796875 0.140625 7.71875 1.703125 
L 7.71875 11.625 
Q 12.109375 9.234375 16.796875 8.0625 
Q 21.484375 6.890625 26.703125 6.890625 
Q 35.15625 6.890625 40.078125 11.328125 
Q 45.015625 15.765625 45.015625 23.390625 
Q 45.015625 31 40.078125 35.4375 
Q 35.15625 39.890625 26.703125 39.890625 
Q 22.75 39.890625 18.8125 39.015625 
Q 14.890625 38.140625 10.796875 36.28125 
z
" id="DejaVuSans-53"/>
      </defs>
      <use xlink:href="#DejaVuSans-90"/>
      <use x="68.505859" xlink:href="#DejaVuSans-111"/>
      <use x="129.6875" xlink:href="#DejaVuSans-110"/>
      <use x="193.066406" xlink:href="#DejaVuSans-101"/>
      <use x="254.589844" xlink:href="#DejaVuSans-32"/>
      <use x="286.376953" xlink:href="#DejaVuSans-53"/>
     </g>
    </g>
   </g>
  </g>
 </g>
 <defs>
  <clipPath id="p5ecccf483b">
   <rect height="489.24" width="669.6" x="108" y="77.76"/>
  </clipPath>
 </defs>
</svg>
