<?xml version="1.0" encoding="utf-8" standalone="no"?>
<!DOCTYPE svg PUBLIC "-//W3C//DTD SVG 1.1//EN"
  "http://www.w3.org/Graphics/SVG/1.1/DTD/svg11.dtd">
<!-- Created with matplotlib (https://matplotlib.org/) -->
<svg height="648pt" version="1.1" viewBox="0 0 864 648" width="864pt" xmlns="http://www.w3.org/2000/svg" xmlns:xlink="http://www.w3.org/1999/xlink">
 <metadata>
  <rdf:RDF xmlns:cc="http://creativecommons.org/ns#" xmlns:dc="http://purl.org/dc/elements/1.1/" xmlns:rdf="http://www.w3.org/1999/02/22-rdf-syntax-ns#">
   <cc:Work>
    <dc:type rdf:resource="http://purl.org/dc/dcmitype/StillImage"/>
    <dc:date>2021-06-30T17:31:31.879881</dc:date>
    <dc:format>image/svg+xml</dc:format>
    <dc:creator>
     <cc:Agent>
      <dc:title>Matplotlib v3.3.2, https://matplotlib.org/</dc:title>
     </cc:Agent>
    </dc:creator>
   </cc:Work>
  </rdf:RDF>
 </metadata>
 <defs>
  <style type="text/css">*{stroke-linecap:butt;stroke-linejoin:round;}</style>
 </defs>
 <g id="figure_1">
  <g id="patch_1">
   <path d="M 0 648 
L 864 648 
L 864 0 
L 0 0 
z
" style="fill:none;"/>
  </g>
  <g id="axes_1">
   <g id="patch_2">
    <path d="M 108 567 
L 777.6 567 
L 777.6 77.76 
L 108 77.76 
z
" style="fill:#ffffff;"/>
   </g>
   <g id="matplotlib.axis_1">
    <g id="xtick_1">
     <g id="line2d_1">
      <defs>
       <path d="M 0 0 
L 0 3.5 
" id="m9c88d40a7b" style="stroke:#000000;stroke-width:0.8;"/>
      </defs>
      <g>
       <use style="stroke:#000000;stroke-width:0.8;" x="115.358242" xlink:href="#m9c88d40a7b" y="567"/>
      </g>
     </g>
     <g id="text_1">
      <!-- 0 -->
      <g transform="translate(106.768867 594.515781)scale(0.27 -0.27)">
       <defs>
        <path d="M 31.78125 66.40625 
Q 24.171875 66.40625 20.328125 58.90625 
Q 16.5 51.421875 16.5 36.375 
Q 16.5 21.390625 20.328125 13.890625 
Q 24.171875 6.390625 31.78125 6.390625 
Q 39.453125 6.390625 43.28125 13.890625 
Q 47.125 21.390625 47.125 36.375 
Q 47.125 51.421875 43.28125 58.90625 
Q 39.453125 66.40625 31.78125 66.40625 
z
M 31.78125 74.21875 
Q 44.046875 74.21875 50.515625 64.515625 
Q 56.984375 54.828125 56.984375 36.375 
Q 56.984375 17.96875 50.515625 8.265625 
Q 44.046875 -1.421875 31.78125 -1.421875 
Q 19.53125 -1.421875 13.0625 8.265625 
Q 6.59375 17.96875 6.59375 36.375 
Q 6.59375 54.828125 13.0625 64.515625 
Q 19.53125 74.21875 31.78125 74.21875 
z
" id="DejaVuSans-48"/>
       </defs>
       <use xlink:href="#DejaVuSans-48"/>
      </g>
     </g>
    </g>
    <g id="xtick_2">
     <g id="line2d_2">
      <g>
       <use style="stroke:#000000;stroke-width:0.8;" x="262.523077" xlink:href="#m9c88d40a7b" y="567"/>
      </g>
     </g>
     <g id="text_2">
      <!-- 200 -->
      <g transform="translate(236.754952 594.515781)scale(0.27 -0.27)">
       <defs>
        <path d="M 19.1875 8.296875 
L 53.609375 8.296875 
L 53.609375 0 
L 7.328125 0 
L 7.328125 8.296875 
Q 12.9375 14.109375 22.625 23.890625 
Q 32.328125 33.6875 34.8125 36.53125 
Q 39.546875 41.84375 41.421875 45.53125 
Q 43.3125 49.21875 43.3125 52.78125 
Q 43.3125 58.59375 39.234375 62.25 
Q 35.15625 65.921875 28.609375 65.921875 
Q 23.96875 65.921875 18.8125 64.3125 
Q 13.671875 62.703125 7.8125 59.421875 
L 7.8125 69.390625 
Q 13.765625 71.78125 18.9375 73 
Q 24.125 74.21875 28.421875 74.21875 
Q 39.75 74.21875 46.484375 68.546875 
Q 53.21875 62.890625 53.21875 53.421875 
Q 53.21875 48.921875 51.53125 44.890625 
Q 49.859375 40.875 45.40625 35.40625 
Q 44.1875 33.984375 37.640625 27.21875 
Q 31.109375 20.453125 19.1875 8.296875 
z
" id="DejaVuSans-50"/>
       </defs>
       <use xlink:href="#DejaVuSans-50"/>
       <use x="63.623047" xlink:href="#DejaVuSans-48"/>
       <use x="127.246094" xlink:href="#DejaVuSans-48"/>
      </g>
     </g>
    </g>
    <g id="xtick_3">
     <g id="line2d_3">
      <g>
       <use style="stroke:#000000;stroke-width:0.8;" x="409.687912" xlink:href="#m9c88d40a7b" y="567"/>
      </g>
     </g>
     <g id="text_3">
      <!-- 400 -->
      <g transform="translate(383.919787 594.515781)scale(0.27 -0.27)">
       <defs>
        <path d="M 37.796875 64.3125 
L 12.890625 25.390625 
L 37.796875 25.390625 
z
M 35.203125 72.90625 
L 47.609375 72.90625 
L 47.609375 25.390625 
L 58.015625 25.390625 
L 58.015625 17.1875 
L 47.609375 17.1875 
L 47.609375 0 
L 37.796875 0 
L 37.796875 17.1875 
L 4.890625 17.1875 
L 4.890625 26.703125 
z
" id="DejaVuSans-52"/>
       </defs>
       <use xlink:href="#DejaVuSans-52"/>
       <use x="63.623047" xlink:href="#DejaVuSans-48"/>
       <use x="127.246094" xlink:href="#DejaVuSans-48"/>
      </g>
     </g>
    </g>
    <g id="xtick_4">
     <g id="line2d_4">
      <g>
       <use style="stroke:#000000;stroke-width:0.8;" x="556.852747" xlink:href="#m9c88d40a7b" y="567"/>
      </g>
     </g>
     <g id="text_4">
      <!-- 600 -->
      <g transform="translate(531.084622 594.515781)scale(0.27 -0.27)">
       <defs>
        <path d="M 33.015625 40.375 
Q 26.375 40.375 22.484375 35.828125 
Q 18.609375 31.296875 18.609375 23.390625 
Q 18.609375 15.53125 22.484375 10.953125 
Q 26.375 6.390625 33.015625 6.390625 
Q 39.65625 6.390625 43.53125 10.953125 
Q 47.40625 15.53125 47.40625 23.390625 
Q 47.40625 31.296875 43.53125 35.828125 
Q 39.65625 40.375 33.015625 40.375 
z
M 52.59375 71.296875 
L 52.59375 62.3125 
Q 48.875 64.0625 45.09375 64.984375 
Q 41.3125 65.921875 37.59375 65.921875 
Q 27.828125 65.921875 22.671875 59.328125 
Q 17.53125 52.734375 16.796875 39.40625 
Q 19.671875 43.65625 24.015625 45.921875 
Q 28.375 48.1875 33.59375 48.1875 
Q 44.578125 48.1875 50.953125 41.515625 
Q 57.328125 34.859375 57.328125 23.390625 
Q 57.328125 12.15625 50.6875 5.359375 
Q 44.046875 -1.421875 33.015625 -1.421875 
Q 20.359375 -1.421875 13.671875 8.265625 
Q 6.984375 17.96875 6.984375 36.375 
Q 6.984375 53.65625 15.1875 63.9375 
Q 23.390625 74.21875 37.203125 74.21875 
Q 40.921875 74.21875 44.703125 73.484375 
Q 48.484375 72.75 52.59375 71.296875 
z
" id="DejaVuSans-54"/>
       </defs>
       <use xlink:href="#DejaVuSans-54"/>
       <use x="63.623047" xlink:href="#DejaVuSans-48"/>
       <use x="127.246094" xlink:href="#DejaVuSans-48"/>
      </g>
     </g>
    </g>
    <g id="xtick_5">
     <g id="line2d_5">
      <g>
       <use style="stroke:#000000;stroke-width:0.8;" x="704.017582" xlink:href="#m9c88d40a7b" y="567"/>
      </g>
     </g>
     <g id="text_5">
      <!-- 800 -->
      <g transform="translate(678.249457 594.515781)scale(0.27 -0.27)">
       <defs>
        <path d="M 31.78125 34.625 
Q 24.75 34.625 20.71875 30.859375 
Q 16.703125 27.09375 16.703125 20.515625 
Q 16.703125 13.921875 20.71875 10.15625 
Q 24.75 6.390625 31.78125 6.390625 
Q 38.8125 6.390625 42.859375 10.171875 
Q 46.921875 13.96875 46.921875 20.515625 
Q 46.921875 27.09375 42.890625 30.859375 
Q 38.875 34.625 31.78125 34.625 
z
M 21.921875 38.8125 
Q 15.578125 40.375 12.03125 44.71875 
Q 8.5 49.078125 8.5 55.328125 
Q 8.5 64.0625 14.71875 69.140625 
Q 20.953125 74.21875 31.78125 74.21875 
Q 42.671875 74.21875 48.875 69.140625 
Q 55.078125 64.0625 55.078125 55.328125 
Q 55.078125 49.078125 51.53125 44.71875 
Q 48 40.375 41.703125 38.8125 
Q 48.828125 37.15625 52.796875 32.3125 
Q 56.78125 27.484375 56.78125 20.515625 
Q 56.78125 9.90625 50.3125 4.234375 
Q 43.84375 -1.421875 31.78125 -1.421875 
Q 19.734375 -1.421875 13.25 4.234375 
Q 6.78125 9.90625 6.78125 20.515625 
Q 6.78125 27.484375 10.78125 32.3125 
Q 14.796875 37.15625 21.921875 38.8125 
z
M 18.3125 54.390625 
Q 18.3125 48.734375 21.84375 45.5625 
Q 25.390625 42.390625 31.78125 42.390625 
Q 38.140625 42.390625 41.71875 45.5625 
Q 45.3125 48.734375 45.3125 54.390625 
Q 45.3125 60.0625 41.71875 63.234375 
Q 38.140625 66.40625 31.78125 66.40625 
Q 25.390625 66.40625 21.84375 63.234375 
Q 18.3125 60.0625 18.3125 54.390625 
z
" id="DejaVuSans-56"/>
       </defs>
       <use xlink:href="#DejaVuSans-56"/>
       <use x="63.623047" xlink:href="#DejaVuSans-48"/>
       <use x="127.246094" xlink:href="#DejaVuSans-48"/>
      </g>
     </g>
    </g>
    <g id="text_6">
     <!-- Elapsed Time (Seconds) -->
     <g transform="translate(280.90125 624.646719)scale(0.27 -0.27)">
      <defs>
       <path d="M 9.8125 72.90625 
L 55.90625 72.90625 
L 55.90625 64.59375 
L 19.671875 64.59375 
L 19.671875 43.015625 
L 54.390625 43.015625 
L 54.390625 34.71875 
L 19.671875 34.71875 
L 19.671875 8.296875 
L 56.78125 8.296875 
L 56.78125 0 
L 9.8125 0 
z
" id="DejaVuSans-69"/>
       <path d="M 9.421875 75.984375 
L 18.40625 75.984375 
L 18.40625 0 
L 9.421875 0 
z
" id="DejaVuSans-108"/>
       <path d="M 34.28125 27.484375 
Q 23.390625 27.484375 19.1875 25 
Q 14.984375 22.515625 14.984375 16.5 
Q 14.984375 11.71875 18.140625 8.90625 
Q 21.296875 6.109375 26.703125 6.109375 
Q 34.1875 6.109375 38.703125 11.40625 
Q 43.21875 16.703125 43.21875 25.484375 
L 43.21875 27.484375 
z
M 52.203125 31.203125 
L 52.203125 0 
L 43.21875 0 
L 43.21875 8.296875 
Q 40.140625 3.328125 35.546875 0.953125 
Q 30.953125 -1.421875 24.3125 -1.421875 
Q 15.921875 -1.421875 10.953125 3.296875 
Q 6 8.015625 6 15.921875 
Q 6 25.140625 12.171875 29.828125 
Q 18.359375 34.515625 30.609375 34.515625 
L 43.21875 34.515625 
L 43.21875 35.40625 
Q 43.21875 41.609375 39.140625 45 
Q 35.0625 48.390625 27.6875 48.390625 
Q 23 48.390625 18.546875 47.265625 
Q 14.109375 46.140625 10.015625 43.890625 
L 10.015625 52.203125 
Q 14.9375 54.109375 19.578125 55.046875 
Q 24.21875 56 28.609375 56 
Q 40.484375 56 46.34375 49.84375 
Q 52.203125 43.703125 52.203125 31.203125 
z
" id="DejaVuSans-97"/>
       <path d="M 18.109375 8.203125 
L 18.109375 -20.796875 
L 9.078125 -20.796875 
L 9.078125 54.6875 
L 18.109375 54.6875 
L 18.109375 46.390625 
Q 20.953125 51.265625 25.265625 53.625 
Q 29.59375 56 35.59375 56 
Q 45.5625 56 51.78125 48.09375 
Q 58.015625 40.1875 58.015625 27.296875 
Q 58.015625 14.40625 51.78125 6.484375 
Q 45.5625 -1.421875 35.59375 -1.421875 
Q 29.59375 -1.421875 25.265625 0.953125 
Q 20.953125 3.328125 18.109375 8.203125 
z
M 48.6875 27.296875 
Q 48.6875 37.203125 44.609375 42.84375 
Q 40.53125 48.484375 33.40625 48.484375 
Q 26.265625 48.484375 22.1875 42.84375 
Q 18.109375 37.203125 18.109375 27.296875 
Q 18.109375 17.390625 22.1875 11.75 
Q 26.265625 6.109375 33.40625 6.109375 
Q 40.53125 6.109375 44.609375 11.75 
Q 48.6875 17.390625 48.6875 27.296875 
z
" id="DejaVuSans-112"/>
       <path d="M 44.28125 53.078125 
L 44.28125 44.578125 
Q 40.484375 46.53125 36.375 47.5 
Q 32.28125 48.484375 27.875 48.484375 
Q 21.1875 48.484375 17.84375 46.4375 
Q 14.5 44.390625 14.5 40.28125 
Q 14.5 37.15625 16.890625 35.375 
Q 19.28125 33.59375 26.515625 31.984375 
L 29.59375 31.296875 
Q 39.15625 29.25 43.1875 25.515625 
Q 47.21875 21.78125 47.21875 15.09375 
Q 47.21875 7.46875 41.1875 3.015625 
Q 35.15625 -1.421875 24.609375 -1.421875 
Q 20.21875 -1.421875 15.453125 -0.5625 
Q 10.6875 0.296875 5.421875 2 
L 5.421875 11.28125 
Q 10.40625 8.6875 15.234375 7.390625 
Q 20.0625 6.109375 24.8125 6.109375 
Q 31.15625 6.109375 34.5625 8.28125 
Q 37.984375 10.453125 37.984375 14.40625 
Q 37.984375 18.0625 35.515625 20.015625 
Q 33.0625 21.96875 24.703125 23.78125 
L 21.578125 24.515625 
Q 13.234375 26.265625 9.515625 29.90625 
Q 5.8125 33.546875 5.8125 39.890625 
Q 5.8125 47.609375 11.28125 51.796875 
Q 16.75 56 26.8125 56 
Q 31.78125 56 36.171875 55.265625 
Q 40.578125 54.546875 44.28125 53.078125 
z
" id="DejaVuSans-115"/>
       <path d="M 56.203125 29.59375 
L 56.203125 25.203125 
L 14.890625 25.203125 
Q 15.484375 15.921875 20.484375 11.0625 
Q 25.484375 6.203125 34.421875 6.203125 
Q 39.59375 6.203125 44.453125 7.46875 
Q 49.3125 8.734375 54.109375 11.28125 
L 54.109375 2.78125 
Q 49.265625 0.734375 44.1875 -0.34375 
Q 39.109375 -1.421875 33.890625 -1.421875 
Q 20.796875 -1.421875 13.15625 6.1875 
Q 5.515625 13.8125 5.515625 26.8125 
Q 5.515625 40.234375 12.765625 48.109375 
Q 20.015625 56 32.328125 56 
Q 43.359375 56 49.78125 48.890625 
Q 56.203125 41.796875 56.203125 29.59375 
z
M 47.21875 32.234375 
Q 47.125 39.59375 43.09375 43.984375 
Q 39.0625 48.390625 32.421875 48.390625 
Q 24.90625 48.390625 20.390625 44.140625 
Q 15.875 39.890625 15.1875 32.171875 
z
" id="DejaVuSans-101"/>
       <path d="M 45.40625 46.390625 
L 45.40625 75.984375 
L 54.390625 75.984375 
L 54.390625 0 
L 45.40625 0 
L 45.40625 8.203125 
Q 42.578125 3.328125 38.25 0.953125 
Q 33.9375 -1.421875 27.875 -1.421875 
Q 17.96875 -1.421875 11.734375 6.484375 
Q 5.515625 14.40625 5.515625 27.296875 
Q 5.515625 40.1875 11.734375 48.09375 
Q 17.96875 56 27.875 56 
Q 33.9375 56 38.25 53.625 
Q 42.578125 51.265625 45.40625 46.390625 
z
M 14.796875 27.296875 
Q 14.796875 17.390625 18.875 11.75 
Q 22.953125 6.109375 30.078125 6.109375 
Q 37.203125 6.109375 41.296875 11.75 
Q 45.40625 17.390625 45.40625 27.296875 
Q 45.40625 37.203125 41.296875 42.84375 
Q 37.203125 48.484375 30.078125 48.484375 
Q 22.953125 48.484375 18.875 42.84375 
Q 14.796875 37.203125 14.796875 27.296875 
z
" id="DejaVuSans-100"/>
       <path id="DejaVuSans-32"/>
       <path d="M -0.296875 72.90625 
L 61.375 72.90625 
L 61.375 64.59375 
L 35.5 64.59375 
L 35.5 0 
L 25.59375 0 
L 25.59375 64.59375 
L -0.296875 64.59375 
z
" id="DejaVuSans-84"/>
       <path d="M 9.421875 54.6875 
L 18.40625 54.6875 
L 18.40625 0 
L 9.421875 0 
z
M 9.421875 75.984375 
L 18.40625 75.984375 
L 18.40625 64.59375 
L 9.421875 64.59375 
z
" id="DejaVuSans-105"/>
       <path d="M 52 44.1875 
Q 55.375 50.25 60.0625 53.125 
Q 64.75 56 71.09375 56 
Q 79.640625 56 84.28125 50.015625 
Q 88.921875 44.046875 88.921875 33.015625 
L 88.921875 0 
L 79.890625 0 
L 79.890625 32.71875 
Q 79.890625 40.578125 77.09375 44.375 
Q 74.3125 48.1875 68.609375 48.1875 
Q 61.625 48.1875 57.5625 43.546875 
Q 53.515625 38.921875 53.515625 30.90625 
L 53.515625 0 
L 44.484375 0 
L 44.484375 32.71875 
Q 44.484375 40.625 41.703125 44.40625 
Q 38.921875 48.1875 33.109375 48.1875 
Q 26.21875 48.1875 22.15625 43.53125 
Q 18.109375 38.875 18.109375 30.90625 
L 18.109375 0 
L 9.078125 0 
L 9.078125 54.6875 
L 18.109375 54.6875 
L 18.109375 46.1875 
Q 21.1875 51.21875 25.484375 53.609375 
Q 29.78125 56 35.6875 56 
Q 41.65625 56 45.828125 52.96875 
Q 50 49.953125 52 44.1875 
z
" id="DejaVuSans-109"/>
       <path d="M 31 75.875 
Q 24.46875 64.65625 21.28125 53.65625 
Q 18.109375 42.671875 18.109375 31.390625 
Q 18.109375 20.125 21.3125 9.0625 
Q 24.515625 -2 31 -13.1875 
L 23.1875 -13.1875 
Q 15.875 -1.703125 12.234375 9.375 
Q 8.59375 20.453125 8.59375 31.390625 
Q 8.59375 42.28125 12.203125 53.3125 
Q 15.828125 64.359375 23.1875 75.875 
z
" id="DejaVuSans-40"/>
       <path d="M 53.515625 70.515625 
L 53.515625 60.890625 
Q 47.90625 63.578125 42.921875 64.890625 
Q 37.9375 66.21875 33.296875 66.21875 
Q 25.25 66.21875 20.875 63.09375 
Q 16.5 59.96875 16.5 54.203125 
Q 16.5 49.359375 19.40625 46.890625 
Q 22.3125 44.4375 30.421875 42.921875 
L 36.375 41.703125 
Q 47.40625 39.59375 52.65625 34.296875 
Q 57.90625 29 57.90625 20.125 
Q 57.90625 9.515625 50.796875 4.046875 
Q 43.703125 -1.421875 29.984375 -1.421875 
Q 24.8125 -1.421875 18.96875 -0.25 
Q 13.140625 0.921875 6.890625 3.21875 
L 6.890625 13.375 
Q 12.890625 10.015625 18.65625 8.296875 
Q 24.421875 6.59375 29.984375 6.59375 
Q 38.421875 6.59375 43.015625 9.90625 
Q 47.609375 13.234375 47.609375 19.390625 
Q 47.609375 24.75 44.3125 27.78125 
Q 41.015625 30.8125 33.5 32.328125 
L 27.484375 33.5 
Q 16.453125 35.6875 11.515625 40.375 
Q 6.59375 45.0625 6.59375 53.421875 
Q 6.59375 63.09375 13.40625 68.65625 
Q 20.21875 74.21875 32.171875 74.21875 
Q 37.3125 74.21875 42.625 73.28125 
Q 47.953125 72.359375 53.515625 70.515625 
z
" id="DejaVuSans-83"/>
       <path d="M 48.78125 52.59375 
L 48.78125 44.1875 
Q 44.96875 46.296875 41.140625 47.34375 
Q 37.3125 48.390625 33.40625 48.390625 
Q 24.65625 48.390625 19.8125 42.84375 
Q 14.984375 37.3125 14.984375 27.296875 
Q 14.984375 17.28125 19.8125 11.734375 
Q 24.65625 6.203125 33.40625 6.203125 
Q 37.3125 6.203125 41.140625 7.25 
Q 44.96875 8.296875 48.78125 10.40625 
L 48.78125 2.09375 
Q 45.015625 0.34375 40.984375 -0.53125 
Q 36.96875 -1.421875 32.421875 -1.421875 
Q 20.0625 -1.421875 12.78125 6.34375 
Q 5.515625 14.109375 5.515625 27.296875 
Q 5.515625 40.671875 12.859375 48.328125 
Q 20.21875 56 33.015625 56 
Q 37.15625 56 41.109375 55.140625 
Q 45.0625 54.296875 48.78125 52.59375 
z
" id="DejaVuSans-99"/>
       <path d="M 30.609375 48.390625 
Q 23.390625 48.390625 19.1875 42.75 
Q 14.984375 37.109375 14.984375 27.296875 
Q 14.984375 17.484375 19.15625 11.84375 
Q 23.34375 6.203125 30.609375 6.203125 
Q 37.796875 6.203125 41.984375 11.859375 
Q 46.1875 17.53125 46.1875 27.296875 
Q 46.1875 37.015625 41.984375 42.703125 
Q 37.796875 48.390625 30.609375 48.390625 
z
M 30.609375 56 
Q 42.328125 56 49.015625 48.375 
Q 55.71875 40.765625 55.71875 27.296875 
Q 55.71875 13.875 49.015625 6.21875 
Q 42.328125 -1.421875 30.609375 -1.421875 
Q 18.84375 -1.421875 12.171875 6.21875 
Q 5.515625 13.875 5.515625 27.296875 
Q 5.515625 40.765625 12.171875 48.375 
Q 18.84375 56 30.609375 56 
z
" id="DejaVuSans-111"/>
       <path d="M 54.890625 33.015625 
L 54.890625 0 
L 45.90625 0 
L 45.90625 32.71875 
Q 45.90625 40.484375 42.875 44.328125 
Q 39.84375 48.1875 33.796875 48.1875 
Q 26.515625 48.1875 22.3125 43.546875 
Q 18.109375 38.921875 18.109375 30.90625 
L 18.109375 0 
L 9.078125 0 
L 9.078125 54.6875 
L 18.109375 54.6875 
L 18.109375 46.1875 
Q 21.34375 51.125 25.703125 53.5625 
Q 30.078125 56 35.796875 56 
Q 45.21875 56 50.046875 50.171875 
Q 54.890625 44.34375 54.890625 33.015625 
z
" id="DejaVuSans-110"/>
       <path d="M 8.015625 75.875 
L 15.828125 75.875 
Q 23.140625 64.359375 26.78125 53.3125 
Q 30.421875 42.28125 30.421875 31.390625 
Q 30.421875 20.453125 26.78125 9.375 
Q 23.140625 -1.703125 15.828125 -13.1875 
L 8.015625 -13.1875 
Q 14.5 -2 17.703125 9.0625 
Q 20.90625 20.125 20.90625 31.390625 
Q 20.90625 42.671875 17.703125 53.65625 
Q 14.5 64.65625 8.015625 75.875 
z
" id="DejaVuSans-41"/>
      </defs>
      <use xlink:href="#DejaVuSans-69"/>
      <use x="63.183594" xlink:href="#DejaVuSans-108"/>
      <use x="90.966797" xlink:href="#DejaVuSans-97"/>
      <use x="152.246094" xlink:href="#DejaVuSans-112"/>
      <use x="215.722656" xlink:href="#DejaVuSans-115"/>
      <use x="267.822266" xlink:href="#DejaVuSans-101"/>
      <use x="329.345703" xlink:href="#DejaVuSans-100"/>
      <use x="392.822266" xlink:href="#DejaVuSans-32"/>
      <use x="424.609375" xlink:href="#DejaVuSans-84"/>
      <use x="482.568359" xlink:href="#DejaVuSans-105"/>
      <use x="510.351562" xlink:href="#DejaVuSans-109"/>
      <use x="607.763672" xlink:href="#DejaVuSans-101"/>
      <use x="669.287109" xlink:href="#DejaVuSans-32"/>
      <use x="701.074219" xlink:href="#DejaVuSans-40"/>
      <use x="740.087891" xlink:href="#DejaVuSans-83"/>
      <use x="803.564453" xlink:href="#DejaVuSans-101"/>
      <use x="865.087891" xlink:href="#DejaVuSans-99"/>
      <use x="920.068359" xlink:href="#DejaVuSans-111"/>
      <use x="981.25" xlink:href="#DejaVuSans-110"/>
      <use x="1044.628906" xlink:href="#DejaVuSans-100"/>
      <use x="1108.105469" xlink:href="#DejaVuSans-115"/>
      <use x="1160.205078" xlink:href="#DejaVuSans-41"/>
     </g>
    </g>
   </g>
   <g id="matplotlib.axis_2">
    <g id="ytick_1">
     <g id="line2d_6">
      <defs>
       <path d="M 0 0 
L -3.5 0 
" id="mab8ab7c15a" style="stroke:#000000;stroke-width:0.8;"/>
      </defs>
      <g>
       <use style="stroke:#000000;stroke-width:0.8;" x="108" xlink:href="#mab8ab7c15a" y="567"/>
      </g>
     </g>
     <g id="text_7">
      <!-- 0 -->
      <g transform="translate(83.82125 577.257891)scale(0.27 -0.27)">
       <use xlink:href="#DejaVuSans-48"/>
      </g>
     </g>
    </g>
    <g id="ytick_2">
     <g id="line2d_7">
      <g>
       <use style="stroke:#000000;stroke-width:0.8;" x="108" xlink:href="#mab8ab7c15a" y="427.217143"/>
      </g>
     </g>
     <g id="text_8">
      <!-- 1 -->
      <g transform="translate(83.82125 437.475033)scale(0.27 -0.27)">
       <defs>
        <path d="M 12.40625 8.296875 
L 28.515625 8.296875 
L 28.515625 63.921875 
L 10.984375 60.40625 
L 10.984375 69.390625 
L 28.421875 72.90625 
L 38.28125 72.90625 
L 38.28125 8.296875 
L 54.390625 8.296875 
L 54.390625 0 
L 12.40625 0 
z
" id="DejaVuSans-49"/>
       </defs>
       <use xlink:href="#DejaVuSans-49"/>
      </g>
     </g>
    </g>
    <g id="ytick_3">
     <g id="line2d_8">
      <g>
       <use style="stroke:#000000;stroke-width:0.8;" x="108" xlink:href="#mab8ab7c15a" y="287.434286"/>
      </g>
     </g>
     <g id="text_9">
      <!-- 10 -->
      <g transform="translate(66.6425 297.692176)scale(0.27 -0.27)">
       <use xlink:href="#DejaVuSans-49"/>
       <use x="63.623047" xlink:href="#DejaVuSans-48"/>
      </g>
     </g>
    </g>
    <g id="ytick_4">
     <g id="line2d_9">
      <g>
       <use style="stroke:#000000;stroke-width:0.8;" x="108" xlink:href="#mab8ab7c15a" y="147.651429"/>
      </g>
     </g>
     <g id="text_10">
      <!-- 100 -->
      <g transform="translate(49.46375 157.909319)scale(0.27 -0.27)">
       <use xlink:href="#DejaVuSans-49"/>
       <use x="63.623047" xlink:href="#DejaVuSans-48"/>
       <use x="127.246094" xlink:href="#DejaVuSans-48"/>
      </g>
     </g>
    </g>
    <g id="ytick_5">
     <g id="line2d_10">
      <defs>
       <path d="M 0 0 
L -2 0 
" id="m752e5a4e7e" style="stroke:#000000;stroke-width:0.6;"/>
      </defs>
      <g>
       <use style="stroke:#000000;stroke-width:0.6;" x="108" xlink:href="#m752e5a4e7e" y="524.921167"/>
      </g>
     </g>
    </g>
    <g id="ytick_6">
     <g id="line2d_11">
      <g>
       <use style="stroke:#000000;stroke-width:0.6;" x="108" xlink:href="#m752e5a4e7e" y="500.306628"/>
      </g>
     </g>
    </g>
    <g id="ytick_7">
     <g id="line2d_12">
      <g>
       <use style="stroke:#000000;stroke-width:0.6;" x="108" xlink:href="#m752e5a4e7e" y="482.842334"/>
      </g>
     </g>
    </g>
    <g id="ytick_8">
     <g id="line2d_13">
      <g>
       <use style="stroke:#000000;stroke-width:0.6;" x="108" xlink:href="#m752e5a4e7e" y="469.295976"/>
      </g>
     </g>
    </g>
    <g id="ytick_9">
     <g id="line2d_14">
      <g>
       <use style="stroke:#000000;stroke-width:0.6;" x="108" xlink:href="#m752e5a4e7e" y="458.227795"/>
      </g>
     </g>
    </g>
    <g id="ytick_10">
     <g id="line2d_15">
      <g>
       <use style="stroke:#000000;stroke-width:0.6;" x="108" xlink:href="#m752e5a4e7e" y="448.869781"/>
      </g>
     </g>
    </g>
    <g id="ytick_11">
     <g id="line2d_16">
      <g>
       <use style="stroke:#000000;stroke-width:0.6;" x="108" xlink:href="#m752e5a4e7e" y="440.763501"/>
      </g>
     </g>
    </g>
    <g id="ytick_12">
     <g id="line2d_17">
      <g>
       <use style="stroke:#000000;stroke-width:0.6;" x="108" xlink:href="#m752e5a4e7e" y="433.613256"/>
      </g>
     </g>
    </g>
    <g id="ytick_13">
     <g id="line2d_18">
      <g>
       <use style="stroke:#000000;stroke-width:0.6;" x="108" xlink:href="#m752e5a4e7e" y="385.13831"/>
      </g>
     </g>
    </g>
    <g id="ytick_14">
     <g id="line2d_19">
      <g>
       <use style="stroke:#000000;stroke-width:0.6;" x="108" xlink:href="#m752e5a4e7e" y="360.523771"/>
      </g>
     </g>
    </g>
    <g id="ytick_15">
     <g id="line2d_20">
      <g>
       <use style="stroke:#000000;stroke-width:0.6;" x="108" xlink:href="#m752e5a4e7e" y="343.059477"/>
      </g>
     </g>
    </g>
    <g id="ytick_16">
     <g id="line2d_21">
      <g>
       <use style="stroke:#000000;stroke-width:0.6;" x="108" xlink:href="#m752e5a4e7e" y="329.513119"/>
      </g>
     </g>
    </g>
    <g id="ytick_17">
     <g id="line2d_22">
      <g>
       <use style="stroke:#000000;stroke-width:0.6;" x="108" xlink:href="#m752e5a4e7e" y="318.444938"/>
      </g>
     </g>
    </g>
    <g id="ytick_18">
     <g id="line2d_23">
      <g>
       <use style="stroke:#000000;stroke-width:0.6;" x="108" xlink:href="#m752e5a4e7e" y="309.086924"/>
      </g>
     </g>
    </g>
    <g id="ytick_19">
     <g id="line2d_24">
      <g>
       <use style="stroke:#000000;stroke-width:0.6;" x="108" xlink:href="#m752e5a4e7e" y="300.980644"/>
      </g>
     </g>
    </g>
    <g id="ytick_20">
     <g id="line2d_25">
      <g>
       <use style="stroke:#000000;stroke-width:0.6;" x="108" xlink:href="#m752e5a4e7e" y="293.830398"/>
      </g>
     </g>
    </g>
    <g id="ytick_21">
     <g id="line2d_26">
      <g>
       <use style="stroke:#000000;stroke-width:0.6;" x="108" xlink:href="#m752e5a4e7e" y="245.355453"/>
      </g>
     </g>
    </g>
    <g id="ytick_22">
     <g id="line2d_27">
      <g>
       <use style="stroke:#000000;stroke-width:0.6;" x="108" xlink:href="#m752e5a4e7e" y="220.740914"/>
      </g>
     </g>
    </g>
    <g id="ytick_23">
     <g id="line2d_28">
      <g>
       <use style="stroke:#000000;stroke-width:0.6;" x="108" xlink:href="#m752e5a4e7e" y="203.27662"/>
      </g>
     </g>
    </g>
    <g id="ytick_24">
     <g id="line2d_29">
      <g>
       <use style="stroke:#000000;stroke-width:0.6;" x="108" xlink:href="#m752e5a4e7e" y="189.730261"/>
      </g>
     </g>
    </g>
    <g id="ytick_25">
     <g id="line2d_30">
      <g>
       <use style="stroke:#000000;stroke-width:0.6;" x="108" xlink:href="#m752e5a4e7e" y="178.662081"/>
      </g>
     </g>
    </g>
    <g id="ytick_26">
     <g id="line2d_31">
      <g>
       <use style="stroke:#000000;stroke-width:0.6;" x="108" xlink:href="#m752e5a4e7e" y="169.304067"/>
      </g>
     </g>
    </g>
    <g id="ytick_27">
     <g id="line2d_32">
      <g>
       <use style="stroke:#000000;stroke-width:0.6;" x="108" xlink:href="#m752e5a4e7e" y="161.197787"/>
      </g>
     </g>
    </g>
    <g id="ytick_28">
     <g id="line2d_33">
      <g>
       <use style="stroke:#000000;stroke-width:0.6;" x="108" xlink:href="#m752e5a4e7e" y="154.047541"/>
      </g>
     </g>
    </g>
    <g id="ytick_29">
     <g id="line2d_34">
      <g>
       <use style="stroke:#000000;stroke-width:0.6;" x="108" xlink:href="#m752e5a4e7e" y="105.572596"/>
      </g>
     </g>
    </g>
    <g id="ytick_30">
     <g id="line2d_35">
      <g>
       <use style="stroke:#000000;stroke-width:0.6;" x="108" xlink:href="#m752e5a4e7e" y="80.958056"/>
      </g>
     </g>
    </g>
    <g id="text_11">
     <!-- Particles/cc -->
     <g transform="translate(39.848594 398.684531)rotate(-90)scale(0.27 -0.27)">
      <defs>
       <path d="M 19.671875 64.796875 
L 19.671875 37.40625 
L 32.078125 37.40625 
Q 38.96875 37.40625 42.71875 40.96875 
Q 46.484375 44.53125 46.484375 51.125 
Q 46.484375 57.671875 42.71875 61.234375 
Q 38.96875 64.796875 32.078125 64.796875 
z
M 9.8125 72.90625 
L 32.078125 72.90625 
Q 44.34375 72.90625 50.609375 67.359375 
Q 56.890625 61.8125 56.890625 51.125 
Q 56.890625 40.328125 50.609375 34.8125 
Q 44.34375 29.296875 32.078125 29.296875 
L 19.671875 29.296875 
L 19.671875 0 
L 9.8125 0 
z
" id="DejaVuSans-80"/>
       <path d="M 41.109375 46.296875 
Q 39.59375 47.171875 37.8125 47.578125 
Q 36.03125 48 33.890625 48 
Q 26.265625 48 22.1875 43.046875 
Q 18.109375 38.09375 18.109375 28.8125 
L 18.109375 0 
L 9.078125 0 
L 9.078125 54.6875 
L 18.109375 54.6875 
L 18.109375 46.1875 
Q 20.953125 51.171875 25.484375 53.578125 
Q 30.03125 56 36.53125 56 
Q 37.453125 56 38.578125 55.875 
Q 39.703125 55.765625 41.0625 55.515625 
z
" id="DejaVuSans-114"/>
       <path d="M 18.3125 70.21875 
L 18.3125 54.6875 
L 36.8125 54.6875 
L 36.8125 47.703125 
L 18.3125 47.703125 
L 18.3125 18.015625 
Q 18.3125 11.328125 20.140625 9.421875 
Q 21.96875 7.515625 27.59375 7.515625 
L 36.8125 7.515625 
L 36.8125 0 
L 27.59375 0 
Q 17.1875 0 13.234375 3.875 
Q 9.28125 7.765625 9.28125 18.015625 
L 9.28125 47.703125 
L 2.6875 47.703125 
L 2.6875 54.6875 
L 9.28125 54.6875 
L 9.28125 70.21875 
z
" id="DejaVuSans-116"/>
       <path d="M 25.390625 72.90625 
L 33.6875 72.90625 
L 8.296875 -9.28125 
L 0 -9.28125 
z
" id="DejaVuSans-47"/>
      </defs>
      <use xlink:href="#DejaVuSans-80"/>
      <use x="55.802734" xlink:href="#DejaVuSans-97"/>
      <use x="117.082031" xlink:href="#DejaVuSans-114"/>
      <use x="158.195312" xlink:href="#DejaVuSans-116"/>
      <use x="197.404297" xlink:href="#DejaVuSans-105"/>
      <use x="225.1875" xlink:href="#DejaVuSans-99"/>
      <use x="280.167969" xlink:href="#DejaVuSans-108"/>
      <use x="307.951172" xlink:href="#DejaVuSans-101"/>
      <use x="369.474609" xlink:href="#DejaVuSans-115"/>
      <use x="421.574219" xlink:href="#DejaVuSans-47"/>
      <use x="455.265625" xlink:href="#DejaVuSans-99"/>
      <use x="510.246094" xlink:href="#DejaVuSans-99"/>
     </g>
    </g>
   </g>
   <g id="line2d_36">
    <path clip-path="url(#p19571b7f62)" d="M 63.850549 453.83743 
L 65.322198 442.300468 
L 66.793846 432.609813 
L 68.265495 424.255242 
L 69.737143 416.912581 
L 71.208791 410.362974 
L 74.152088 416.453258 
L 76.35956 421.458755 
L 78.567033 426.914365 
L 85.925275 428.754109 
L 88.868571 424.082041 
L 92.547692 418.706237 
L 93.283516 417.685928 
L 95.490989 412.112574 
L 98.434286 405.397789 
L 100.641758 400.80818 
L 108 403.829048 
L 109.471648 410.087659 
L 110.943297 417.066465 
L 112.414945 424.953031 
L 113.886593 434.019324 
L 115.358242 444.681436 
L 116.094066 401.400447 
L 116.82989 376.390421 
L 117.565714 358.729347 
L 118.301538 345.065225 
L 119.037363 333.918662 
L 120.509011 316.356533 
L 121.980659 302.751549 
L 122.716484 296.944257 
L 124.923956 305.656051 
L 126.395604 312.246444 
L 127.867253 319.640417 
L 129.338901 328.061506 
L 130.074725 332.754915 
L 131.546374 324.773636 
L 133.018022 317.720791 
L 135.225495 308.474284 
L 137.432967 300.451769 
L 138.904615 290.465128 
L 140.376264 281.891613 
L 141.847912 274.380432 
L 143.31956 267.697108 
L 144.791209 261.677136 
L 146.262857 254.26137 
L 148.47033 244.60132 
L 150.677802 236.269495 
L 152.149451 231.289247 
L 154.356923 239.266687 
L 155.828571 245.23416 
L 157.30022 251.852828 
L 158.771868 259.28242 
L 159.507692 263.368582 
L 161.715165 269.047463 
L 163.922637 275.312922 
L 166.13011 282.300246 
L 166.865934 284.820277 
L 174.224176 284.994973 
L 177.167473 290.637673 
L 180.110769 296.859114 
L 181.582418 300.226511 
L 183.78989 306.697617 
L 185.997363 313.941735 
L 188.204835 322.168921 
L 188.940659 325.179252 
L 193.355604 321.04972 
L 196.298901 318.444938 
L 200.713846 322.395259 
L 203.657143 325.179252 
L 207.336264 329.573856 
L 211.015385 334.311589 
L 218.373626 335.505862 
L 222.788571 331.199701 
L 225.731868 328.489775 
L 233.09011 329.029396 
L 236.033407 334.311589 
L 238.976703 340.097576 
L 240.448352 343.211434 
L 243.391648 337.466956 
L 246.334945 332.219375 
L 247.806593 329.756433 
L 252.221538 334.429964 
L 255.164835 337.758316 
L 257.372308 346.349321 
L 258.843956 352.836292 
L 260.315604 360.100303 
L 261.787253 368.353166 
L 262.523077 372.942414 
L 264.730549 365.289399 
L 266.938022 358.494048 
L 269.145495 352.383353 
L 269.881319 350.475898 
L 277.23956 350.475898 
L 280.918681 355.153111 
L 284.597802 360.220992 
L 291.956044 363.318957 
L 294.899341 369.468364 
L 297.106813 374.527147 
L 300.785934 383.226123 
L 302.993407 388.332098 
L 305.200879 393.907298 
L 306.672527 397.930536 
L 314.030769 396.267228 
L 316.974066 389.83831 
L 319.917363 384.025494 
L 321.389011 381.315304 
L 325.803956 376.627404 
L 328.747253 373.691892 
L 336.105495 372.202076 
L 340.52044 367.530008 
L 343.463736 364.603807 
L 346.407033 370.891804 
L 348.614505 376.075877 
L 350.821978 381.74433 
L 352.293626 389.34834 
L 353.765275 398.04306 
L 355.236923 408.194639 
L 356.708571 420.391534 
L 358.18022 435.671315 
L 364.066813 440.009368 
L 365.538462 441.14411 
L 367.745934 448.051442 
L 369.953407 455.846826 
L 372.160879 464.792773 
L 372.896703 468.093819 
L 374.368352 461.022981 
L 376.575824 451.755846 
L 378.783297 443.717814 
L 380.254945 438.895449 
L 381.726593 430.651355 
L 383.198242 423.394137 
L 385.405714 413.914099 
L 388.349011 402.299825 
L 390.556484 393.071389 
L 392.763956 385.062474 
L 394.971429 377.988064 
L 397.178901 384.249422 
L 399.386374 391.231644 
L 401.593846 399.122575 
L 403.065495 404.514305 
L 405.272967 412.754982 
L 406.744615 418.944148 
L 408.216264 425.836699 
L 409.687912 433.613256 
L 414.102857 438.018799 
L 417.046154 441.14411 
L 419.253626 434.325667 
L 421.461099 428.196308 
L 423.668571 422.629449 
L 424.404396 420.881767 
L 431.762637 421.707725 
L 439.120879 419.26282 
L 440.592527 425.658933 
L 442.064176 432.809179 
L 443.535824 440.915459 
L 445.007473 450.273472 
L 446.479121 461.341653 
L 448.686593 452.029301 
L 450.894066 443.95729 
L 453.101538 436.833711 
L 453.837363 434.633564 
L 456.044835 427.09585 
L 458.252308 420.391534 
L 460.45978 414.354538 
L 461.195604 412.468628 
L 468.553846 413.187061 
L 471.497143 417.998047 
L 474.44044 423.223372 
L 475.912088 426.014986 
L 483.27033 428.754109 
L 485.477802 436.51448 
L 487.685275 445.414326 
L 489.156923 452.166492 
L 490.628571 459.764761 
L 492.10022 452.718377 
L 494.307692 443.47928 
L 496.515165 435.46234 
L 497.986813 430.651355 
L 500.194286 438.675097 
L 501.665934 444.681436 
L 503.137582 451.347959 
L 504.609231 458.83792 
L 505.345055 462.9606 
L 509.024176 457.473662 
L 512.703297 452.441807 
L 514.910769 458.076217 
L 517.118242 464.28758 
L 519.325714 471.207677 
L 520.061538 473.701519 
L 521.533187 479.880433 
L 523.004835 486.760269 
L 524.476484 494.52064 
L 525.948132 503.420486 
L 527.41978 513.852986 
L 528.891429 505.368469 
L 530.363077 497.925659 
L 532.570549 488.235004 
L 534.778022 479.880433 
L 536.24967 472.154762 
L 537.721319 465.302204 
L 539.928791 456.286203 
L 542.136264 448.437702 
L 542.136264 448.437702 
" style="fill:none;stroke:#1f77b4;stroke-linecap:square;stroke-width:4;"/>
   </g>
   <g id="line2d_37">
    <path clip-path="url(#p19571b7f62)" d="M 63.850549 436.196919 
L 71.208791 438.895449 
L 78.567033 437.26198 
L 81.51033 443.59843 
L 83.717802 448.826435 
L 85.925275 454.547461 
L 93.283516 458.227795 
L 94.755165 451.347959 
L 96.962637 442.300468 
L 99.17011 434.428126 
L 100.641758 429.695321 
L 106.528352 425.658933 
L 108 424.690419 
L 110.207473 431.038024 
L 112.414945 438.12769 
L 114.622418 446.156171 
L 115.358242 449.08698 
L 116.094066 422.883276 
L 116.82989 404.639733 
L 117.565714 390.630581 
L 118.301538 379.25582 
L 119.773187 361.410465 
L 121.244835 347.636613 
L 122.716484 336.417242 
L 124.923956 341.490174 
L 127.131429 347.025997 
L 129.338901 353.117746 
L 130.074725 355.292188 
L 132.282198 347.245112 
L 134.48967 340.140954 
L 136.697143 333.781736 
L 137.432967 331.801883 
L 139.64044 322.168921 
L 141.847912 313.857244 
L 144.055385 306.547723 
L 144.791209 304.294525 
L 146.998681 298.831783 
L 149.941978 292.237683 
L 152.149451 287.723331 
L 157.30022 291.932919 
L 166.13011 299.55571 
L 166.865934 300.226511 
L 169.073407 291.844725 
L 171.280879 284.481058 
L 173.488352 277.914747 
L 174.224176 275.874854 
L 176.431648 283.786813 
L 178.639121 292.886697 
L 180.110769 299.811975 
L 181.582418 307.630231 
L 189.676484 306.391977 
L 196.298901 306.001258 
L 203.657143 307.440026 
L 208.072088 311.932077 
L 211.015385 315.122757 
L 213.958681 320.059783 
L 216.901978 325.434145 
L 218.373626 328.310962 
L 222.052747 332.515251 
L 225.731868 337.03252 
L 233.09011 335.808137 
L 236.769231 339.989268 
L 247.806593 352.970155 
L 250.74989 348.427272 
L 254.429011 343.188617 
L 255.164835 342.193028 
L 261.051429 346.469604 
L 262.523077 347.587537 
L 269.881319 350.992556 
L 272.824615 346.349321 
L 276.503736 341.004074 
L 277.23956 339.989268 
L 279.447033 345.206568 
L 281.654505 350.914777 
L 283.861978 357.215961 
L 284.597802 359.470588 
L 291.956044 359.321614 
L 298.578462 363.33485 
L 300.05011 364.376986 
L 305.200879 368.595371 
L 306.672527 369.856495 
L 314.030769 371.289173 
L 318.445714 375.568193 
L 322.124835 379.400631 
L 325.803956 383.5801 
L 328.747253 387.144058 
L 335.36967 383.049905 
L 336.105495 382.611586 
L 343.463736 386.210087 
L 347.878681 390.830275 
L 350.821978 394.118086 
L 353.765275 400.105003 
L 355.972747 405.017578 
L 358.18022 410.362974 
L 361.123516 403.953066 
L 364.066813 398.155793 
L 365.538462 395.452358 
L 370.689231 399.756445 
L 372.896703 401.698762 
L 375.84 407.598495 
L 378.783297 414.133919 
L 380.254945 417.685928 
L 383.198242 412.754982 
L 386.141538 408.194639 
L 387.613187 406.036816 
L 391.292308 411.056775 
L 394.971429 416.529571 
L 396.443077 408.26124 
L 397.914725 400.985254 
L 400.122198 391.483855 
L 402.32967 383.270257 
L 405.272967 388.332098 
L 408.216264 393.854715 
L 409.687912 396.816616 
L 411.895385 404.108446 
L 414.102857 412.39725 
L 415.574505 418.62714 
L 417.046154 425.570245 
L 419.989451 420.147894 
L 422.932747 415.170404 
L 424.404396 412.826782 
L 428.083516 417.104996 
L 432.498462 422.629449 
L 436.177582 427.460458 
L 439.120879 431.622686 
L 445.743297 427.781295 
L 447.214945 427.050428 
L 453.837363 424.255242 
L 458.252308 419.502927 
L 461.195604 416.529571 
L 463.403077 423.565383 
L 465.610549 431.524851 
L 467.082198 437.477253 
L 469.28967 446.781377 
L 471.497143 455.701071 
L 472.968791 462.470367 
L 474.44044 470.09034 
L 475.912088 478.805947 
L 478.11956 472.923215 
L 480.327033 467.560519 
L 483.27033 461.075977 
L 490.628571 457.473662 
L 492.10022 450.540316 
L 494.307692 441.431141 
L 496.515165 433.512162 
L 497.986813 428.754109 
L 503.873407 433.009202 
L 505.345055 434.121266 
L 509.024176 429.932921 
L 512.703297 426.014986 
L 517.854066 430.555071 
L 520.061538 432.609813 
L 525.948132 428.754109 
L 527.41978 427.827268 
L 530.363077 432.609813 
L 533.306374 437.801601 
L 534.778022 440.574088 
L 542.136264 442.887012 
L 542.136264 442.887012 
" style="fill:none;stroke:#ff7f0e;stroke-linecap:square;stroke-width:4;"/>
   </g>
   <g id="line2d_38">
    <path clip-path="url(#p19571b7f62)" d="M 63.850549 454.445518 
L 70.472967 458.619314 
L 71.208791 459.101291 
L 73.416264 453.83743 
L 76.35956 447.461489 
L 78.567033 443.083794 
L 85.925275 443.991578 
L 94.019341 439.657072 
L 99.905934 435.303603 
L 100.641758 434.780732 
L 102.849231 441.373626 
L 105.056703 448.770749 
L 107.264176 457.195924 
L 108 460.285854 
L 115.358242 461.646714 
L 119.773187 457.395197 
L 122.716484 454.717747 
L 124.188132 444.589001 
L 125.65978 435.911026 
L 127.131429 428.319822 
L 128.603077 421.573233 
L 130.074725 415.50199 
L 133.753846 410.659347 
L 137.432967 406.174629 
L 138.904615 394.617859 
L 140.376264 384.913245 
L 141.847912 376.548307 
L 143.31956 369.197642 
L 144.791209 362.641669 
L 147.734505 356.779532 
L 150.677802 351.433955 
L 152.149451 348.927909 
L 153.621099 335.76294 
L 155.092747 324.950357 
L 156.564396 315.775574 
L 158.036044 307.807081 
L 159.507692 300.76422 
L 166.865934 296.711411 
L 169.073407 290.318531 
L 171.280879 284.535189 
L 173.488352 279.255201 
L 174.224176 277.592549 
L 179.374945 281.808555 
L 181.582418 283.709076 
L 185.261538 288.722707 
L 188.940659 294.187982 
L 194.091429 298.263924 
L 196.298901 300.098167 
L 200.713846 304.995788 
L 203.657143 308.495138 
L 211.015385 312.396717 
L 213.958681 317.823713 
L 216.901978 323.783922 
L 218.373626 326.998874 
L 224.26022 331.330026 
L 225.731868 332.462879 
L 233.09011 336.276509 
L 236.769231 340.387347 
L 240.448352 344.796907 
L 247.806593 344.507561 
L 252.957363 348.622992 
L 255.164835 350.475898 
L 263.258901 349.847108 
L 269.881319 350.109531 
L 275.032088 354.472933 
L 277.23956 356.443445 
L 280.182857 362.034058 
L 283.126154 368.192231 
L 284.597802 371.522612 
L 291.956044 373.315996 
L 299.314286 369.311132 
L 302.257582 364.594532 
L 305.936703 359.171591 
L 306.672527 358.142802 
L 314.030769 361.397267 
L 320.653187 357.314591 
L 321.389011 356.877455 
L 329.483077 358.023396 
L 336.105495 359.463486 
L 338.312967 364.637826 
L 340.52044 370.294643 
L 342.727912 376.533252 
L 343.463736 378.763882 
L 347.878681 382.93271 
L 350.821978 385.879978 
L 356.708571 381.773039 
L 358.18022 380.788295 
L 365.538462 384.362767 
L 367.745934 390.46467 
L 369.953407 397.249146 
L 372.160879 404.888366 
L 372.896703 407.664445 
L 377.311648 412.570742 
L 380.254945 416.076735 
L 387.613187 418.581988 
L 396.443077 414.989332 
L 403.065495 411.852789 
L 409.687912 409.127333 
L 413.367033 414.263392 
L 416.31033 418.710006 
L 417.046154 419.874482 
L 424.404396 419.644386 
L 427.347692 413.754097 
L 430.290989 408.385122 
L 431.762637 405.8688 
L 435.441758 410.791534 
L 439.856703 416.861373 
L 444.271648 421.320879 
L 447.214945 424.520121 
L 450.894066 428.905509 
L 453.837363 432.657221 
L 456.780659 438.299201 
L 459.723956 444.519767 
L 461.195604 447.886652 
L 467.082198 443.831732 
L 468.553846 442.858953 
L 472.232967 448.06978 
L 475.176264 452.58652 
L 475.912088 453.770239 
L 478.855385 459.987539 
L 481.062857 465.107631 
L 483.27033 470.699667 
L 486.949451 475.403694 
L 490.628571 480.503074 
L 493.571868 473.944459 
L 496.515165 468.025838 
L 497.986813 465.269732 
L 500.194286 457.509361 
L 502.401758 450.629526 
L 504.609231 444.450611 
L 505.345055 442.523246 
L 510.495824 438.008439 
L 512.703297 436.171787 
L 520.061538 439.582604 
L 523.740659 434.437893 
L 527.41978 429.695321 
L 534.778022 429.066228 
L 537.721319 433.478501 
L 540.664615 438.236778 
L 542.136264 440.763501 
L 542.136264 440.763501 
" style="fill:none;stroke:#2ca02c;stroke-linecap:square;stroke-width:4;"/>
   </g>
   <g id="line2d_39">
    <path clip-path="url(#p19571b7f62)" d="M 63.850549 448.437702 
L 66.058022 442.887012 
L 69.001319 436.196919 
L 71.208791 431.622686 
L 75.623736 435.881011 
L 78.567033 438.895449 
L 81.51033 443.47928 
L 84.453626 448.437702 
L 85.925275 451.077549 
L 88.132747 457.025638 
L 90.34022 463.620465 
L 92.547692 471.02002 
L 93.283516 473.701519 
L 96.962637 478.805947 
L 99.905934 483.222943 
L 100.641758 484.3793 
L 102.849231 475.288719 
L 105.056703 467.383789 
L 107.264176 460.390611 
L 108 458.227795 
L 110.943297 453.555727 
L 114.622418 448.179923 
L 115.358242 447.159614 
L 117.565714 455.701071 
L 119.037363 462.14573 
L 120.509011 469.356713 
L 121.980659 477.541173 
L 122.716484 482.088201 
L 126.395604 486.760269 
L 130.810549 492.619149 
L 134.48967 496.769302 
L 137.432967 500.306628 
L 139.64044 494.245325 
L 141.847912 488.734652 
L 144.791209 482.088201 
L 146.262857 472.537773 
L 147.734505 464.28758 
L 149.206154 457.025638 
L 151.413626 447.540223 
L 152.149451 444.681436 
L 155.828571 449.08698 
L 159.507692 453.83743 
L 162.450989 458.532091 
L 165.394286 463.620465 
L 166.865934 466.334075 
L 169.809231 472.923215 
L 172.016703 478.381421 
L 174.224176 484.3793 
L 176.431648 477.750147 
L 178.639121 471.774153 
L 180.846593 466.334075 
L 181.582418 464.623908 
L 185.997363 468.812253 
L 188.940659 471.774153 
L 191.148132 478.381421 
L 193.355604 485.796647 
L 195.563077 494.245325 
L 196.298901 497.344727 
L 197.770549 506.702741 
L 199.242198 517.770921 
L 200.713846 531.31728 
L 201.44967 539.42356 
L 202.185495 548.781573 
L 202.921319 559.849754 
L 203.657143 573.396113 
L 204.392967 559.045677 
L 205.128791 547.447302 
L 206.60044 529.326711 
L 208.072088 515.389953 
L 209.543736 504.062893 
L 211.015385 494.52064 
L 218.373626 491.82211 
L 220.581099 500.306628 
L 222.052747 506.702741 
L 223.524396 513.852986 
L 224.996044 521.959266 
L 225.731868 526.458133 
L 226.467692 513.098853 
L 227.203516 502.155713 
L 228.675165 484.848082 
L 230.146813 471.395916 
L 231.618462 460.390611 
L 233.09011 451.077549 
L 240.448352 449.743277 
L 243.391648 444.197713 
L 246.334945 439.116603 
L 247.806593 436.727114 
L 250.014066 427.827268 
L 252.221538 420.066897 
L 254.429011 413.187061 
L 255.164835 411.056775 
L 256.636484 419.26282 
L 258.108132 428.754109 
L 259.57978 440.009368 
L 261.051429 453.83743 
L 261.787253 462.14573 
L 262.523077 471.774153 
L 264.730549 465.815947 
L 266.938022 460.390611 
L 269.881319 453.83743 
L 272.824615 459.145297 
L 275.767912 464.962109 
L 277.23956 468.093819 
L 284.597802 468.093819 
L 286.069451 474.888012 
L 287.541099 482.539556 
L 289.012747 491.296506 
L 290.484396 501.533072 
L 291.956044 513.852986 
L 294.163516 506.366413 
L 296.370989 499.702574 
L 298.578462 493.698412 
L 299.314286 491.82211 
L 302.993407 486.760269 
L 306.672527 482.088201 
L 314.030769 482.088201 
L 317.70989 486.760269 
L 321.389011 491.82211 
L 323.596484 483.682846 
L 325.803956 476.506959 
L 328.011429 470.09034 
L 328.747253 468.093819 
L 330.954725 461.022981 
L 333.162198 454.690469 
L 335.36967 448.956568 
L 336.105495 447.159614 
L 339.048791 452.996212 
L 341.992088 459.454239 
L 343.463736 462.9606 
L 350.821978 461.341653 
L 352.293626 454.404789 
L 354.501099 445.291561 
L 356.708571 437.369521 
L 358.18022 432.609813 
L 365.538462 432.609813 
L 369.217582 437.26198 
L 372.896703 442.300468 
L 378.047473 446.530521 
L 380.254945 448.437702 
L 381.726593 455.555665 
L 383.198242 463.620465 
L 384.66989 472.923215 
L 386.141538 483.914111 
L 387.613187 497.344727 
L 389.084835 482.088201 
L 390.556484 469.906101 
L 392.028132 459.764761 
L 393.49978 451.077549 
L 394.971429 443.47928 
L 402.32967 447.159614 
L 403.801319 453.83743 
L 405.272967 461.341653 
L 406.744615 469.906101 
L 408.216264 479.880433 
L 409.687912 491.82211 
L 411.895385 496.769302 
L 414.102857 502.155713 
L 416.31033 508.066999 
L 417.046154 510.172652 
L 421.461099 514.616605 
L 424.404396 517.770921 
L 425.876044 507.381037 
L 427.347692 498.512204 
L 428.819341 490.775413 
L 430.290989 483.914111 
L 431.762637 477.750147 
L 435.441758 472.730188 
L 439.120879 468.093819 
L 442.8 463.786558 
L 446.479121 459.764761 
L 448.686593 454.404789 
L 451.62989 447.923233 
L 453.837363 443.47928 
L 456.780659 448.437702 
L 459.723956 453.83743 
L 461.195604 456.728782 
L 463.403077 461.82282 
L 465.610549 467.383789 
L 467.818022 473.506006 
L 468.553846 475.692089 
L 470.761319 469.356713 
L 472.968791 463.620465 
L 475.176264 458.379752 
L 475.912088 456.728782 
L 477.383736 449.743277 
L 479.591209 440.574088 
L 481.798681 432.609813 
L 483.27033 427.827268 
L 487.685275 431.818832 
L 490.628571 434.633564 
L 497.986813 432.609813 
L 503.873407 436.727114 
L 505.345055 437.801601 
L 507.552527 446.530521 
L 509.024176 453.135608 
L 510.495824 460.548087 
L 511.967473 468.993197 
L 512.703297 473.701519 
L 515.646593 467.031863 
L 518.58989 461.022981 
L 520.061538 458.227795 
L 523.740659 453.83743 
L 527.41978 449.743277 
L 529.627253 455.121526 
L 531.834725 461.022981 
L 534.042198 467.560519 
L 534.778022 469.906101 
L 536.24967 461.98406 
L 537.721319 454.9775 
L 539.928791 445.784115 
L 542.136264 437.801601 
L 542.136264 437.801601 
" style="fill:none;stroke:#d62728;stroke-linecap:square;stroke-width:4;"/>
   </g>
   <g id="line2d_40">
    <path clip-path="url(#p19571b7f62)" d="M 63.850549 477.750147 
L 65.322198 471.02002 
L 67.52967 462.14573 
L 69.737143 454.404789 
L 71.208791 449.743277 
L 72.68044 440.915459 
L 74.152088 433.209886 
L 75.623736 426.37314 
L 77.831209 417.375406 
L 78.567033 414.64995 
L 82.981978 419.26282 
L 85.925275 422.545075 
L 87.396923 429.885327 
L 88.868571 438.236778 
L 90.34022 447.923233 
L 91.811868 459.454239 
L 93.283516 473.701519 
L 95.490989 479.233462 
L 97.698462 485.320512 
L 99.905934 492.086629 
L 100.641758 494.52064 
L 102.113407 486.276546 
L 103.585055 479.019328 
L 105.792527 469.53929 
L 108 461.341653 
L 110.207473 454.547461 
L 112.414945 448.437702 
L 114.622418 442.887012 
L 115.358242 441.14411 
L 116.82989 434.428126 
L 119.037363 425.570245 
L 121.244835 417.841787 
L 122.716484 413.187061 
L 124.923956 419.583174 
L 127.131429 426.73342 
L 129.338901 434.8397 
L 130.074725 437.801601 
L 132.282198 428.754109 
L 134.48967 420.881767 
L 136.697143 413.914099 
L 137.432967 411.758597 
L 141.847912 416.148962 
L 144.791209 419.26282 
L 146.998681 424.255242 
L 149.206154 429.695321 
L 151.413626 435.671315 
L 152.149451 437.801601 
L 155.828571 442.300468 
L 159.507692 447.159614 
L 161.715165 454.833815 
L 163.922637 463.620465 
L 165.394286 470.275141 
L 166.865934 477.750147 
L 171.280879 472.923215 
L 174.224176 469.906101 
L 177.167473 475.288719 
L 180.110769 481.195436 
L 181.582418 484.3793 
L 183.78989 477.125371 
L 185.997363 470.646438 
L 188.204835 464.792773 
L 188.940659 462.9606 
L 190.412308 469.53929 
L 191.883956 476.918533 
L 193.355604 485.320512 
L 194.827253 495.075045 
L 196.298901 506.702741 
L 198.506374 500.00385 
L 200.713846 493.971252 
L 202.921319 488.484314 
L 203.657143 486.760269 
L 205.864615 479.880433 
L 208.072088 473.701519 
L 210.27956 468.093819 
L 211.751209 464.792773 
L 214.694505 458.991414 
L 217.637802 453.696415 
L 218.373626 452.441807 
L 220.581099 443.59843 
L 222.788571 435.881011 
L 224.996044 429.034943 
L 225.731868 426.914365 
L 228.675165 433.009202 
L 230.882637 438.018799 
L 233.09011 443.47928 
L 239.712527 439.338567 
L 246.334945 435.46234 
L 247.806593 434.633564 
L 252.957363 439.116603 
L 255.164835 441.14411 
L 262.523077 444.681436 
L 263.994725 450.808338 
L 265.466374 457.623741 
L 266.938022 465.302204 
L 268.40967 474.094446 
L 269.881319 484.3793 
L 273.56044 479.880433 
L 277.23956 475.692089 
L 278.711209 466.681967 
L 280.182857 458.83792 
L 281.654505 451.892419 
L 283.861978 442.769249 
L 284.597802 440.009368 
L 286.805275 444.924751 
L 289.012747 450.273472 
L 291.22022 456.13939 
L 291.956044 458.227795 
L 299.314286 459.764761 
L 300.785934 451.619579 
L 302.257582 444.439093 
L 304.465055 435.046538 
L 306.672527 426.914365 
L 309.615824 422.376678 
L 313.294945 417.143553 
L 314.030769 416.148962 
L 317.70989 421.293341 
L 320.653187 425.747751 
L 321.389011 426.914365 
L 328.747253 430.651355 
L 330.954725 436.091433 
L 333.162198 442.067427 
L 335.36967 448.69658 
L 336.105495 451.077549 
L 337.577143 440.234626 
L 339.048791 431.038024 
L 340.52044 423.053086 
L 341.992088 415.997384 
L 343.463736 409.677013 
L 347.142857 413.914099 
L 350.821978 418.469254 
L 353.765275 424.428939 
L 355.972747 429.317083 
L 358.18022 434.633564 
L 365.538462 436.727114 
L 369.217582 441.719536 
L 372.896703 447.159614 
L 378.047473 442.887012 
L 380.254945 441.14411 
L 387.613187 444.681436 
L 390.556484 449.217673 
L 393.49978 454.120447 
L 394.971429 456.728782 
L 396.443077 450.007796 
L 398.650549 441.14411 
L 400.858022 433.411236 
L 402.32967 428.754109 
L 406.008791 433.109461 
L 409.687912 437.801601 
L 414.102857 433.411236 
L 417.046154 430.651355 
L 418.517802 438.455541 
L 419.989451 447.413088 
L 421.461099 457.925017 
L 422.932747 470.646438 
L 424.404396 486.760269 
L 425.876044 477.332916 
L 427.347692 469.174683 
L 428.819341 461.98406 
L 431.026813 452.579934 
L 433.97011 441.604013 
L 436.177582 434.428126 
L 438.385055 428.011507 
L 439.120879 426.014986 
L 444.271648 421.790942 
L 446.479121 420.066897 
L 448.686593 426.46301 
L 450.894066 433.613256 
L 453.101538 441.719536 
L 453.837363 444.681436 
L 456.044835 451.619579 
L 458.252308 459.454239 
L 460.45978 468.451973 
L 461.195604 471.774153 
L 463.403077 464.792773 
L 465.610549 458.532091 
L 467.818022 452.857135 
L 468.553846 451.077549 
L 471.497143 445.907881 
L 474.44044 441.14411 
L 475.912088 438.895449 
L 478.11956 429.695321 
L 480.327033 421.707725 
L 482.534505 414.64995 
L 483.27033 412.468628 
L 485.477802 419.986008 
L 487.685275 428.567605 
L 489.156923 435.046538 
L 490.628571 442.300468 
L 497.986813 440.009368 
L 500.93011 445.169045 
L 503.873407 450.808338 
L 505.345055 453.83743 
L 509.76 448.956568 
L 512.703297 445.907881 
L 516.382418 451.077549 
L 519.325714 455.555665 
L 520.061538 456.728782 
L 527.41978 459.764761 
L 532.570549 455.555665 
L 534.778022 453.83743 
L 536.24967 461.022981 
L 537.721319 469.174683 
L 539.192967 478.593313 
L 540.664615 489.746458 
L 542.136264 503.420486 
L 542.136264 503.420486 
" style="fill:none;stroke:#9467bd;stroke-linecap:square;stroke-width:4;"/>
   </g>
   <g id="patch_3">
    <path d="M 108 567 
L 108 77.76 
" style="fill:none;stroke:#000000;stroke-linecap:square;stroke-linejoin:miter;stroke-width:0.8;"/>
   </g>
   <g id="patch_4">
    <path d="M 108 567 
L 777.6 567 
" style="fill:none;stroke:#000000;stroke-linecap:square;stroke-linejoin:miter;stroke-width:0.8;"/>
   </g>
   <g id="legend_1">
    <g id="patch_5">
     <path d="M 577.8 297.514688 
L 758.7 297.514688 
Q 764.1 297.514688 764.1 292.114688 
L 764.1 96.66 
Q 764.1 91.26 758.7 91.26 
L 577.8 91.26 
Q 572.4 91.26 572.4 96.66 
L 572.4 292.114688 
Q 572.4 297.514688 577.8 297.514688 
z
" style="fill:#ffffff;opacity:0.8;stroke:#cccccc;stroke-linejoin:miter;"/>
    </g>
    <g id="line2d_41">
     <path d="M 583.2 113.125781 
L 637.2 113.125781 
" style="fill:none;stroke:#1f77b4;stroke-linecap:square;stroke-width:4;"/>
    </g>
    <g id="line2d_42"/>
    <g id="text_12">
     <!-- Zone 1 -->
     <g transform="translate(658.8 122.575781)scale(0.27 -0.27)">
      <defs>
       <path d="M 5.609375 72.90625 
L 62.890625 72.90625 
L 62.890625 65.375 
L 16.796875 8.296875 
L 64.015625 8.296875 
L 64.015625 0 
L 4.5 0 
L 4.5 7.515625 
L 50.59375 64.59375 
L 5.609375 64.59375 
z
" id="DejaVuSans-90"/>
      </defs>
      <use xlink:href="#DejaVuSans-90"/>
      <use x="68.505859" xlink:href="#DejaVuSans-111"/>
      <use x="129.6875" xlink:href="#DejaVuSans-110"/>
      <use x="193.066406" xlink:href="#DejaVuSans-101"/>
      <use x="254.589844" xlink:href="#DejaVuSans-32"/>
      <use x="286.376953" xlink:href="#DejaVuSans-49"/>
     </g>
    </g>
    <g id="line2d_43">
     <path d="M 583.2 152.756719 
L 637.2 152.756719 
" style="fill:none;stroke:#ff7f0e;stroke-linecap:square;stroke-width:4;"/>
    </g>
    <g id="line2d_44"/>
    <g id="text_13">
     <!-- Zone 2 -->
     <g transform="translate(658.8 162.206719)scale(0.27 -0.27)">
      <use xlink:href="#DejaVuSans-90"/>
      <use x="68.505859" xlink:href="#DejaVuSans-111"/>
      <use x="129.6875" xlink:href="#DejaVuSans-110"/>
      <use x="193.066406" xlink:href="#DejaVuSans-101"/>
      <use x="254.589844" xlink:href="#DejaVuSans-32"/>
      <use x="286.376953" xlink:href="#DejaVuSans-50"/>
     </g>
    </g>
    <g id="line2d_45">
     <path d="M 583.2 192.387656 
L 637.2 192.387656 
" style="fill:none;stroke:#2ca02c;stroke-linecap:square;stroke-width:4;"/>
    </g>
    <g id="line2d_46"/>
    <g id="text_14">
     <!-- Zone 3 -->
     <g transform="translate(658.8 201.837656)scale(0.27 -0.27)">
      <defs>
       <path d="M 40.578125 39.3125 
Q 47.65625 37.796875 51.625 33 
Q 55.609375 28.21875 55.609375 21.1875 
Q 55.609375 10.40625 48.1875 4.484375 
Q 40.765625 -1.421875 27.09375 -1.421875 
Q 22.515625 -1.421875 17.65625 -0.515625 
Q 12.796875 0.390625 7.625 2.203125 
L 7.625 11.71875 
Q 11.71875 9.328125 16.59375 8.109375 
Q 21.484375 6.890625 26.8125 6.890625 
Q 36.078125 6.890625 40.9375 10.546875 
Q 45.796875 14.203125 45.796875 21.1875 
Q 45.796875 27.640625 41.28125 31.265625 
Q 36.765625 34.90625 28.71875 34.90625 
L 20.21875 34.90625 
L 20.21875 43.015625 
L 29.109375 43.015625 
Q 36.375 43.015625 40.234375 45.921875 
Q 44.09375 48.828125 44.09375 54.296875 
Q 44.09375 59.90625 40.109375 62.90625 
Q 36.140625 65.921875 28.71875 65.921875 
Q 24.65625 65.921875 20.015625 65.03125 
Q 15.375 64.15625 9.8125 62.3125 
L 9.8125 71.09375 
Q 15.4375 72.65625 20.34375 73.4375 
Q 25.25 74.21875 29.59375 74.21875 
Q 40.828125 74.21875 47.359375 69.109375 
Q 53.90625 64.015625 53.90625 55.328125 
Q 53.90625 49.265625 50.4375 45.09375 
Q 46.96875 40.921875 40.578125 39.3125 
z
" id="DejaVuSans-51"/>
      </defs>
      <use xlink:href="#DejaVuSans-90"/>
      <use x="68.505859" xlink:href="#DejaVuSans-111"/>
      <use x="129.6875" xlink:href="#DejaVuSans-110"/>
      <use x="193.066406" xlink:href="#DejaVuSans-101"/>
      <use x="254.589844" xlink:href="#DejaVuSans-32"/>
      <use x="286.376953" xlink:href="#DejaVuSans-51"/>
     </g>
    </g>
    <g id="line2d_47">
     <path d="M 583.2 232.018594 
L 637.2 232.018594 
" style="fill:none;stroke:#d62728;stroke-linecap:square;stroke-width:4;"/>
    </g>
    <g id="line2d_48"/>
    <g id="text_15">
     <!-- Zone 4 -->
     <g transform="translate(658.8 241.468594)scale(0.27 -0.27)">
      <use xlink:href="#DejaVuSans-90"/>
      <use x="68.505859" xlink:href="#DejaVuSans-111"/>
      <use x="129.6875" xlink:href="#DejaVuSans-110"/>
      <use x="193.066406" xlink:href="#DejaVuSans-101"/>
      <use x="254.589844" xlink:href="#DejaVuSans-32"/>
      <use x="286.376953" xlink:href="#DejaVuSans-52"/>
     </g>
    </g>
    <g id="line2d_49">
     <path d="M 583.2 271.649531 
L 637.2 271.649531 
" style="fill:none;stroke:#9467bd;stroke-linecap:square;stroke-width:4;"/>
    </g>
    <g id="line2d_50"/>
    <g id="text_16">
     <!-- Zone 5 -->
     <g transform="translate(658.8 281.099531)scale(0.27 -0.27)">
      <defs>
       <path d="M 10.796875 72.90625 
L 49.515625 72.90625 
L 49.515625 64.59375 
L 19.828125 64.59375 
L 19.828125 46.734375 
Q 21.96875 47.46875 24.109375 47.828125 
Q 26.265625 48.1875 28.421875 48.1875 
Q 40.625 48.1875 47.75 41.5 
Q 54.890625 34.8125 54.890625 23.390625 
Q 54.890625 11.625 47.5625 5.09375 
Q 40.234375 -1.421875 26.90625 -1.421875 
Q 22.3125 -1.421875 17.546875 -0.640625 
Q 12.796875 0.140625 7.71875 1.703125 
L 7.71875 11.625 
Q 12.109375 9.234375 16.796875 8.0625 
Q 21.484375 6.890625 26.703125 6.890625 
Q 35.15625 6.890625 40.078125 11.328125 
Q 45.015625 15.765625 45.015625 23.390625 
Q 45.015625 31 40.078125 35.4375 
Q 35.15625 39.890625 26.703125 39.890625 
Q 22.75 39.890625 18.8125 39.015625 
Q 14.890625 38.140625 10.796875 36.28125 
z
" id="DejaVuSans-53"/>
      </defs>
      <use xlink:href="#DejaVuSans-90"/>
      <use x="68.505859" xlink:href="#DejaVuSans-111"/>
      <use x="129.6875" xlink:href="#DejaVuSans-110"/>
      <use x="193.066406" xlink:href="#DejaVuSans-101"/>
      <use x="254.589844" xlink:href="#DejaVuSans-32"/>
      <use x="286.376953" xlink:href="#DejaVuSans-53"/>
     </g>
    </g>
   </g>
  </g>
 </g>
 <defs>
  <clipPath id="p19571b7f62">
   <rect height="489.24" width="669.6" x="108" y="77.76"/>
  </clipPath>
 </defs>
</svg>
