<?xml version="1.0" encoding="utf-8" standalone="no"?>
<!DOCTYPE svg PUBLIC "-//W3C//DTD SVG 1.1//EN"
  "http://www.w3.org/Graphics/SVG/1.1/DTD/svg11.dtd">
<!-- Created with matplotlib (https://matplotlib.org/) -->
<svg height="648pt" version="1.1" viewBox="0 0 864 648" width="864pt" xmlns="http://www.w3.org/2000/svg" xmlns:xlink="http://www.w3.org/1999/xlink">
 <metadata>
  <rdf:RDF xmlns:cc="http://creativecommons.org/ns#" xmlns:dc="http://purl.org/dc/elements/1.1/" xmlns:rdf="http://www.w3.org/1999/02/22-rdf-syntax-ns#">
   <cc:Work>
    <dc:type rdf:resource="http://purl.org/dc/dcmitype/StillImage"/>
    <dc:date>2021-06-30T17:30:13.561853</dc:date>
    <dc:format>image/svg+xml</dc:format>
    <dc:creator>
     <cc:Agent>
      <dc:title>Matplotlib v3.3.2, https://matplotlib.org/</dc:title>
     </cc:Agent>
    </dc:creator>
   </cc:Work>
  </rdf:RDF>
 </metadata>
 <defs>
  <style type="text/css">*{stroke-linecap:butt;stroke-linejoin:round;}</style>
 </defs>
 <g id="figure_1">
  <g id="patch_1">
   <path d="M 0 648 
L 864 648 
L 864 0 
L 0 0 
z
" style="fill:none;"/>
  </g>
  <g id="axes_1">
   <g id="patch_2">
    <path d="M 108 567 
L 777.6 567 
L 777.6 77.76 
L 108 77.76 
z
" style="fill:#ffffff;"/>
   </g>
   <g id="matplotlib.axis_1">
    <g id="xtick_1">
     <g id="line2d_1">
      <defs>
       <path d="M 0 0 
L 0 3.5 
" id="mb6893ffaeb" style="stroke:#000000;stroke-width:0.8;"/>
      </defs>
      <g>
       <use style="stroke:#000000;stroke-width:0.8;" x="115.358242" xlink:href="#mb6893ffaeb" y="567"/>
      </g>
     </g>
     <g id="text_1">
      <!-- 0 -->
      <g transform="translate(106.768867 594.515781)scale(0.27 -0.27)">
       <defs>
        <path d="M 31.78125 66.40625 
Q 24.171875 66.40625 20.328125 58.90625 
Q 16.5 51.421875 16.5 36.375 
Q 16.5 21.390625 20.328125 13.890625 
Q 24.171875 6.390625 31.78125 6.390625 
Q 39.453125 6.390625 43.28125 13.890625 
Q 47.125 21.390625 47.125 36.375 
Q 47.125 51.421875 43.28125 58.90625 
Q 39.453125 66.40625 31.78125 66.40625 
z
M 31.78125 74.21875 
Q 44.046875 74.21875 50.515625 64.515625 
Q 56.984375 54.828125 56.984375 36.375 
Q 56.984375 17.96875 50.515625 8.265625 
Q 44.046875 -1.421875 31.78125 -1.421875 
Q 19.53125 -1.421875 13.0625 8.265625 
Q 6.59375 17.96875 6.59375 36.375 
Q 6.59375 54.828125 13.0625 64.515625 
Q 19.53125 74.21875 31.78125 74.21875 
z
" id="DejaVuSans-48"/>
       </defs>
       <use xlink:href="#DejaVuSans-48"/>
      </g>
     </g>
    </g>
    <g id="xtick_2">
     <g id="line2d_2">
      <g>
       <use style="stroke:#000000;stroke-width:0.8;" x="262.523077" xlink:href="#mb6893ffaeb" y="567"/>
      </g>
     </g>
     <g id="text_2">
      <!-- 200 -->
      <g transform="translate(236.754952 594.515781)scale(0.27 -0.27)">
       <defs>
        <path d="M 19.1875 8.296875 
L 53.609375 8.296875 
L 53.609375 0 
L 7.328125 0 
L 7.328125 8.296875 
Q 12.9375 14.109375 22.625 23.890625 
Q 32.328125 33.6875 34.8125 36.53125 
Q 39.546875 41.84375 41.421875 45.53125 
Q 43.3125 49.21875 43.3125 52.78125 
Q 43.3125 58.59375 39.234375 62.25 
Q 35.15625 65.921875 28.609375 65.921875 
Q 23.96875 65.921875 18.8125 64.3125 
Q 13.671875 62.703125 7.8125 59.421875 
L 7.8125 69.390625 
Q 13.765625 71.78125 18.9375 73 
Q 24.125 74.21875 28.421875 74.21875 
Q 39.75 74.21875 46.484375 68.546875 
Q 53.21875 62.890625 53.21875 53.421875 
Q 53.21875 48.921875 51.53125 44.890625 
Q 49.859375 40.875 45.40625 35.40625 
Q 44.1875 33.984375 37.640625 27.21875 
Q 31.109375 20.453125 19.1875 8.296875 
z
" id="DejaVuSans-50"/>
       </defs>
       <use xlink:href="#DejaVuSans-50"/>
       <use x="63.623047" xlink:href="#DejaVuSans-48"/>
       <use x="127.246094" xlink:href="#DejaVuSans-48"/>
      </g>
     </g>
    </g>
    <g id="xtick_3">
     <g id="line2d_3">
      <g>
       <use style="stroke:#000000;stroke-width:0.8;" x="409.687912" xlink:href="#mb6893ffaeb" y="567"/>
      </g>
     </g>
     <g id="text_3">
      <!-- 400 -->
      <g transform="translate(383.919787 594.515781)scale(0.27 -0.27)">
       <defs>
        <path d="M 37.796875 64.3125 
L 12.890625 25.390625 
L 37.796875 25.390625 
z
M 35.203125 72.90625 
L 47.609375 72.90625 
L 47.609375 25.390625 
L 58.015625 25.390625 
L 58.015625 17.1875 
L 47.609375 17.1875 
L 47.609375 0 
L 37.796875 0 
L 37.796875 17.1875 
L 4.890625 17.1875 
L 4.890625 26.703125 
z
" id="DejaVuSans-52"/>
       </defs>
       <use xlink:href="#DejaVuSans-52"/>
       <use x="63.623047" xlink:href="#DejaVuSans-48"/>
       <use x="127.246094" xlink:href="#DejaVuSans-48"/>
      </g>
     </g>
    </g>
    <g id="xtick_4">
     <g id="line2d_4">
      <g>
       <use style="stroke:#000000;stroke-width:0.8;" x="556.852747" xlink:href="#mb6893ffaeb" y="567"/>
      </g>
     </g>
     <g id="text_4">
      <!-- 600 -->
      <g transform="translate(531.084622 594.515781)scale(0.27 -0.27)">
       <defs>
        <path d="M 33.015625 40.375 
Q 26.375 40.375 22.484375 35.828125 
Q 18.609375 31.296875 18.609375 23.390625 
Q 18.609375 15.53125 22.484375 10.953125 
Q 26.375 6.390625 33.015625 6.390625 
Q 39.65625 6.390625 43.53125 10.953125 
Q 47.40625 15.53125 47.40625 23.390625 
Q 47.40625 31.296875 43.53125 35.828125 
Q 39.65625 40.375 33.015625 40.375 
z
M 52.59375 71.296875 
L 52.59375 62.3125 
Q 48.875 64.0625 45.09375 64.984375 
Q 41.3125 65.921875 37.59375 65.921875 
Q 27.828125 65.921875 22.671875 59.328125 
Q 17.53125 52.734375 16.796875 39.40625 
Q 19.671875 43.65625 24.015625 45.921875 
Q 28.375 48.1875 33.59375 48.1875 
Q 44.578125 48.1875 50.953125 41.515625 
Q 57.328125 34.859375 57.328125 23.390625 
Q 57.328125 12.15625 50.6875 5.359375 
Q 44.046875 -1.421875 33.015625 -1.421875 
Q 20.359375 -1.421875 13.671875 8.265625 
Q 6.984375 17.96875 6.984375 36.375 
Q 6.984375 53.65625 15.1875 63.9375 
Q 23.390625 74.21875 37.203125 74.21875 
Q 40.921875 74.21875 44.703125 73.484375 
Q 48.484375 72.75 52.59375 71.296875 
z
" id="DejaVuSans-54"/>
       </defs>
       <use xlink:href="#DejaVuSans-54"/>
       <use x="63.623047" xlink:href="#DejaVuSans-48"/>
       <use x="127.246094" xlink:href="#DejaVuSans-48"/>
      </g>
     </g>
    </g>
    <g id="xtick_5">
     <g id="line2d_5">
      <g>
       <use style="stroke:#000000;stroke-width:0.8;" x="704.017582" xlink:href="#mb6893ffaeb" y="567"/>
      </g>
     </g>
     <g id="text_5">
      <!-- 800 -->
      <g transform="translate(678.249457 594.515781)scale(0.27 -0.27)">
       <defs>
        <path d="M 31.78125 34.625 
Q 24.75 34.625 20.71875 30.859375 
Q 16.703125 27.09375 16.703125 20.515625 
Q 16.703125 13.921875 20.71875 10.15625 
Q 24.75 6.390625 31.78125 6.390625 
Q 38.8125 6.390625 42.859375 10.171875 
Q 46.921875 13.96875 46.921875 20.515625 
Q 46.921875 27.09375 42.890625 30.859375 
Q 38.875 34.625 31.78125 34.625 
z
M 21.921875 38.8125 
Q 15.578125 40.375 12.03125 44.71875 
Q 8.5 49.078125 8.5 55.328125 
Q 8.5 64.0625 14.71875 69.140625 
Q 20.953125 74.21875 31.78125 74.21875 
Q 42.671875 74.21875 48.875 69.140625 
Q 55.078125 64.0625 55.078125 55.328125 
Q 55.078125 49.078125 51.53125 44.71875 
Q 48 40.375 41.703125 38.8125 
Q 48.828125 37.15625 52.796875 32.3125 
Q 56.78125 27.484375 56.78125 20.515625 
Q 56.78125 9.90625 50.3125 4.234375 
Q 43.84375 -1.421875 31.78125 -1.421875 
Q 19.734375 -1.421875 13.25 4.234375 
Q 6.78125 9.90625 6.78125 20.515625 
Q 6.78125 27.484375 10.78125 32.3125 
Q 14.796875 37.15625 21.921875 38.8125 
z
M 18.3125 54.390625 
Q 18.3125 48.734375 21.84375 45.5625 
Q 25.390625 42.390625 31.78125 42.390625 
Q 38.140625 42.390625 41.71875 45.5625 
Q 45.3125 48.734375 45.3125 54.390625 
Q 45.3125 60.0625 41.71875 63.234375 
Q 38.140625 66.40625 31.78125 66.40625 
Q 25.390625 66.40625 21.84375 63.234375 
Q 18.3125 60.0625 18.3125 54.390625 
z
" id="DejaVuSans-56"/>
       </defs>
       <use xlink:href="#DejaVuSans-56"/>
       <use x="63.623047" xlink:href="#DejaVuSans-48"/>
       <use x="127.246094" xlink:href="#DejaVuSans-48"/>
      </g>
     </g>
    </g>
    <g id="text_6">
     <!-- Elapsed Time (Seconds) -->
     <g transform="translate(280.90125 624.646719)scale(0.27 -0.27)">
      <defs>
       <path d="M 9.8125 72.90625 
L 55.90625 72.90625 
L 55.90625 64.59375 
L 19.671875 64.59375 
L 19.671875 43.015625 
L 54.390625 43.015625 
L 54.390625 34.71875 
L 19.671875 34.71875 
L 19.671875 8.296875 
L 56.78125 8.296875 
L 56.78125 0 
L 9.8125 0 
z
" id="DejaVuSans-69"/>
       <path d="M 9.421875 75.984375 
L 18.40625 75.984375 
L 18.40625 0 
L 9.421875 0 
z
" id="DejaVuSans-108"/>
       <path d="M 34.28125 27.484375 
Q 23.390625 27.484375 19.1875 25 
Q 14.984375 22.515625 14.984375 16.5 
Q 14.984375 11.71875 18.140625 8.90625 
Q 21.296875 6.109375 26.703125 6.109375 
Q 34.1875 6.109375 38.703125 11.40625 
Q 43.21875 16.703125 43.21875 25.484375 
L 43.21875 27.484375 
z
M 52.203125 31.203125 
L 52.203125 0 
L 43.21875 0 
L 43.21875 8.296875 
Q 40.140625 3.328125 35.546875 0.953125 
Q 30.953125 -1.421875 24.3125 -1.421875 
Q 15.921875 -1.421875 10.953125 3.296875 
Q 6 8.015625 6 15.921875 
Q 6 25.140625 12.171875 29.828125 
Q 18.359375 34.515625 30.609375 34.515625 
L 43.21875 34.515625 
L 43.21875 35.40625 
Q 43.21875 41.609375 39.140625 45 
Q 35.0625 48.390625 27.6875 48.390625 
Q 23 48.390625 18.546875 47.265625 
Q 14.109375 46.140625 10.015625 43.890625 
L 10.015625 52.203125 
Q 14.9375 54.109375 19.578125 55.046875 
Q 24.21875 56 28.609375 56 
Q 40.484375 56 46.34375 49.84375 
Q 52.203125 43.703125 52.203125 31.203125 
z
" id="DejaVuSans-97"/>
       <path d="M 18.109375 8.203125 
L 18.109375 -20.796875 
L 9.078125 -20.796875 
L 9.078125 54.6875 
L 18.109375 54.6875 
L 18.109375 46.390625 
Q 20.953125 51.265625 25.265625 53.625 
Q 29.59375 56 35.59375 56 
Q 45.5625 56 51.78125 48.09375 
Q 58.015625 40.1875 58.015625 27.296875 
Q 58.015625 14.40625 51.78125 6.484375 
Q 45.5625 -1.421875 35.59375 -1.421875 
Q 29.59375 -1.421875 25.265625 0.953125 
Q 20.953125 3.328125 18.109375 8.203125 
z
M 48.6875 27.296875 
Q 48.6875 37.203125 44.609375 42.84375 
Q 40.53125 48.484375 33.40625 48.484375 
Q 26.265625 48.484375 22.1875 42.84375 
Q 18.109375 37.203125 18.109375 27.296875 
Q 18.109375 17.390625 22.1875 11.75 
Q 26.265625 6.109375 33.40625 6.109375 
Q 40.53125 6.109375 44.609375 11.75 
Q 48.6875 17.390625 48.6875 27.296875 
z
" id="DejaVuSans-112"/>
       <path d="M 44.28125 53.078125 
L 44.28125 44.578125 
Q 40.484375 46.53125 36.375 47.5 
Q 32.28125 48.484375 27.875 48.484375 
Q 21.1875 48.484375 17.84375 46.4375 
Q 14.5 44.390625 14.5 40.28125 
Q 14.5 37.15625 16.890625 35.375 
Q 19.28125 33.59375 26.515625 31.984375 
L 29.59375 31.296875 
Q 39.15625 29.25 43.1875 25.515625 
Q 47.21875 21.78125 47.21875 15.09375 
Q 47.21875 7.46875 41.1875 3.015625 
Q 35.15625 -1.421875 24.609375 -1.421875 
Q 20.21875 -1.421875 15.453125 -0.5625 
Q 10.6875 0.296875 5.421875 2 
L 5.421875 11.28125 
Q 10.40625 8.6875 15.234375 7.390625 
Q 20.0625 6.109375 24.8125 6.109375 
Q 31.15625 6.109375 34.5625 8.28125 
Q 37.984375 10.453125 37.984375 14.40625 
Q 37.984375 18.0625 35.515625 20.015625 
Q 33.0625 21.96875 24.703125 23.78125 
L 21.578125 24.515625 
Q 13.234375 26.265625 9.515625 29.90625 
Q 5.8125 33.546875 5.8125 39.890625 
Q 5.8125 47.609375 11.28125 51.796875 
Q 16.75 56 26.8125 56 
Q 31.78125 56 36.171875 55.265625 
Q 40.578125 54.546875 44.28125 53.078125 
z
" id="DejaVuSans-115"/>
       <path d="M 56.203125 29.59375 
L 56.203125 25.203125 
L 14.890625 25.203125 
Q 15.484375 15.921875 20.484375 11.0625 
Q 25.484375 6.203125 34.421875 6.203125 
Q 39.59375 6.203125 44.453125 7.46875 
Q 49.3125 8.734375 54.109375 11.28125 
L 54.109375 2.78125 
Q 49.265625 0.734375 44.1875 -0.34375 
Q 39.109375 -1.421875 33.890625 -1.421875 
Q 20.796875 -1.421875 13.15625 6.1875 
Q 5.515625 13.8125 5.515625 26.8125 
Q 5.515625 40.234375 12.765625 48.109375 
Q 20.015625 56 32.328125 56 
Q 43.359375 56 49.78125 48.890625 
Q 56.203125 41.796875 56.203125 29.59375 
z
M 47.21875 32.234375 
Q 47.125 39.59375 43.09375 43.984375 
Q 39.0625 48.390625 32.421875 48.390625 
Q 24.90625 48.390625 20.390625 44.140625 
Q 15.875 39.890625 15.1875 32.171875 
z
" id="DejaVuSans-101"/>
       <path d="M 45.40625 46.390625 
L 45.40625 75.984375 
L 54.390625 75.984375 
L 54.390625 0 
L 45.40625 0 
L 45.40625 8.203125 
Q 42.578125 3.328125 38.25 0.953125 
Q 33.9375 -1.421875 27.875 -1.421875 
Q 17.96875 -1.421875 11.734375 6.484375 
Q 5.515625 14.40625 5.515625 27.296875 
Q 5.515625 40.1875 11.734375 48.09375 
Q 17.96875 56 27.875 56 
Q 33.9375 56 38.25 53.625 
Q 42.578125 51.265625 45.40625 46.390625 
z
M 14.796875 27.296875 
Q 14.796875 17.390625 18.875 11.75 
Q 22.953125 6.109375 30.078125 6.109375 
Q 37.203125 6.109375 41.296875 11.75 
Q 45.40625 17.390625 45.40625 27.296875 
Q 45.40625 37.203125 41.296875 42.84375 
Q 37.203125 48.484375 30.078125 48.484375 
Q 22.953125 48.484375 18.875 42.84375 
Q 14.796875 37.203125 14.796875 27.296875 
z
" id="DejaVuSans-100"/>
       <path id="DejaVuSans-32"/>
       <path d="M -0.296875 72.90625 
L 61.375 72.90625 
L 61.375 64.59375 
L 35.5 64.59375 
L 35.5 0 
L 25.59375 0 
L 25.59375 64.59375 
L -0.296875 64.59375 
z
" id="DejaVuSans-84"/>
       <path d="M 9.421875 54.6875 
L 18.40625 54.6875 
L 18.40625 0 
L 9.421875 0 
z
M 9.421875 75.984375 
L 18.40625 75.984375 
L 18.40625 64.59375 
L 9.421875 64.59375 
z
" id="DejaVuSans-105"/>
       <path d="M 52 44.1875 
Q 55.375 50.25 60.0625 53.125 
Q 64.75 56 71.09375 56 
Q 79.640625 56 84.28125 50.015625 
Q 88.921875 44.046875 88.921875 33.015625 
L 88.921875 0 
L 79.890625 0 
L 79.890625 32.71875 
Q 79.890625 40.578125 77.09375 44.375 
Q 74.3125 48.1875 68.609375 48.1875 
Q 61.625 48.1875 57.5625 43.546875 
Q 53.515625 38.921875 53.515625 30.90625 
L 53.515625 0 
L 44.484375 0 
L 44.484375 32.71875 
Q 44.484375 40.625 41.703125 44.40625 
Q 38.921875 48.1875 33.109375 48.1875 
Q 26.21875 48.1875 22.15625 43.53125 
Q 18.109375 38.875 18.109375 30.90625 
L 18.109375 0 
L 9.078125 0 
L 9.078125 54.6875 
L 18.109375 54.6875 
L 18.109375 46.1875 
Q 21.1875 51.21875 25.484375 53.609375 
Q 29.78125 56 35.6875 56 
Q 41.65625 56 45.828125 52.96875 
Q 50 49.953125 52 44.1875 
z
" id="DejaVuSans-109"/>
       <path d="M 31 75.875 
Q 24.46875 64.65625 21.28125 53.65625 
Q 18.109375 42.671875 18.109375 31.390625 
Q 18.109375 20.125 21.3125 9.0625 
Q 24.515625 -2 31 -13.1875 
L 23.1875 -13.1875 
Q 15.875 -1.703125 12.234375 9.375 
Q 8.59375 20.453125 8.59375 31.390625 
Q 8.59375 42.28125 12.203125 53.3125 
Q 15.828125 64.359375 23.1875 75.875 
z
" id="DejaVuSans-40"/>
       <path d="M 53.515625 70.515625 
L 53.515625 60.890625 
Q 47.90625 63.578125 42.921875 64.890625 
Q 37.9375 66.21875 33.296875 66.21875 
Q 25.25 66.21875 20.875 63.09375 
Q 16.5 59.96875 16.5 54.203125 
Q 16.5 49.359375 19.40625 46.890625 
Q 22.3125 44.4375 30.421875 42.921875 
L 36.375 41.703125 
Q 47.40625 39.59375 52.65625 34.296875 
Q 57.90625 29 57.90625 20.125 
Q 57.90625 9.515625 50.796875 4.046875 
Q 43.703125 -1.421875 29.984375 -1.421875 
Q 24.8125 -1.421875 18.96875 -0.25 
Q 13.140625 0.921875 6.890625 3.21875 
L 6.890625 13.375 
Q 12.890625 10.015625 18.65625 8.296875 
Q 24.421875 6.59375 29.984375 6.59375 
Q 38.421875 6.59375 43.015625 9.90625 
Q 47.609375 13.234375 47.609375 19.390625 
Q 47.609375 24.75 44.3125 27.78125 
Q 41.015625 30.8125 33.5 32.328125 
L 27.484375 33.5 
Q 16.453125 35.6875 11.515625 40.375 
Q 6.59375 45.0625 6.59375 53.421875 
Q 6.59375 63.09375 13.40625 68.65625 
Q 20.21875 74.21875 32.171875 74.21875 
Q 37.3125 74.21875 42.625 73.28125 
Q 47.953125 72.359375 53.515625 70.515625 
z
" id="DejaVuSans-83"/>
       <path d="M 48.78125 52.59375 
L 48.78125 44.1875 
Q 44.96875 46.296875 41.140625 47.34375 
Q 37.3125 48.390625 33.40625 48.390625 
Q 24.65625 48.390625 19.8125 42.84375 
Q 14.984375 37.3125 14.984375 27.296875 
Q 14.984375 17.28125 19.8125 11.734375 
Q 24.65625 6.203125 33.40625 6.203125 
Q 37.3125 6.203125 41.140625 7.25 
Q 44.96875 8.296875 48.78125 10.40625 
L 48.78125 2.09375 
Q 45.015625 0.34375 40.984375 -0.53125 
Q 36.96875 -1.421875 32.421875 -1.421875 
Q 20.0625 -1.421875 12.78125 6.34375 
Q 5.515625 14.109375 5.515625 27.296875 
Q 5.515625 40.671875 12.859375 48.328125 
Q 20.21875 56 33.015625 56 
Q 37.15625 56 41.109375 55.140625 
Q 45.0625 54.296875 48.78125 52.59375 
z
" id="DejaVuSans-99"/>
       <path d="M 30.609375 48.390625 
Q 23.390625 48.390625 19.1875 42.75 
Q 14.984375 37.109375 14.984375 27.296875 
Q 14.984375 17.484375 19.15625 11.84375 
Q 23.34375 6.203125 30.609375 6.203125 
Q 37.796875 6.203125 41.984375 11.859375 
Q 46.1875 17.53125 46.1875 27.296875 
Q 46.1875 37.015625 41.984375 42.703125 
Q 37.796875 48.390625 30.609375 48.390625 
z
M 30.609375 56 
Q 42.328125 56 49.015625 48.375 
Q 55.71875 40.765625 55.71875 27.296875 
Q 55.71875 13.875 49.015625 6.21875 
Q 42.328125 -1.421875 30.609375 -1.421875 
Q 18.84375 -1.421875 12.171875 6.21875 
Q 5.515625 13.875 5.515625 27.296875 
Q 5.515625 40.765625 12.171875 48.375 
Q 18.84375 56 30.609375 56 
z
" id="DejaVuSans-111"/>
       <path d="M 54.890625 33.015625 
L 54.890625 0 
L 45.90625 0 
L 45.90625 32.71875 
Q 45.90625 40.484375 42.875 44.328125 
Q 39.84375 48.1875 33.796875 48.1875 
Q 26.515625 48.1875 22.3125 43.546875 
Q 18.109375 38.921875 18.109375 30.90625 
L 18.109375 0 
L 9.078125 0 
L 9.078125 54.6875 
L 18.109375 54.6875 
L 18.109375 46.1875 
Q 21.34375 51.125 25.703125 53.5625 
Q 30.078125 56 35.796875 56 
Q 45.21875 56 50.046875 50.171875 
Q 54.890625 44.34375 54.890625 33.015625 
z
" id="DejaVuSans-110"/>
       <path d="M 8.015625 75.875 
L 15.828125 75.875 
Q 23.140625 64.359375 26.78125 53.3125 
Q 30.421875 42.28125 30.421875 31.390625 
Q 30.421875 20.453125 26.78125 9.375 
Q 23.140625 -1.703125 15.828125 -13.1875 
L 8.015625 -13.1875 
Q 14.5 -2 17.703125 9.0625 
Q 20.90625 20.125 20.90625 31.390625 
Q 20.90625 42.671875 17.703125 53.65625 
Q 14.5 64.65625 8.015625 75.875 
z
" id="DejaVuSans-41"/>
      </defs>
      <use xlink:href="#DejaVuSans-69"/>
      <use x="63.183594" xlink:href="#DejaVuSans-108"/>
      <use x="90.966797" xlink:href="#DejaVuSans-97"/>
      <use x="152.246094" xlink:href="#DejaVuSans-112"/>
      <use x="215.722656" xlink:href="#DejaVuSans-115"/>
      <use x="267.822266" xlink:href="#DejaVuSans-101"/>
      <use x="329.345703" xlink:href="#DejaVuSans-100"/>
      <use x="392.822266" xlink:href="#DejaVuSans-32"/>
      <use x="424.609375" xlink:href="#DejaVuSans-84"/>
      <use x="482.568359" xlink:href="#DejaVuSans-105"/>
      <use x="510.351562" xlink:href="#DejaVuSans-109"/>
      <use x="607.763672" xlink:href="#DejaVuSans-101"/>
      <use x="669.287109" xlink:href="#DejaVuSans-32"/>
      <use x="701.074219" xlink:href="#DejaVuSans-40"/>
      <use x="740.087891" xlink:href="#DejaVuSans-83"/>
      <use x="803.564453" xlink:href="#DejaVuSans-101"/>
      <use x="865.087891" xlink:href="#DejaVuSans-99"/>
      <use x="920.068359" xlink:href="#DejaVuSans-111"/>
      <use x="981.25" xlink:href="#DejaVuSans-110"/>
      <use x="1044.628906" xlink:href="#DejaVuSans-100"/>
      <use x="1108.105469" xlink:href="#DejaVuSans-115"/>
      <use x="1160.205078" xlink:href="#DejaVuSans-41"/>
     </g>
    </g>
   </g>
   <g id="matplotlib.axis_2">
    <g id="ytick_1">
     <g id="line2d_6">
      <defs>
       <path d="M 0 0 
L -3.5 0 
" id="m9dcf8c36ec" style="stroke:#000000;stroke-width:0.8;"/>
      </defs>
      <g>
       <use style="stroke:#000000;stroke-width:0.8;" x="108" xlink:href="#m9dcf8c36ec" y="567"/>
      </g>
     </g>
     <g id="text_7">
      <!-- 0 -->
      <g transform="translate(83.82125 577.257891)scale(0.27 -0.27)">
       <use xlink:href="#DejaVuSans-48"/>
      </g>
     </g>
    </g>
    <g id="ytick_2">
     <g id="line2d_7">
      <g>
       <use style="stroke:#000000;stroke-width:0.8;" x="108" xlink:href="#m9dcf8c36ec" y="427.217143"/>
      </g>
     </g>
     <g id="text_8">
      <!-- 1 -->
      <g transform="translate(83.82125 437.475033)scale(0.27 -0.27)">
       <defs>
        <path d="M 12.40625 8.296875 
L 28.515625 8.296875 
L 28.515625 63.921875 
L 10.984375 60.40625 
L 10.984375 69.390625 
L 28.421875 72.90625 
L 38.28125 72.90625 
L 38.28125 8.296875 
L 54.390625 8.296875 
L 54.390625 0 
L 12.40625 0 
z
" id="DejaVuSans-49"/>
       </defs>
       <use xlink:href="#DejaVuSans-49"/>
      </g>
     </g>
    </g>
    <g id="ytick_3">
     <g id="line2d_8">
      <g>
       <use style="stroke:#000000;stroke-width:0.8;" x="108" xlink:href="#m9dcf8c36ec" y="287.434286"/>
      </g>
     </g>
     <g id="text_9">
      <!-- 10 -->
      <g transform="translate(66.6425 297.692176)scale(0.27 -0.27)">
       <use xlink:href="#DejaVuSans-49"/>
       <use x="63.623047" xlink:href="#DejaVuSans-48"/>
      </g>
     </g>
    </g>
    <g id="ytick_4">
     <g id="line2d_9">
      <g>
       <use style="stroke:#000000;stroke-width:0.8;" x="108" xlink:href="#m9dcf8c36ec" y="147.651429"/>
      </g>
     </g>
     <g id="text_10">
      <!-- 100 -->
      <g transform="translate(49.46375 157.909319)scale(0.27 -0.27)">
       <use xlink:href="#DejaVuSans-49"/>
       <use x="63.623047" xlink:href="#DejaVuSans-48"/>
       <use x="127.246094" xlink:href="#DejaVuSans-48"/>
      </g>
     </g>
    </g>
    <g id="ytick_5">
     <g id="line2d_10">
      <defs>
       <path d="M 0 0 
L -2 0 
" id="m23e1e0bac1" style="stroke:#000000;stroke-width:0.6;"/>
      </defs>
      <g>
       <use style="stroke:#000000;stroke-width:0.6;" x="108" xlink:href="#m23e1e0bac1" y="524.921167"/>
      </g>
     </g>
    </g>
    <g id="ytick_6">
     <g id="line2d_11">
      <g>
       <use style="stroke:#000000;stroke-width:0.6;" x="108" xlink:href="#m23e1e0bac1" y="500.306628"/>
      </g>
     </g>
    </g>
    <g id="ytick_7">
     <g id="line2d_12">
      <g>
       <use style="stroke:#000000;stroke-width:0.6;" x="108" xlink:href="#m23e1e0bac1" y="482.842334"/>
      </g>
     </g>
    </g>
    <g id="ytick_8">
     <g id="line2d_13">
      <g>
       <use style="stroke:#000000;stroke-width:0.6;" x="108" xlink:href="#m23e1e0bac1" y="469.295976"/>
      </g>
     </g>
    </g>
    <g id="ytick_9">
     <g id="line2d_14">
      <g>
       <use style="stroke:#000000;stroke-width:0.6;" x="108" xlink:href="#m23e1e0bac1" y="458.227795"/>
      </g>
     </g>
    </g>
    <g id="ytick_10">
     <g id="line2d_15">
      <g>
       <use style="stroke:#000000;stroke-width:0.6;" x="108" xlink:href="#m23e1e0bac1" y="448.869781"/>
      </g>
     </g>
    </g>
    <g id="ytick_11">
     <g id="line2d_16">
      <g>
       <use style="stroke:#000000;stroke-width:0.6;" x="108" xlink:href="#m23e1e0bac1" y="440.763501"/>
      </g>
     </g>
    </g>
    <g id="ytick_12">
     <g id="line2d_17">
      <g>
       <use style="stroke:#000000;stroke-width:0.6;" x="108" xlink:href="#m23e1e0bac1" y="433.613256"/>
      </g>
     </g>
    </g>
    <g id="ytick_13">
     <g id="line2d_18">
      <g>
       <use style="stroke:#000000;stroke-width:0.6;" x="108" xlink:href="#m23e1e0bac1" y="385.13831"/>
      </g>
     </g>
    </g>
    <g id="ytick_14">
     <g id="line2d_19">
      <g>
       <use style="stroke:#000000;stroke-width:0.6;" x="108" xlink:href="#m23e1e0bac1" y="360.523771"/>
      </g>
     </g>
    </g>
    <g id="ytick_15">
     <g id="line2d_20">
      <g>
       <use style="stroke:#000000;stroke-width:0.6;" x="108" xlink:href="#m23e1e0bac1" y="343.059477"/>
      </g>
     </g>
    </g>
    <g id="ytick_16">
     <g id="line2d_21">
      <g>
       <use style="stroke:#000000;stroke-width:0.6;" x="108" xlink:href="#m23e1e0bac1" y="329.513119"/>
      </g>
     </g>
    </g>
    <g id="ytick_17">
     <g id="line2d_22">
      <g>
       <use style="stroke:#000000;stroke-width:0.6;" x="108" xlink:href="#m23e1e0bac1" y="318.444938"/>
      </g>
     </g>
    </g>
    <g id="ytick_18">
     <g id="line2d_23">
      <g>
       <use style="stroke:#000000;stroke-width:0.6;" x="108" xlink:href="#m23e1e0bac1" y="309.086924"/>
      </g>
     </g>
    </g>
    <g id="ytick_19">
     <g id="line2d_24">
      <g>
       <use style="stroke:#000000;stroke-width:0.6;" x="108" xlink:href="#m23e1e0bac1" y="300.980644"/>
      </g>
     </g>
    </g>
    <g id="ytick_20">
     <g id="line2d_25">
      <g>
       <use style="stroke:#000000;stroke-width:0.6;" x="108" xlink:href="#m23e1e0bac1" y="293.830398"/>
      </g>
     </g>
    </g>
    <g id="ytick_21">
     <g id="line2d_26">
      <g>
       <use style="stroke:#000000;stroke-width:0.6;" x="108" xlink:href="#m23e1e0bac1" y="245.355453"/>
      </g>
     </g>
    </g>
    <g id="ytick_22">
     <g id="line2d_27">
      <g>
       <use style="stroke:#000000;stroke-width:0.6;" x="108" xlink:href="#m23e1e0bac1" y="220.740914"/>
      </g>
     </g>
    </g>
    <g id="ytick_23">
     <g id="line2d_28">
      <g>
       <use style="stroke:#000000;stroke-width:0.6;" x="108" xlink:href="#m23e1e0bac1" y="203.27662"/>
      </g>
     </g>
    </g>
    <g id="ytick_24">
     <g id="line2d_29">
      <g>
       <use style="stroke:#000000;stroke-width:0.6;" x="108" xlink:href="#m23e1e0bac1" y="189.730261"/>
      </g>
     </g>
    </g>
    <g id="ytick_25">
     <g id="line2d_30">
      <g>
       <use style="stroke:#000000;stroke-width:0.6;" x="108" xlink:href="#m23e1e0bac1" y="178.662081"/>
      </g>
     </g>
    </g>
    <g id="ytick_26">
     <g id="line2d_31">
      <g>
       <use style="stroke:#000000;stroke-width:0.6;" x="108" xlink:href="#m23e1e0bac1" y="169.304067"/>
      </g>
     </g>
    </g>
    <g id="ytick_27">
     <g id="line2d_32">
      <g>
       <use style="stroke:#000000;stroke-width:0.6;" x="108" xlink:href="#m23e1e0bac1" y="161.197787"/>
      </g>
     </g>
    </g>
    <g id="ytick_28">
     <g id="line2d_33">
      <g>
       <use style="stroke:#000000;stroke-width:0.6;" x="108" xlink:href="#m23e1e0bac1" y="154.047541"/>
      </g>
     </g>
    </g>
    <g id="ytick_29">
     <g id="line2d_34">
      <g>
       <use style="stroke:#000000;stroke-width:0.6;" x="108" xlink:href="#m23e1e0bac1" y="105.572596"/>
      </g>
     </g>
    </g>
    <g id="ytick_30">
     <g id="line2d_35">
      <g>
       <use style="stroke:#000000;stroke-width:0.6;" x="108" xlink:href="#m23e1e0bac1" y="80.958056"/>
      </g>
     </g>
    </g>
    <g id="text_11">
     <!-- Particles/cc -->
     <g transform="translate(39.848594 398.684531)rotate(-90)scale(0.27 -0.27)">
      <defs>
       <path d="M 19.671875 64.796875 
L 19.671875 37.40625 
L 32.078125 37.40625 
Q 38.96875 37.40625 42.71875 40.96875 
Q 46.484375 44.53125 46.484375 51.125 
Q 46.484375 57.671875 42.71875 61.234375 
Q 38.96875 64.796875 32.078125 64.796875 
z
M 9.8125 72.90625 
L 32.078125 72.90625 
Q 44.34375 72.90625 50.609375 67.359375 
Q 56.890625 61.8125 56.890625 51.125 
Q 56.890625 40.328125 50.609375 34.8125 
Q 44.34375 29.296875 32.078125 29.296875 
L 19.671875 29.296875 
L 19.671875 0 
L 9.8125 0 
z
" id="DejaVuSans-80"/>
       <path d="M 41.109375 46.296875 
Q 39.59375 47.171875 37.8125 47.578125 
Q 36.03125 48 33.890625 48 
Q 26.265625 48 22.1875 43.046875 
Q 18.109375 38.09375 18.109375 28.8125 
L 18.109375 0 
L 9.078125 0 
L 9.078125 54.6875 
L 18.109375 54.6875 
L 18.109375 46.1875 
Q 20.953125 51.171875 25.484375 53.578125 
Q 30.03125 56 36.53125 56 
Q 37.453125 56 38.578125 55.875 
Q 39.703125 55.765625 41.0625 55.515625 
z
" id="DejaVuSans-114"/>
       <path d="M 18.3125 70.21875 
L 18.3125 54.6875 
L 36.8125 54.6875 
L 36.8125 47.703125 
L 18.3125 47.703125 
L 18.3125 18.015625 
Q 18.3125 11.328125 20.140625 9.421875 
Q 21.96875 7.515625 27.59375 7.515625 
L 36.8125 7.515625 
L 36.8125 0 
L 27.59375 0 
Q 17.1875 0 13.234375 3.875 
Q 9.28125 7.765625 9.28125 18.015625 
L 9.28125 47.703125 
L 2.6875 47.703125 
L 2.6875 54.6875 
L 9.28125 54.6875 
L 9.28125 70.21875 
z
" id="DejaVuSans-116"/>
       <path d="M 25.390625 72.90625 
L 33.6875 72.90625 
L 8.296875 -9.28125 
L 0 -9.28125 
z
" id="DejaVuSans-47"/>
      </defs>
      <use xlink:href="#DejaVuSans-80"/>
      <use x="55.802734" xlink:href="#DejaVuSans-97"/>
      <use x="117.082031" xlink:href="#DejaVuSans-114"/>
      <use x="158.195312" xlink:href="#DejaVuSans-116"/>
      <use x="197.404297" xlink:href="#DejaVuSans-105"/>
      <use x="225.1875" xlink:href="#DejaVuSans-99"/>
      <use x="280.167969" xlink:href="#DejaVuSans-108"/>
      <use x="307.951172" xlink:href="#DejaVuSans-101"/>
      <use x="369.474609" xlink:href="#DejaVuSans-115"/>
      <use x="421.574219" xlink:href="#DejaVuSans-47"/>
      <use x="455.265625" xlink:href="#DejaVuSans-99"/>
      <use x="510.246094" xlink:href="#DejaVuSans-99"/>
     </g>
    </g>
   </g>
   <g id="line2d_36">
    <path clip-path="url(#p2c07effd7d)" d="M 63.850549 449.743277 
L 66.058022 441.604013 
L 68.265495 434.428126 
L 70.472967 428.011507 
L 71.208791 426.014986 
L 78.567033 428.754109 
L 82.246154 434.121266 
L 85.189451 438.785173 
L 85.925275 440.009368 
L 88.868571 435.254083 
L 92.547692 429.790249 
L 93.283516 428.754109 
L 100.641758 430.651355 
L 102.849231 423.308694 
L 105.056703 416.759087 
L 107.264176 410.847801 
L 108 408.998716 
L 113.150769 412.898667 
L 115.358242 414.64995 
L 118.301538 409.269126 
L 121.244835 404.326648 
L 126.395604 396.267228 
L 130.074725 391.030628 
L 130.810549 346.349321 
L 131.546374 320.891506 
L 132.282198 303.009926 
L 133.018022 289.214567 
L 133.753846 277.98095 
L 135.225495 260.310495 
L 136.697143 246.640774 
L 137.432967 240.809989 
L 138.904615 233.570624 
L 141.112088 224.110919 
L 143.31956 215.928483 
L 144.791209 211.028368 
L 146.262857 200.241048 
L 147.734505 191.084448 
L 149.206154 183.129668 
L 150.677802 176.097518 
L 152.149451 169.796047 
L 154.356923 178.124179 
L 155.828571 184.387392 
L 157.30022 191.371921 
L 158.771868 199.265799 
L 159.507692 203.634325 
L 162.450989 197.480975 
L 165.394286 191.894336 
L 166.865934 189.282684 
L 169.073407 195.797426 
L 171.280879 203.096285 
L 173.488352 211.394175 
L 174.224176 214.43289 
L 177.167473 220.178948 
L 180.110769 226.526294 
L 181.582418 229.967538 
L 183.78989 236.852462 
L 185.997363 244.61931 
L 188.204835 253.527679 
L 188.940659 256.813407 
L 191.148132 263.227851 
L 193.355604 270.40102 
L 195.563077 278.536785 
L 196.298901 281.510484 
L 198.506374 286.545398 
L 200.713846 292.035975 
L 202.921319 298.07297 
L 203.657143 300.226511 
L 206.60044 305.828409 
L 209.543736 312.000279 
L 211.015385 315.338669 
L 213.222857 321.622732 
L 215.43033 328.633205 
L 217.637802 336.56025 
L 218.373626 339.450605 
L 225.731868 342.983641 
L 229.410989 348.327875 
L 232.354286 352.970155 
L 233.09011 354.188395 
L 236.769231 358.729347 
L 240.448352 363.637629 
L 244.863297 359.024758 
L 247.806593 356.133406 
L 250.74989 360.706165 
L 253.693187 365.651633 
L 255.164835 368.284141 
L 258.108132 362.123032 
L 261.051429 356.529999 
L 262.523077 353.915555 
L 266.202198 349.329249 
L 269.881319 345.065225 
L 277.23956 344.131254 
L 280.182857 348.951795 
L 283.126154 354.188395 
L 284.597802 356.986445 
L 291.956044 359.919717 
L 298.578462 364.118796 
L 299.314286 364.603807 
L 302.257582 358.552787 
L 305.200879 353.050615 
L 306.672527 350.475898 
L 310.351648 355.153111 
L 314.030769 360.220992 
L 316.238242 367.427894 
L 318.445714 375.607095 
L 319.917363 381.74433 
L 321.389011 388.572522 
L 323.596484 395.776995 
L 325.803956 403.953066 
L 327.275604 410.087659 
L 328.747253 416.912581 
L 330.218901 407.79656 
L 331.690549 399.872409 
L 333.162198 392.864198 
L 335.36967 383.668918 
L 336.105495 380.889288 
L 339.784615 385.290267 
L 343.463736 390.03541 
L 345.671209 382.655276 
L 347.878681 376.075877 
L 350.086154 370.140338 
L 350.821978 368.284141 
L 358.18022 369.327839 
L 360.387692 374.488931 
L 362.595165 380.129915 
L 364.802637 386.34927 
L 365.538462 388.572522 
L 368.481758 393.17525 
L 371.425055 398.155793 
L 372.896703 400.80818 
L 378.047473 396.816616 
L 380.254945 395.183147 
L 381.726593 386.488772 
L 383.198242 378.885026 
L 384.66989 372.128537 
L 386.877363 363.22368 
L 387.613187 360.523771 
L 392.028132 365.060007 
L 394.971429 368.284141 
L 397.178901 373.466075 
L 399.386374 379.13197 
L 401.593846 385.381625 
L 402.32967 387.616488 
L 405.272967 392.144548 
L 408.216264 397.037771 
L 409.687912 399.640703 
L 413.367033 404.13957 
L 417.046154 408.998716 
L 424.404396 406.358869 
L 428.083516 401.400447 
L 431.762637 396.816616 
L 439.120879 397.930536 
L 442.064176 402.845918 
L 445.007473 408.194639 
L 446.479121 411.056775 
L 449.422418 404.451688 
L 452.365714 398.495255 
L 453.837363 395.722768 
L 457.516484 390.78029 
L 461.195604 386.210087 
L 468.553846 382.176409 
L 470.761319 389.789134 
L 472.968791 398.495255 
L 474.44044 405.080781 
L 475.912088 412.468628 
L 483.27033 411.758597 
L 487.685275 416.60598 
L 490.628571 420.066897 
L 497.986813 420.881767 
L 500.194286 413.476832 
L 502.401758 406.877735 
L 504.609231 400.926172 
L 505.345055 399.065277 
L 509.024176 404.13957 
L 511.967473 408.528378 
L 512.703297 409.677013 
L 516.382418 405.080781 
L 520.061538 400.80818 
L 522.269011 394.595052 
L 524.476484 388.959192 
L 526.683956 383.802389 
L 527.41978 382.176409 
L 529.627253 389.494916 
L 531.834725 397.818219 
L 533.306374 404.077338 
L 535.513846 413.841002 
L 536.985495 419.824554 
L 538.457143 426.46301 
L 539.928791 433.917552 
L 541.40044 442.417324 
L 542.136264 447.159614 
L 545.815385 451.755846 
L 549.494505 456.728782 
L 550.966154 450.007796 
L 553.173626 441.14411 
L 555.381099 433.411236 
L 556.852747 428.754109 
L 562.003516 432.809179 
L 564.210989 434.633564 
L 567.89011 430.171456 
L 571.569231 426.014986 
L 574.512527 430.45894 
L 577.455824 435.254083 
L 578.927473 437.801601 
L 582.606593 433.613256 
L 586.285714 429.695321 
L 588.493187 423.737114 
L 590.700659 418.311778 
L 593.643956 411.758597 
L 601.002198 411.758597 
L 603.20967 419.422786 
L 605.417143 428.196308 
L 606.888791 434.8397 
L 608.36044 442.300468 
L 611.303736 446.655819 
L 614.247033 451.347959 
L 615.718681 453.83743 
L 617.926154 460.07688 
L 620.133626 467.031863 
L 622.341099 474.888012 
L 623.076923 477.750147 
L 630.435165 479.880433 
L 631.906813 467.383789 
L 633.378462 457.025638 
L 634.85011 448.179923 
L 636.321758 440.460723 
L 637.793407 433.613256 
L 645.151648 436.727114 
L 648.830769 432.114243 
L 652.50989 427.827268 
L 654.717363 420.310212 
L 656.924835 413.622238 
L 659.132308 407.598495 
L 659.868132 405.716462 
L 661.33978 412.611636 
L 662.811429 420.391534 
L 664.283077 429.317083 
L 665.754725 439.784943 
L 667.226374 452.441807 
L 668.698022 444.924751 
L 670.16967 438.236778 
L 672.377143 429.411422 
L 674.584615 421.707725 
L 681.942857 419.26282 
L 685.621978 423.823163 
L 689.301099 428.754109 
L 690.772747 435.671315 
L 692.244396 443.47928 
L 693.716044 452.441807 
L 695.187692 462.9606 
L 696.659341 475.692089 
L 698.866813 467.737766 
L 701.074286 460.705973 
L 703.281758 454.404789 
L 704.017582 452.441807 
L 707.696703 456.728782 
L 711.375824 461.341653 
L 718.734066 464.623908 
L 724.620659 460.705973 
L 731.243077 456.580897 
L 733.450549 455.265894 
L 735.658022 447.923233 
L 737.865495 441.373626 
L 740.072967 435.46234 
L 740.808791 433.613256 
L 743.016264 438.675097 
L 745.223736 444.197713 
L 747.431209 450.273472 
L 748.902857 454.833815 
L 751.11033 462.633338 
L 753.317802 471.58474 
L 754.789451 478.381421 
L 755.525275 482.088201 
L 760.676044 477.541173 
L 762.883516 475.692089 
L 762.883516 475.692089 
" style="fill:none;stroke:#1f77b4;stroke-linecap:square;stroke-width:4;"/>
   </g>
   <g id="line2d_37">
    <path clip-path="url(#p2c07effd7d)" d="M 63.850549 415.021247 
L 71.208791 412.468628 
L 77.831209 416.453258 
L 78.567033 416.912581 
L 80.774505 408.327915 
L 82.981978 400.80818 
L 85.189451 394.118086 
L 85.925275 392.042433 
L 88.132747 397.231944 
L 90.34022 402.9069 
L 92.547692 409.167581 
L 93.283516 411.406672 
L 100.641758 410.362974 
L 105.056703 406.358869 
L 108 403.829048 
L 111.679121 408.161366 
L 115.358242 412.826782 
L 118.301538 417.452888 
L 121.244835 422.460818 
L 122.716484 425.128738 
L 125.65978 419.743987 
L 128.603077 414.798196 
L 130.074725 412.468628 
L 132.282198 403.612624 
L 134.48967 395.885594 
L 136.697143 389.031967 
L 137.432967 386.909215 
L 138.904615 374.910641 
L 140.376264 364.896685 
L 141.847912 356.303057 
L 143.31956 348.77645 
L 144.791209 342.080919 
L 145.527033 327.530383 
L 146.262857 315.801861 
L 147.734505 297.522116 
L 149.206154 283.491693 
L 150.677802 272.102934 
L 152.149451 262.516968 
L 154.356923 271.148447 
L 155.828571 277.670031 
L 157.30022 284.977481 
L 158.771868 293.28648 
L 159.507692 297.910435 
L 161.715165 292.006512 
L 163.922637 286.626215 
L 166.865934 280.12237 
L 169.073407 272.304872 
L 171.280879 265.380187 
L 173.488352 259.165129 
L 174.224176 257.227225 
L 177.167473 263.571072 
L 179.374945 268.805789 
L 181.582418 274.534855 
L 183.78989 281.353757 
L 185.997363 289.036664 
L 188.204835 297.834734 
L 188.940659 301.075573 
L 196.298901 304.595801 
L 199.978022 299.890184 
L 203.657143 295.523223 
L 205.864615 301.418551 
L 208.072088 307.948569 
L 210.27956 315.266613 
L 211.015385 317.916063 
L 216.166154 322.338595 
L 218.373626 324.337256 
L 225.731868 324.170249 
L 233.09011 327.073806 
L 240.448352 326.03309 
L 247.070769 330.196872 
L 247.806593 330.677649 
L 250.74989 336.92954 
L 252.957363 342.080919 
L 255.164835 347.710301 
L 259.57978 343.577691 
L 262.523077 340.971072 
L 269.881319 344.830382 
L 272.824615 349.304012 
L 275.767912 354.133729 
L 278.711209 358.995152 
L 281.654505 363.861699 
L 284.597802 369.152639 
L 288.276923 373.503653 
L 291.956044 378.190759 
L 294.163516 371.561606 
L 296.370989 365.585612 
L 298.578462 360.145533 
L 299.314286 358.435366 
L 302.257582 364.538915 
L 304.465055 369.556358 
L 306.672527 375.026163 
L 314.030769 378.190759 
L 316.238242 371.397999 
L 318.445714 365.289399 
L 320.653187 359.739666 
L 321.389011 357.997047 
L 325.068132 352.836292 
L 328.747253 348.080091 
L 336.105495 347.710301 
L 338.312967 354.12007 
L 340.52044 361.28739 
L 342.727912 369.415629 
L 343.463736 372.386316 
L 346.407033 378.1096 
L 349.35033 384.429162 
L 350.821978 387.854088 
L 353.765275 381.187185 
L 356.708571 375.180536 
L 358.18022 372.386316 
L 362.595165 376.508797 
L 365.538462 379.421347 
L 368.481758 374.718591 
L 372.160879 369.310296 
L 372.896703 368.284141 
L 375.104176 375.354675 
L 377.311648 383.358623 
L 378.783297 389.34834 
L 380.254945 395.994388 
L 387.613187 398.212239 
L 392.763956 393.828441 
L 394.971429 392.042433 
L 400.858022 395.83127 
L 402.32967 396.816616 
L 404.537143 390.90533 
L 406.744615 385.518919 
L 409.687912 379.008373 
L 414.838681 382.874198 
L 422.932747 389.29956 
L 424.404396 390.53098 
L 428.083516 394.781556 
L 431.762637 399.352308 
L 433.97011 392.349293 
L 436.177582 386.071222 
L 438.385055 380.381985 
L 439.120879 378.598189 
L 442.8 374.165058 
L 446.479121 370.033742 
L 449.422418 376.548307 
L 451.62989 381.938385 
L 453.837363 387.854088 
L 458.252308 383.447117 
L 461.195604 380.677397 
L 468.553846 384.159752 
L 472.232967 388.452191 
L 475.912088 393.071389 
L 483.27033 390.78029 
L 490.628571 389.543853 
L 493.571868 395.614459 
L 495.779341 400.602244 
L 497.986813 406.036816 
L 500.93011 410.708884 
L 503.873407 415.770725 
L 505.345055 418.469254 
L 509.024176 413.006654 
L 512.703297 407.995273 
L 515.646593 401.698762 
L 518.58989 395.994388 
L 520.061538 393.331376 
L 522.269011 400.105003 
L 524.476484 407.730466 
L 526.683956 416.453258 
L 527.41978 419.663527 
L 531.834725 414.798196 
L 534.778022 411.758597 
L 540.664615 407.664445 
L 542.136264 406.68264 
L 545.07956 412.970637 
L 547.287033 418.15471 
L 552.437802 431.135078 
L 554.645275 437.26198 
L 556.852747 444.077382 
L 558.324396 437.047468 
L 560.531868 427.827268 
L 562.739341 419.824554 
L 564.210989 415.021247 
L 568.625934 410.501102 
L 571.569231 407.664445 
L 574.512527 412.325956 
L 577.455824 417.375406 
L 578.927473 420.066897 
L 586.285714 422.124956 
L 589.964835 427.141307 
L 593.643956 432.609813 
L 595.851429 426.238585 
L 598.058901 420.472965 
L 600.266374 415.207751 
L 601.002198 413.549492 
L 603.945495 419.986008 
L 606.152967 425.304956 
L 608.36044 431.135078 
L 611.303736 426.104327 
L 614.247033 421.458755 
L 615.718681 419.26282 
L 623.076923 420.066897 
L 626.02022 415.24512 
L 629.699341 409.711128 
L 630.435165 408.662389 
L 638.529231 412.683266 
L 645.151648 414.64995 
L 648.830769 410.362974 
L 652.50989 406.358869 
L 657.660659 410.570283 
L 659.868132 412.468628 
L 662.075604 418.076328 
L 664.283077 424.255242 
L 666.490549 431.135078 
L 667.226374 433.613256 
L 669.433846 424.99691 
L 671.641319 417.452888 
L 673.848791 410.743583 
L 674.584615 408.662389 
L 678.263736 404.295428 
L 681.942857 400.221635 
L 684.886154 406.48817 
L 687.093626 411.652805 
L 689.301099 417.298023 
L 694.451868 421.790942 
L 696.659341 423.823163 
L 698.866813 429.790249 
L 701.074286 436.408441 
L 703.281758 443.837434 
L 704.017582 446.530521 
L 711.375824 449.08698 
L 714.319121 454.262451 
L 717.262418 459.92062 
L 719.46989 464.623908 
L 721.677363 469.906101 
L 723.884835 475.692089 
L 726.092308 482.088201 
L 727.563956 471.395916 
L 729.035604 462.307831 
L 730.507253 454.404789 
L 731.978901 447.413088 
L 733.450549 441.14411 
L 739.337143 437.154629 
L 740.808791 436.196919 
L 743.752088 441.25876 
L 746.695385 446.781377 
L 748.167033 449.743277 
L 750.374505 443.005005 
L 752.581978 436.940495 
L 754.789451 431.427173 
L 755.525275 429.695321 
L 756.996923 436.51448 
L 758.468571 444.197713 
L 759.94022 452.996212 
L 761.411868 463.289636 
L 762.883516 475.692089 
L 762.883516 475.692089 
" style="fill:none;stroke:#ff7f0e;stroke-linecap:square;stroke-width:4;"/>
   </g>
   <g id="line2d_38">
    <path clip-path="url(#p2c07effd7d)" d="M 63.850549 408.550693 
L 69.001319 412.707162 
L 71.944615 415.266485 
L 76.35956 419.560235 
L 78.567033 421.826641 
L 84.453626 417.95336 
L 85.925275 417.022458 
L 93.283516 419.874482 
L 96.962637 424.213959 
L 101.377582 429.587012 
L 105.792527 433.961147 
L 108 436.272378 
L 110.943297 440.958945 
L 113.886593 446.037811 
L 115.358242 448.746016 
L 121.980659 444.658314 
L 122.716484 444.220661 
L 124.188132 437.287568 
L 126.395604 428.178684 
L 128.603077 420.259924 
L 130.074725 415.50199 
L 133.753846 410.857736 
L 138.168791 405.692123 
L 142.583736 400.819407 
L 144.791209 398.522278 
L 152.149451 399.229129 
L 158.771868 395.229213 
L 159.507692 394.80062 
L 162.450989 388.839245 
L 165.394286 383.411282 
L 166.865934 380.869076 
L 169.073407 373.53409 
L 171.280879 366.990589 
L 173.488352 361.084276 
L 175.695824 355.270975 
L 177.903297 349.769571 
L 180.846593 343.133237 
L 181.582418 341.58162 
L 188.940659 344.841544 
L 196.298901 341.708711 
L 203.657143 342.048926 
L 211.015385 340.929191 
L 218.373626 344.440984 
L 222.052747 338.911617 
L 225.731868 333.844106 
L 230.882637 337.845799 
L 241.184176 346.24184 
L 245.599121 350.647629 
L 247.806593 352.976537 
L 253.693187 349.061793 
L 255.164835 348.121318 
L 264.730549 350.243609 
L 269.881319 351.190541 
L 274.296264 355.4728 
L 277.23956 358.505232 
L 283.861978 362.429506 
L 284.597802 362.881617 
L 289.012747 358.19842 
L 291.956044 355.265672 
L 299.314286 358.115012 
L 304.465055 362.09336 
L 306.672527 363.881554 
L 311.087473 359.327283 
L 314.030769 356.47048 
L 318.445714 360.877477 
L 321.389011 364.003886 
L 328.747253 366.408126 
L 336.105495 367.177389 
L 343.463736 370.18608 
L 350.821978 368.745793 
L 355.972747 373.066686 
L 358.18022 375.016987 
L 365.538462 374.57814 
L 372.896703 377.489048 
L 378.783297 373.152049 
L 380.254945 372.114539 
L 382.462418 366.666664 
L 385.405714 360.088821 
L 387.613187 355.584624 
L 390.556484 361.632337 
L 392.763956 366.59953 
L 394.971429 372.009661 
L 397.914725 377.260109 
L 400.858022 383.008024 
L 402.32967 386.099851 
L 409.687912 384.663191 
L 414.838681 380.221819 
L 417.046154 378.413537 
L 424.404396 382.341823 
L 431.762637 380.949965 
L 439.120879 381.519224 
L 442.8 386.29842 
L 446.479121 391.486262 
L 452.365714 395.5887 
L 453.837363 396.65914 
L 458.252308 401.468504 
L 461.931429 405.546295 
L 466.346374 409.573163 
L 468.553846 411.691406 
L 472.968791 407.71474 
L 475.912088 405.201351 
L 483.27033 404.541161 
L 486.949451 400.138303 
L 490.628571 396.03329 
L 497.986813 395.362488 
L 503.137582 399.602171 
L 505.345055 401.513918 
L 508.288352 405.91763 
L 511.231648 410.66595 
L 512.703297 413.187061 
L 517.118242 409.075853 
L 520.061538 406.482007 
L 525.212308 411.003634 
L 527.41978 413.04956 
L 530.363077 417.641471 
L 533.306374 422.609349 
L 534.778022 425.254556 
L 537.721319 420.663397 
L 541.40044 415.373419 
L 542.136264 414.368573 
L 547.287033 410.054966 
L 549.494505 408.296156 
L 552.437802 403.605276 
L 556.116923 398.20955 
L 556.852747 397.185656 
L 564.210989 397.716779 
L 570.833407 401.479854 
L 571.569231 401.912745 
L 574.512527 407.513807 
L 577.455824 413.684662 
L 578.927473 417.022458 
L 584.078242 421.273679 
L 586.285714 423.190899 
L 593.643956 424.669625 
L 601.002198 422.545075 
L 605.417143 427.147803 
L 608.36044 430.422358 
L 615.718681 426.957526 
L 619.397802 421.628576 
L 623.076923 416.729894 
L 631.906813 417.272251 
L 637.793407 417.983148 
L 641.472527 413.601445 
L 645.151648 409.514825 
L 652.50989 412.095671 
L 657.660659 408.200979 
L 659.868132 406.605395 
L 662.075604 415.145519 
L 663.547253 421.589041 
L 665.018901 428.798599 
L 666.490549 436.981224 
L 667.226374 441.527121 
L 673.848791 445.508027 
L 675.32044 446.334145 
L 681.942857 449.743277 
L 684.15033 443.241679 
L 686.357802 437.369521 
L 688.565275 432.015613 
L 689.301099 430.331001 
L 696.659341 427.827268 
L 703.281758 423.860078 
L 704.017582 423.434866 
L 706.960879 428.638587 
L 709.904176 434.330542 
L 711.375824 437.390027 
L 718.734066 440.547077 
L 723.884835 436.383222 
L 726.092308 434.682581 
L 731.243077 438.727489 
L 733.450549 440.547077 
L 740.808791 440.11653 
L 744.487912 434.928258 
L 748.167033 430.148698 
L 752.581978 434.918412 
L 755.525275 438.320023 
L 762.883516 441.527121 
L 762.883516 441.527121 
" style="fill:none;stroke:#2ca02c;stroke-linecap:square;stroke-width:4;"/>
   </g>
   <g id="line2d_39">
    <path clip-path="url(#p2c07effd7d)" d="M 63.850549 408.327915 
L 65.322198 415.846184 
L 66.793846 424.428939 
L 68.265495 434.428126 
L 69.737143 446.405481 
L 71.208791 461.341653 
L 72.68044 453.555727 
L 74.152088 446.655819 
L 76.35956 437.585176 
L 78.567033 429.695321 
L 80.038681 435.881011 
L 81.51033 442.769249 
L 82.981978 450.540316 
L 84.453626 459.454239 
L 85.925275 469.906101 
L 88.132747 460.705973 
L 90.34022 452.718377 
L 92.547692 445.660602 
L 93.283516 443.47928 
L 100.641758 443.47928 
L 102.849231 434.530758 
L 105.056703 426.73342 
L 107.264176 419.824554 
L 108 417.685928 
L 110.207473 410.431999 
L 112.414945 403.953066 
L 114.622418 398.0994 
L 115.358242 396.267228 
L 121.980659 400.338491 
L 122.716484 400.80818 
L 125.65978 406.48817 
L 128.603077 412.754982 
L 132.282198 421.375992 
L 134.48967 427.09585 
L 136.697143 433.411236 
L 137.432967 435.671315 
L 139.64044 429.128844 
L 141.847912 423.223372 
L 144.055385 417.841787 
L 144.791209 416.148962 
L 146.998681 422.124956 
L 149.206154 428.754109 
L 151.413626 436.196919 
L 152.149451 438.895449 
L 156.564396 434.428126 
L 159.507692 431.622686 
L 164.658462 427.643586 
L 166.865934 426.014986 
L 174.224176 422.545075 
L 177.167473 416.453258 
L 180.110769 410.917379 
L 181.582418 408.327915 
L 183.78989 413.549492 
L 185.997363 419.26282 
L 188.204835 425.570245 
L 188.940659 427.827268 
L 190.412308 420.717916 
L 192.61978 411.406672 
L 194.827253 403.335493 
L 196.298901 398.495255 
L 199.242198 392.864198 
L 202.185495 387.711416 
L 203.657143 385.290267 
L 211.015385 387.616488 
L 215.43033 383.491412 
L 218.373626 380.889288 
L 223.524396 384.880852 
L 225.731868 386.675276 
L 229.410989 381.74433 
L 233.09011 377.183987 
L 235.297582 369.962781 
L 237.505055 363.509959 
L 239.712527 357.677612 
L 240.448352 355.851703 
L 242.655824 362.71805 
L 244.863297 370.461257 
L 247.070769 379.338527 
L 247.806593 382.611586 
L 255.164835 384.384177 
L 261.787253 388.140442 
L 263.994725 389.543853 
L 269.881319 393.592482 
L 272.824615 398.608832 
L 275.767912 404.077338 
L 277.23956 407.008147 
L 279.447033 398.0994 
L 281.654505 390.332266 
L 283.861978 383.447117 
L 284.597802 381.315304 
L 291.22022 377.584694 
L 291.956044 377.183987 
L 295.635165 381.959985 
L 299.314286 387.144058 
L 302.257582 392.246834 
L 305.200879 397.818219 
L 306.672527 400.80818 
L 314.030769 396.816616 
L 321.389011 395.722768 
L 323.596484 390.282689 
L 326.53978 383.713375 
L 328.747253 379.214508 
L 333.162198 374.680254 
L 336.105495 371.835266 
L 341.256264 375.801981 
L 344.935385 378.639083 
L 350.086154 382.480705 
L 350.821978 383.049905 
L 353.029451 389.29956 
L 355.236923 396.267228 
L 357.444396 404.13957 
L 358.18022 407.008147 
L 365.538462 411.056775 
L 371.425055 406.747602 
L 372.896703 405.716462 
L 379.519121 409.881989 
L 380.254945 410.362974 
L 382.462418 415.770725 
L 384.66989 421.707725 
L 386.877363 428.28892 
L 387.613187 430.651355 
L 389.084835 419.583174 
L 390.556484 410.225161 
L 392.028132 402.11888 
L 393.49978 394.968635 
L 394.971429 388.572522 
L 402.32967 392.554731 
L 406.008791 397.930536 
L 408.952088 402.602604 
L 409.687912 403.829048 
L 412.631209 399.294793 
L 416.31033 394.06532 
L 417.046154 393.071389 
L 420.725275 398.495255 
L 423.668571 403.212729 
L 424.404396 404.451688 
L 431.762637 406.358869 
L 434.705934 410.917379 
L 437.649231 415.846184 
L 439.120879 418.469254 
L 442.8 413.549492 
L 446.479121 408.998716 
L 453.837363 405.080781 
L 457.516484 410.019025 
L 461.195604 415.394829 
L 463.403077 420.310212 
L 465.610549 425.658933 
L 467.818022 431.524851 
L 468.553846 433.613256 
L 471.497143 439.561345 
L 473.704615 444.439093 
L 475.912088 449.743277 
L 478.855385 443.717814 
L 481.798681 438.236778 
L 483.27033 435.671315 
L 486.213626 440.460723 
L 489.156923 445.660602 
L 490.628571 448.437702 
L 492.10022 437.585176 
L 493.571868 428.381673 
L 495.043516 420.391534 
L 496.515165 413.331774 
L 497.986813 407.008147 
L 505.345055 403.212729 
L 507.552527 408.998716 
L 509.76 415.394829 
L 511.967473 422.545075 
L 512.703297 425.128738 
L 515.646593 429.505907 
L 518.58989 434.223381 
L 520.061538 436.727114 
L 521.533187 422.208748 
L 523.004835 410.501102 
L 524.476484 400.690416 
L 525.948132 392.246834 
L 527.41978 384.835532 
L 533.306374 388.959192 
L 534.778022 390.03541 
L 536.985495 396.761453 
L 539.192967 404.326648 
L 541.40044 412.970637 
L 542.136264 416.148962 
L 548.758681 420.391534 
L 549.494505 420.881767 
L 550.966154 427.643586 
L 552.437802 435.254083 
L 553.909451 443.95729 
L 555.381099 454.120447 
L 556.852747 466.334075 
L 558.324396 451.347959 
L 559.796044 439.338567 
L 561.267692 429.317083 
L 562.739341 420.717916 
L 564.210989 413.187061 
L 566.418462 403.953066 
L 568.625934 395.939966 
L 570.833407 388.862293 
L 571.569231 386.675276 
L 573.776703 394.276659 
L 575.984176 402.967942 
L 577.455824 409.540746 
L 578.927473 416.912581 
L 583.342418 412.041614 
L 586.285714 408.998716 
L 588.493187 417.919867 
L 589.964835 424.690419 
L 591.436484 432.311986 
L 592.908132 441.029677 
L 593.643956 445.907881 
L 595.851429 438.236778 
L 598.058901 431.427173 
L 600.266374 425.304956 
L 601.002198 423.394137 
L 604.681319 427.827268 
L 608.36044 432.609813 
L 610.567912 424.77783 
L 612.775385 417.841787 
L 614.982857 411.617582 
L 615.718681 409.677013 
L 621.605275 405.46139 
L 623.076923 404.451688 
L 625.284396 413.549492 
L 626.756044 420.472965 
L 628.227692 428.28892 
L 629.699341 437.26198 
L 630.435165 442.300468 
L 637.057582 438.236778 
L 637.793407 437.801601 
L 642.944176 441.719536 
L 645.151648 443.47928 
L 647.359121 451.077549 
L 649.566593 459.764761 
L 651.038242 466.334075 
L 652.50989 473.701519 
L 656.924835 478.593313 
L 659.868132 482.088201 
L 662.075604 475.692089 
L 664.283077 469.906101 
L 666.490549 464.623908 
L 667.226374 462.9606 
L 669.433846 455.121526 
L 671.641319 448.179923 
L 673.848791 441.951242 
L 674.584615 440.009368 
L 677.527912 434.428126 
L 680.471209 429.317083 
L 681.942857 426.914365 
L 689.301099 430.651355 
L 696.659341 430.651355 
L 698.130989 437.154629 
L 699.602637 444.439093 
L 701.074286 452.718377 
L 702.545934 462.307831 
L 704.017582 473.701519 
L 706.225055 466.507772 
L 708.432527 460.07688 
L 710.64 454.262451 
L 711.375824 452.441807 
L 715.054945 447.159614 
L 718.734066 442.300468 
L 726.092308 440.009368 
L 730.507253 435.46234 
L 733.450549 432.609813 
L 735.658022 440.234626 
L 737.865495 448.956568 
L 739.337143 455.555665 
L 740.808791 462.9606 
L 743.016264 457.774192 
L 745.95956 451.483617 
L 748.167033 447.159614 
L 750.374505 441.719536 
L 753.317802 435.150222 
L 755.525275 430.651355 
L 758.468571 435.046538 
L 761.411868 439.784943 
L 762.883516 442.300468 
L 762.883516 442.300468 
" style="fill:none;stroke:#d62728;stroke-linecap:square;stroke-width:4;"/>
   </g>
   <g id="line2d_40">
    <path clip-path="url(#p2c07effd7d)" d="M 63.850549 442.300468 
L 69.737143 446.156171 
L 71.208791 447.159614 
L 74.887912 452.441807 
L 77.831209 457.025638 
L 78.567033 458.227795 
L 80.774505 449.743277 
L 82.981978 442.300468 
L 85.189451 435.671315 
L 85.925275 433.613256 
L 90.34022 428.941188 
L 93.283516 426.014986 
L 94.755165 432.809179 
L 96.226813 440.460723 
L 97.698462 449.217673 
L 99.17011 459.454239 
L 100.641758 471.774153 
L 105.056703 467.383789 
L 108.735824 463.786558 
L 113.150769 458.991414 
L 115.358242 456.728782 
L 116.82989 464.28758 
L 118.301538 472.923215 
L 119.773187 482.994292 
L 121.244835 495.075045 
L 122.716484 510.172652 
L 124.188132 502.784806 
L 126.395604 493.156382 
L 128.603077 484.848082 
L 132.282198 472.537773 
L 134.48967 465.988166 
L 136.697143 460.07688 
L 138.168791 456.580897 
L 141.112088 450.406748 
L 144.055385 444.802972 
L 146.998681 439.673041 
L 149.941978 434.943031 
L 152.149451 431.622686 
L 154.356923 438.455541 
L 156.564396 446.156171 
L 158.771868 454.9775 
L 159.507692 458.227795 
L 162.450989 463.953106 
L 165.394286 470.275141 
L 166.865934 473.701519 
L 169.073407 464.455511 
L 171.280879 456.433371 
L 173.488352 449.348648 
L 174.224176 447.159614 
L 181.582418 448.437702 
L 183.054066 455.846826 
L 184.525714 464.28758 
L 185.997363 474.094446 
L 187.469011 485.796647 
L 188.940659 500.306628 
L 190.412308 486.760269 
L 191.883956 475.692089 
L 193.355604 466.334075 
L 194.827253 458.227795 
L 196.298901 451.077549 
L 198.506374 442.067427 
L 200.713846 434.223381 
L 202.921319 427.27788 
L 203.657143 425.128738 
L 208.072088 429.505907 
L 211.015385 432.609813 
L 216.901978 436.727114 
L 218.373626 437.801601 
L 221.316923 442.300468 
L 224.26022 447.159614 
L 225.731868 449.743277 
L 227.939341 444.439093 
L 230.882637 438.018799 
L 233.09011 433.613256 
L 236.033407 428.567605 
L 238.976703 423.909333 
L 240.448352 421.707725 
L 247.806593 420.066897 
L 250.014066 425.128738 
L 252.221538 430.651355 
L 254.429011 436.727114 
L 255.164835 438.895449 
L 256.636484 446.156171 
L 258.108132 454.404789 
L 259.57978 463.953106 
L 261.051429 475.288719 
L 262.523077 489.238447 
L 263.994725 495.63456 
L 265.466374 502.784806 
L 266.938022 510.891086 
L 268.40967 520.249099 
L 269.881319 531.31728 
L 272.088791 522.832762 
L 274.296264 515.389953 
L 276.503736 508.760799 
L 277.23956 506.702741 
L 282.39033 502.155713 
L 284.597802 500.306628 
L 287.541099 505.368469 
L 290.484396 510.891086 
L 291.956044 513.852986 
L 292.691868 498.807615 
L 293.427692 486.760269 
L 294.899341 468.093819 
L 296.370989 453.83743 
L 297.842637 442.300468 
L 299.314286 432.609813 
L 304.465055 436.940495 
L 306.672527 438.895449 
L 311.087473 443.717814 
L 314.030769 447.159614 
L 316.238242 453.978773 
L 318.445714 461.662007 
L 320.653187 470.460506 
L 321.389011 473.701519 
L 323.596484 481.863776 
L 325.068132 487.986714 
L 326.53978 494.79721 
L 328.011429 502.469444 
L 328.747253 506.702741 
L 332.426374 501.843594 
L 336.105495 497.344727 
L 339.784615 501.843594 
L 343.463736 506.702741 
L 344.935385 487.247878 
L 346.407033 472.537773 
L 347.878681 460.705973 
L 349.35033 450.808338 
L 350.821978 442.300468 
L 353.029451 435.986131 
L 355.236923 430.267133 
L 357.444396 425.040821 
L 358.18022 423.394137 
L 360.387692 431.038024 
L 362.595165 439.784943 
L 364.066813 446.405481 
L 365.538462 453.83743 
L 371.425055 449.479906 
L 372.896703 448.437702 
L 377.311648 452.441807 
L 380.254945 455.265894 
L 386.877363 451.483617 
L 387.613187 451.077549 
L 394.235604 454.833815 
L 394.971429 455.265894 
L 399.386374 451.077549 
L 402.32967 448.437702 
L 405.272967 442.534406 
L 408.216264 437.154629 
L 409.687912 434.633564 
L 412.631209 439.338567 
L 415.574505 444.439093 
L 417.046154 447.159614 
L 419.253626 453.555727 
L 421.461099 460.705973 
L 423.668571 468.812253 
L 424.404396 471.774153 
L 426.611868 477.125371 
L 428.819341 482.994292 
L 431.026813 489.491921 
L 431.762637 491.82211 
L 433.234286 480.31561 
L 434.705934 470.646438 
L 436.177582 462.307831 
L 437.649231 454.9775 
L 439.120879 448.437702 
L 441.328352 454.547461 
L 443.535824 461.341653 
L 445.743297 468.993197 
L 447.950769 476.918533 
L 450.158242 485.558113 
L 451.62989 492.086629 
L 453.101538 499.402786 
L 453.837363 503.420486 
L 456.044835 497.056333 
L 458.252308 491.296506 
L 460.45978 486.036122 
L 461.931429 482.994292 
L 464.874725 477.750147 
L 467.818022 472.923215 
L 468.553846 471.774153 
L 471.497143 476.506959 
L 474.44044 481.640178 
L 475.912088 484.3793 
L 480.327033 480.31561 
L 483.27033 477.750147 
L 490.628571 473.701519 
L 492.10022 482.994292 
L 493.571868 493.971252 
L 495.043516 507.381037 
L 495.779341 515.389953 
L 496.515165 524.618389 
L 497.250989 535.505625 
L 497.986813 548.781573 
L 499.458462 540.004492 
L 500.93011 532.337588 
L 502.401758 525.531292 
L 504.609231 516.568765 
L 505.345055 513.852986 
L 506.080879 499.702574 
L 506.816703 488.235004 
L 508.288352 470.275141 
L 509.76 456.433371 
L 511.231648 445.169045 
L 512.703297 435.671315 
L 515.646593 440.460723 
L 518.58989 445.660602 
L 520.061538 448.437702 
L 527.41978 452.441807 
L 529.627253 458.076217 
L 531.834725 464.28758 
L 534.042198 471.207677 
L 534.778022 473.701519 
L 536.24967 465.302204 
L 537.721319 457.925017 
L 539.928791 448.308675 
L 542.136264 440.009368 
L 544.343736 447.159614 
L 546.551209 455.265894 
L 548.022857 461.341653 
L 549.494505 468.093819 
L 556.852747 471.774153 
L 559.06022 462.796749 
L 561.267692 454.9775 
L 563.475165 448.051442 
L 564.210989 445.907881 
L 567.154286 441.14411 
L 570.833407 435.671315 
L 571.569231 434.633564 
L 573.040879 441.835278 
L 574.512527 450.007796 
L 575.984176 459.454239 
L 577.455824 470.646438 
L 578.927473 484.3793 
L 583.342418 488.734652 
L 586.285714 491.82211 
L 588.493187 498.512204 
L 590.700659 506.031939 
L 592.908132 514.616605 
L 593.643956 517.770921 
L 595.851429 525.531292 
L 598.058901 534.431138 
L 599.530549 541.183304 
L 601.002198 548.781573 
L 601.738022 537.153878 
L 603.20967 518.997366 
L 604.681319 505.039433 
L 606.152967 493.698412 
L 607.624615 484.14626 
L 609.832088 471.774153 
L 611.303736 464.623908 
L 613.511209 455.265894 
L 615.718681 447.159614 
L 618.661978 440.915459 
L 621.605275 435.254083 
L 623.076923 432.609813 
L 626.756044 437.801601 
L 629.699341 442.300468 
L 630.435165 443.47928 
L 634.114286 448.437702 
L 637.793407 453.83743 
L 640.000879 460.07688 
L 642.208352 467.031863 
L 644.415824 474.888012 
L 646.623297 483.914111 
L 648.094945 490.775413 
L 649.566593 498.512204 
L 651.038242 507.381037 
L 652.50989 517.770921 
L 653.981538 500.916753 
L 655.453187 487.739434 
L 656.924835 476.918533 
L 658.396484 467.737766 
L 659.868132 459.764761 
L 663.547253 454.547461 
L 667.226374 449.743277 
L 670.905495 454.547461 
L 674.584615 459.764761 
L 677.527912 466.334075 
L 679.735385 471.774153 
L 681.942857 477.750147 
L 684.15033 484.3793 
L 686.357802 491.82211 
L 688.565275 500.306628 
L 689.301099 503.420486 
L 690.772747 496.199279 
L 692.98022 486.760269 
L 695.187692 478.593313 
L 696.659341 473.701519 
L 698.130989 463.953106 
L 699.602637 455.555665 
L 701.074286 448.179923 
L 703.281758 438.56522 
L 704.017582 435.671315 
L 711.375824 432.609813 
L 713.583297 441.604013 
L 715.054945 448.437702 
L 716.526593 456.13939 
L 717.998242 464.962109 
L 718.734066 469.906101 
L 723.884835 473.897665 
L 726.092308 475.692089 
L 729.035604 481.640178 
L 731.243077 486.517926 
L 733.450549 491.82211 
L 735.658022 485.796647 
L 737.865495 480.31561 
L 740.808791 473.701519 
L 745.95956 469.722418 
L 748.167033 468.093819 
L 750.374505 474.888012 
L 752.581978 482.539556 
L 754.789451 491.296506 
L 755.525275 494.52064 
L 757.732747 485.320512 
L 759.94022 477.332916 
L 762.147692 470.275141 
L 762.883516 468.093819 
L 762.883516 468.093819 
" style="fill:none;stroke:#9467bd;stroke-linecap:square;stroke-width:4;"/>
   </g>
   <g id="patch_3">
    <path d="M 108 567 
L 108 77.76 
" style="fill:none;stroke:#000000;stroke-linecap:square;stroke-linejoin:miter;stroke-width:0.8;"/>
   </g>
   <g id="patch_4">
    <path d="M 108 567 
L 777.6 567 
" style="fill:none;stroke:#000000;stroke-linecap:square;stroke-linejoin:miter;stroke-width:0.8;"/>
   </g>
   <g id="legend_1">
    <g id="patch_5">
     <path d="M 577.8 297.514688 
L 758.7 297.514688 
Q 764.1 297.514688 764.1 292.114688 
L 764.1 96.66 
Q 764.1 91.26 758.7 91.26 
L 577.8 91.26 
Q 572.4 91.26 572.4 96.66 
L 572.4 292.114688 
Q 572.4 297.514688 577.8 297.514688 
z
" style="fill:#ffffff;opacity:0.8;stroke:#cccccc;stroke-linejoin:miter;"/>
    </g>
    <g id="line2d_41">
     <path d="M 583.2 113.125781 
L 637.2 113.125781 
" style="fill:none;stroke:#1f77b4;stroke-linecap:square;stroke-width:4;"/>
    </g>
    <g id="line2d_42"/>
    <g id="text_12">
     <!-- Zone 1 -->
     <g transform="translate(658.8 122.575781)scale(0.27 -0.27)">
      <defs>
       <path d="M 5.609375 72.90625 
L 62.890625 72.90625 
L 62.890625 65.375 
L 16.796875 8.296875 
L 64.015625 8.296875 
L 64.015625 0 
L 4.5 0 
L 4.5 7.515625 
L 50.59375 64.59375 
L 5.609375 64.59375 
z
" id="DejaVuSans-90"/>
      </defs>
      <use xlink:href="#DejaVuSans-90"/>
      <use x="68.505859" xlink:href="#DejaVuSans-111"/>
      <use x="129.6875" xlink:href="#DejaVuSans-110"/>
      <use x="193.066406" xlink:href="#DejaVuSans-101"/>
      <use x="254.589844" xlink:href="#DejaVuSans-32"/>
      <use x="286.376953" xlink:href="#DejaVuSans-49"/>
     </g>
    </g>
    <g id="line2d_43">
     <path d="M 583.2 152.756719 
L 637.2 152.756719 
" style="fill:none;stroke:#ff7f0e;stroke-linecap:square;stroke-width:4;"/>
    </g>
    <g id="line2d_44"/>
    <g id="text_13">
     <!-- Zone 2 -->
     <g transform="translate(658.8 162.206719)scale(0.27 -0.27)">
      <use xlink:href="#DejaVuSans-90"/>
      <use x="68.505859" xlink:href="#DejaVuSans-111"/>
      <use x="129.6875" xlink:href="#DejaVuSans-110"/>
      <use x="193.066406" xlink:href="#DejaVuSans-101"/>
      <use x="254.589844" xlink:href="#DejaVuSans-32"/>
      <use x="286.376953" xlink:href="#DejaVuSans-50"/>
     </g>
    </g>
    <g id="line2d_45">
     <path d="M 583.2 192.387656 
L 637.2 192.387656 
" style="fill:none;stroke:#2ca02c;stroke-linecap:square;stroke-width:4;"/>
    </g>
    <g id="line2d_46"/>
    <g id="text_14">
     <!-- Zone 3 -->
     <g transform="translate(658.8 201.837656)scale(0.27 -0.27)">
      <defs>
       <path d="M 40.578125 39.3125 
Q 47.65625 37.796875 51.625 33 
Q 55.609375 28.21875 55.609375 21.1875 
Q 55.609375 10.40625 48.1875 4.484375 
Q 40.765625 -1.421875 27.09375 -1.421875 
Q 22.515625 -1.421875 17.65625 -0.515625 
Q 12.796875 0.390625 7.625 2.203125 
L 7.625 11.71875 
Q 11.71875 9.328125 16.59375 8.109375 
Q 21.484375 6.890625 26.8125 6.890625 
Q 36.078125 6.890625 40.9375 10.546875 
Q 45.796875 14.203125 45.796875 21.1875 
Q 45.796875 27.640625 41.28125 31.265625 
Q 36.765625 34.90625 28.71875 34.90625 
L 20.21875 34.90625 
L 20.21875 43.015625 
L 29.109375 43.015625 
Q 36.375 43.015625 40.234375 45.921875 
Q 44.09375 48.828125 44.09375 54.296875 
Q 44.09375 59.90625 40.109375 62.90625 
Q 36.140625 65.921875 28.71875 65.921875 
Q 24.65625 65.921875 20.015625 65.03125 
Q 15.375 64.15625 9.8125 62.3125 
L 9.8125 71.09375 
Q 15.4375 72.65625 20.34375 73.4375 
Q 25.25 74.21875 29.59375 74.21875 
Q 40.828125 74.21875 47.359375 69.109375 
Q 53.90625 64.015625 53.90625 55.328125 
Q 53.90625 49.265625 50.4375 45.09375 
Q 46.96875 40.921875 40.578125 39.3125 
z
" id="DejaVuSans-51"/>
      </defs>
      <use xlink:href="#DejaVuSans-90"/>
      <use x="68.505859" xlink:href="#DejaVuSans-111"/>
      <use x="129.6875" xlink:href="#DejaVuSans-110"/>
      <use x="193.066406" xlink:href="#DejaVuSans-101"/>
      <use x="254.589844" xlink:href="#DejaVuSans-32"/>
      <use x="286.376953" xlink:href="#DejaVuSans-51"/>
     </g>
    </g>
    <g id="line2d_47">
     <path d="M 583.2 232.018594 
L 637.2 232.018594 
" style="fill:none;stroke:#d62728;stroke-linecap:square;stroke-width:4;"/>
    </g>
    <g id="line2d_48"/>
    <g id="text_15">
     <!-- Zone 4 -->
     <g transform="translate(658.8 241.468594)scale(0.27 -0.27)">
      <use xlink:href="#DejaVuSans-90"/>
      <use x="68.505859" xlink:href="#DejaVuSans-111"/>
      <use x="129.6875" xlink:href="#DejaVuSans-110"/>
      <use x="193.066406" xlink:href="#DejaVuSans-101"/>
      <use x="254.589844" xlink:href="#DejaVuSans-32"/>
      <use x="286.376953" xlink:href="#DejaVuSans-52"/>
     </g>
    </g>
    <g id="line2d_49">
     <path d="M 583.2 271.649531 
L 637.2 271.649531 
" style="fill:none;stroke:#9467bd;stroke-linecap:square;stroke-width:4;"/>
    </g>
    <g id="line2d_50"/>
    <g id="text_16">
     <!-- Zone 5 -->
     <g transform="translate(658.8 281.099531)scale(0.27 -0.27)">
      <defs>
       <path d="M 10.796875 72.90625 
L 49.515625 72.90625 
L 49.515625 64.59375 
L 19.828125 64.59375 
L 19.828125 46.734375 
Q 21.96875 47.46875 24.109375 47.828125 
Q 26.265625 48.1875 28.421875 48.1875 
Q 40.625 48.1875 47.75 41.5 
Q 54.890625 34.8125 54.890625 23.390625 
Q 54.890625 11.625 47.5625 5.09375 
Q 40.234375 -1.421875 26.90625 -1.421875 
Q 22.3125 -1.421875 17.546875 -0.640625 
Q 12.796875 0.140625 7.71875 1.703125 
L 7.71875 11.625 
Q 12.109375 9.234375 16.796875 8.0625 
Q 21.484375 6.890625 26.703125 6.890625 
Q 35.15625 6.890625 40.078125 11.328125 
Q 45.015625 15.765625 45.015625 23.390625 
Q 45.015625 31 40.078125 35.4375 
Q 35.15625 39.890625 26.703125 39.890625 
Q 22.75 39.890625 18.8125 39.015625 
Q 14.890625 38.140625 10.796875 36.28125 
z
" id="DejaVuSans-53"/>
      </defs>
      <use xlink:href="#DejaVuSans-90"/>
      <use x="68.505859" xlink:href="#DejaVuSans-111"/>
      <use x="129.6875" xlink:href="#DejaVuSans-110"/>
      <use x="193.066406" xlink:href="#DejaVuSans-101"/>
      <use x="254.589844" xlink:href="#DejaVuSans-32"/>
      <use x="286.376953" xlink:href="#DejaVuSans-53"/>
     </g>
    </g>
   </g>
  </g>
 </g>
 <defs>
  <clipPath id="p2c07effd7d">
   <rect height="489.24" width="669.6" x="108" y="77.76"/>
  </clipPath>
 </defs>
</svg>
