<?xml version="1.0" encoding="utf-8" standalone="no"?>
<!DOCTYPE svg PUBLIC "-//W3C//DTD SVG 1.1//EN"
  "http://www.w3.org/Graphics/SVG/1.1/DTD/svg11.dtd">
<!-- Created with matplotlib (https://matplotlib.org/) -->
<svg height="648pt" version="1.1" viewBox="0 0 864 648" width="864pt" xmlns="http://www.w3.org/2000/svg" xmlns:xlink="http://www.w3.org/1999/xlink">
 <metadata>
  <rdf:RDF xmlns:cc="http://creativecommons.org/ns#" xmlns:dc="http://purl.org/dc/elements/1.1/" xmlns:rdf="http://www.w3.org/1999/02/22-rdf-syntax-ns#">
   <cc:Work>
    <dc:type rdf:resource="http://purl.org/dc/dcmitype/StillImage"/>
    <dc:date>2021-06-28T10:33:24.372420</dc:date>
    <dc:format>image/svg+xml</dc:format>
    <dc:creator>
     <cc:Agent>
      <dc:title>Matplotlib v3.3.2, https://matplotlib.org/</dc:title>
     </cc:Agent>
    </dc:creator>
   </cc:Work>
  </rdf:RDF>
 </metadata>
 <defs>
  <style type="text/css">*{stroke-linecap:butt;stroke-linejoin:round;}</style>
 </defs>
 <g id="figure_1">
  <g id="patch_1">
   <path d="M 0 648 
L 864 648 
L 864 0 
L 0 0 
z
" style="fill:none;"/>
  </g>
  <g id="axes_1">
   <g id="patch_2">
    <path d="M 108 567 
L 777.6 567 
L 777.6 77.76 
L 108 77.76 
z
" style="fill:#ffffff;"/>
   </g>
   <g id="matplotlib.axis_1">
    <g id="xtick_1">
     <g id="line2d_1">
      <defs>
       <path d="M 0 0 
L 0 3.5 
" id="m0a6b3b7ae3" style="stroke:#000000;stroke-width:0.8;"/>
      </defs>
      <g>
       <use style="stroke:#000000;stroke-width:0.8;" x="115.358242" xlink:href="#m0a6b3b7ae3" y="567"/>
      </g>
     </g>
     <g id="text_1">
      <!-- 0 -->
      <g transform="translate(106.768867 594.515781)scale(0.27 -0.27)">
       <defs>
        <path d="M 31.78125 66.40625 
Q 24.171875 66.40625 20.328125 58.90625 
Q 16.5 51.421875 16.5 36.375 
Q 16.5 21.390625 20.328125 13.890625 
Q 24.171875 6.390625 31.78125 6.390625 
Q 39.453125 6.390625 43.28125 13.890625 
Q 47.125 21.390625 47.125 36.375 
Q 47.125 51.421875 43.28125 58.90625 
Q 39.453125 66.40625 31.78125 66.40625 
z
M 31.78125 74.21875 
Q 44.046875 74.21875 50.515625 64.515625 
Q 56.984375 54.828125 56.984375 36.375 
Q 56.984375 17.96875 50.515625 8.265625 
Q 44.046875 -1.421875 31.78125 -1.421875 
Q 19.53125 -1.421875 13.0625 8.265625 
Q 6.59375 17.96875 6.59375 36.375 
Q 6.59375 54.828125 13.0625 64.515625 
Q 19.53125 74.21875 31.78125 74.21875 
z
" id="DejaVuSans-48"/>
       </defs>
       <use xlink:href="#DejaVuSans-48"/>
      </g>
     </g>
    </g>
    <g id="xtick_2">
     <g id="line2d_2">
      <g>
       <use style="stroke:#000000;stroke-width:0.8;" x="262.523077" xlink:href="#m0a6b3b7ae3" y="567"/>
      </g>
     </g>
     <g id="text_2">
      <!-- 200 -->
      <g transform="translate(236.754952 594.515781)scale(0.27 -0.27)">
       <defs>
        <path d="M 19.1875 8.296875 
L 53.609375 8.296875 
L 53.609375 0 
L 7.328125 0 
L 7.328125 8.296875 
Q 12.9375 14.109375 22.625 23.890625 
Q 32.328125 33.6875 34.8125 36.53125 
Q 39.546875 41.84375 41.421875 45.53125 
Q 43.3125 49.21875 43.3125 52.78125 
Q 43.3125 58.59375 39.234375 62.25 
Q 35.15625 65.921875 28.609375 65.921875 
Q 23.96875 65.921875 18.8125 64.3125 
Q 13.671875 62.703125 7.8125 59.421875 
L 7.8125 69.390625 
Q 13.765625 71.78125 18.9375 73 
Q 24.125 74.21875 28.421875 74.21875 
Q 39.75 74.21875 46.484375 68.546875 
Q 53.21875 62.890625 53.21875 53.421875 
Q 53.21875 48.921875 51.53125 44.890625 
Q 49.859375 40.875 45.40625 35.40625 
Q 44.1875 33.984375 37.640625 27.21875 
Q 31.109375 20.453125 19.1875 8.296875 
z
" id="DejaVuSans-50"/>
       </defs>
       <use xlink:href="#DejaVuSans-50"/>
       <use x="63.623047" xlink:href="#DejaVuSans-48"/>
       <use x="127.246094" xlink:href="#DejaVuSans-48"/>
      </g>
     </g>
    </g>
    <g id="xtick_3">
     <g id="line2d_3">
      <g>
       <use style="stroke:#000000;stroke-width:0.8;" x="409.687912" xlink:href="#m0a6b3b7ae3" y="567"/>
      </g>
     </g>
     <g id="text_3">
      <!-- 400 -->
      <g transform="translate(383.919787 594.515781)scale(0.27 -0.27)">
       <defs>
        <path d="M 37.796875 64.3125 
L 12.890625 25.390625 
L 37.796875 25.390625 
z
M 35.203125 72.90625 
L 47.609375 72.90625 
L 47.609375 25.390625 
L 58.015625 25.390625 
L 58.015625 17.1875 
L 47.609375 17.1875 
L 47.609375 0 
L 37.796875 0 
L 37.796875 17.1875 
L 4.890625 17.1875 
L 4.890625 26.703125 
z
" id="DejaVuSans-52"/>
       </defs>
       <use xlink:href="#DejaVuSans-52"/>
       <use x="63.623047" xlink:href="#DejaVuSans-48"/>
       <use x="127.246094" xlink:href="#DejaVuSans-48"/>
      </g>
     </g>
    </g>
    <g id="xtick_4">
     <g id="line2d_4">
      <g>
       <use style="stroke:#000000;stroke-width:0.8;" x="556.852747" xlink:href="#m0a6b3b7ae3" y="567"/>
      </g>
     </g>
     <g id="text_4">
      <!-- 600 -->
      <g transform="translate(531.084622 594.515781)scale(0.27 -0.27)">
       <defs>
        <path d="M 33.015625 40.375 
Q 26.375 40.375 22.484375 35.828125 
Q 18.609375 31.296875 18.609375 23.390625 
Q 18.609375 15.53125 22.484375 10.953125 
Q 26.375 6.390625 33.015625 6.390625 
Q 39.65625 6.390625 43.53125 10.953125 
Q 47.40625 15.53125 47.40625 23.390625 
Q 47.40625 31.296875 43.53125 35.828125 
Q 39.65625 40.375 33.015625 40.375 
z
M 52.59375 71.296875 
L 52.59375 62.3125 
Q 48.875 64.0625 45.09375 64.984375 
Q 41.3125 65.921875 37.59375 65.921875 
Q 27.828125 65.921875 22.671875 59.328125 
Q 17.53125 52.734375 16.796875 39.40625 
Q 19.671875 43.65625 24.015625 45.921875 
Q 28.375 48.1875 33.59375 48.1875 
Q 44.578125 48.1875 50.953125 41.515625 
Q 57.328125 34.859375 57.328125 23.390625 
Q 57.328125 12.15625 50.6875 5.359375 
Q 44.046875 -1.421875 33.015625 -1.421875 
Q 20.359375 -1.421875 13.671875 8.265625 
Q 6.984375 17.96875 6.984375 36.375 
Q 6.984375 53.65625 15.1875 63.9375 
Q 23.390625 74.21875 37.203125 74.21875 
Q 40.921875 74.21875 44.703125 73.484375 
Q 48.484375 72.75 52.59375 71.296875 
z
" id="DejaVuSans-54"/>
       </defs>
       <use xlink:href="#DejaVuSans-54"/>
       <use x="63.623047" xlink:href="#DejaVuSans-48"/>
       <use x="127.246094" xlink:href="#DejaVuSans-48"/>
      </g>
     </g>
    </g>
    <g id="xtick_5">
     <g id="line2d_5">
      <g>
       <use style="stroke:#000000;stroke-width:0.8;" x="704.017582" xlink:href="#m0a6b3b7ae3" y="567"/>
      </g>
     </g>
     <g id="text_5">
      <!-- 800 -->
      <g transform="translate(678.249457 594.515781)scale(0.27 -0.27)">
       <defs>
        <path d="M 31.78125 34.625 
Q 24.75 34.625 20.71875 30.859375 
Q 16.703125 27.09375 16.703125 20.515625 
Q 16.703125 13.921875 20.71875 10.15625 
Q 24.75 6.390625 31.78125 6.390625 
Q 38.8125 6.390625 42.859375 10.171875 
Q 46.921875 13.96875 46.921875 20.515625 
Q 46.921875 27.09375 42.890625 30.859375 
Q 38.875 34.625 31.78125 34.625 
z
M 21.921875 38.8125 
Q 15.578125 40.375 12.03125 44.71875 
Q 8.5 49.078125 8.5 55.328125 
Q 8.5 64.0625 14.71875 69.140625 
Q 20.953125 74.21875 31.78125 74.21875 
Q 42.671875 74.21875 48.875 69.140625 
Q 55.078125 64.0625 55.078125 55.328125 
Q 55.078125 49.078125 51.53125 44.71875 
Q 48 40.375 41.703125 38.8125 
Q 48.828125 37.15625 52.796875 32.3125 
Q 56.78125 27.484375 56.78125 20.515625 
Q 56.78125 9.90625 50.3125 4.234375 
Q 43.84375 -1.421875 31.78125 -1.421875 
Q 19.734375 -1.421875 13.25 4.234375 
Q 6.78125 9.90625 6.78125 20.515625 
Q 6.78125 27.484375 10.78125 32.3125 
Q 14.796875 37.15625 21.921875 38.8125 
z
M 18.3125 54.390625 
Q 18.3125 48.734375 21.84375 45.5625 
Q 25.390625 42.390625 31.78125 42.390625 
Q 38.140625 42.390625 41.71875 45.5625 
Q 45.3125 48.734375 45.3125 54.390625 
Q 45.3125 60.0625 41.71875 63.234375 
Q 38.140625 66.40625 31.78125 66.40625 
Q 25.390625 66.40625 21.84375 63.234375 
Q 18.3125 60.0625 18.3125 54.390625 
z
" id="DejaVuSans-56"/>
       </defs>
       <use xlink:href="#DejaVuSans-56"/>
       <use x="63.623047" xlink:href="#DejaVuSans-48"/>
       <use x="127.246094" xlink:href="#DejaVuSans-48"/>
      </g>
     </g>
    </g>
    <g id="text_6">
     <!-- Elapsed Time (Seconds) -->
     <g transform="translate(280.90125 624.646719)scale(0.27 -0.27)">
      <defs>
       <path d="M 9.8125 72.90625 
L 55.90625 72.90625 
L 55.90625 64.59375 
L 19.671875 64.59375 
L 19.671875 43.015625 
L 54.390625 43.015625 
L 54.390625 34.71875 
L 19.671875 34.71875 
L 19.671875 8.296875 
L 56.78125 8.296875 
L 56.78125 0 
L 9.8125 0 
z
" id="DejaVuSans-69"/>
       <path d="M 9.421875 75.984375 
L 18.40625 75.984375 
L 18.40625 0 
L 9.421875 0 
z
" id="DejaVuSans-108"/>
       <path d="M 34.28125 27.484375 
Q 23.390625 27.484375 19.1875 25 
Q 14.984375 22.515625 14.984375 16.5 
Q 14.984375 11.71875 18.140625 8.90625 
Q 21.296875 6.109375 26.703125 6.109375 
Q 34.1875 6.109375 38.703125 11.40625 
Q 43.21875 16.703125 43.21875 25.484375 
L 43.21875 27.484375 
z
M 52.203125 31.203125 
L 52.203125 0 
L 43.21875 0 
L 43.21875 8.296875 
Q 40.140625 3.328125 35.546875 0.953125 
Q 30.953125 -1.421875 24.3125 -1.421875 
Q 15.921875 -1.421875 10.953125 3.296875 
Q 6 8.015625 6 15.921875 
Q 6 25.140625 12.171875 29.828125 
Q 18.359375 34.515625 30.609375 34.515625 
L 43.21875 34.515625 
L 43.21875 35.40625 
Q 43.21875 41.609375 39.140625 45 
Q 35.0625 48.390625 27.6875 48.390625 
Q 23 48.390625 18.546875 47.265625 
Q 14.109375 46.140625 10.015625 43.890625 
L 10.015625 52.203125 
Q 14.9375 54.109375 19.578125 55.046875 
Q 24.21875 56 28.609375 56 
Q 40.484375 56 46.34375 49.84375 
Q 52.203125 43.703125 52.203125 31.203125 
z
" id="DejaVuSans-97"/>
       <path d="M 18.109375 8.203125 
L 18.109375 -20.796875 
L 9.078125 -20.796875 
L 9.078125 54.6875 
L 18.109375 54.6875 
L 18.109375 46.390625 
Q 20.953125 51.265625 25.265625 53.625 
Q 29.59375 56 35.59375 56 
Q 45.5625 56 51.78125 48.09375 
Q 58.015625 40.1875 58.015625 27.296875 
Q 58.015625 14.40625 51.78125 6.484375 
Q 45.5625 -1.421875 35.59375 -1.421875 
Q 29.59375 -1.421875 25.265625 0.953125 
Q 20.953125 3.328125 18.109375 8.203125 
z
M 48.6875 27.296875 
Q 48.6875 37.203125 44.609375 42.84375 
Q 40.53125 48.484375 33.40625 48.484375 
Q 26.265625 48.484375 22.1875 42.84375 
Q 18.109375 37.203125 18.109375 27.296875 
Q 18.109375 17.390625 22.1875 11.75 
Q 26.265625 6.109375 33.40625 6.109375 
Q 40.53125 6.109375 44.609375 11.75 
Q 48.6875 17.390625 48.6875 27.296875 
z
" id="DejaVuSans-112"/>
       <path d="M 44.28125 53.078125 
L 44.28125 44.578125 
Q 40.484375 46.53125 36.375 47.5 
Q 32.28125 48.484375 27.875 48.484375 
Q 21.1875 48.484375 17.84375 46.4375 
Q 14.5 44.390625 14.5 40.28125 
Q 14.5 37.15625 16.890625 35.375 
Q 19.28125 33.59375 26.515625 31.984375 
L 29.59375 31.296875 
Q 39.15625 29.25 43.1875 25.515625 
Q 47.21875 21.78125 47.21875 15.09375 
Q 47.21875 7.46875 41.1875 3.015625 
Q 35.15625 -1.421875 24.609375 -1.421875 
Q 20.21875 -1.421875 15.453125 -0.5625 
Q 10.6875 0.296875 5.421875 2 
L 5.421875 11.28125 
Q 10.40625 8.6875 15.234375 7.390625 
Q 20.0625 6.109375 24.8125 6.109375 
Q 31.15625 6.109375 34.5625 8.28125 
Q 37.984375 10.453125 37.984375 14.40625 
Q 37.984375 18.0625 35.515625 20.015625 
Q 33.0625 21.96875 24.703125 23.78125 
L 21.578125 24.515625 
Q 13.234375 26.265625 9.515625 29.90625 
Q 5.8125 33.546875 5.8125 39.890625 
Q 5.8125 47.609375 11.28125 51.796875 
Q 16.75 56 26.8125 56 
Q 31.78125 56 36.171875 55.265625 
Q 40.578125 54.546875 44.28125 53.078125 
z
" id="DejaVuSans-115"/>
       <path d="M 56.203125 29.59375 
L 56.203125 25.203125 
L 14.890625 25.203125 
Q 15.484375 15.921875 20.484375 11.0625 
Q 25.484375 6.203125 34.421875 6.203125 
Q 39.59375 6.203125 44.453125 7.46875 
Q 49.3125 8.734375 54.109375 11.28125 
L 54.109375 2.78125 
Q 49.265625 0.734375 44.1875 -0.34375 
Q 39.109375 -1.421875 33.890625 -1.421875 
Q 20.796875 -1.421875 13.15625 6.1875 
Q 5.515625 13.8125 5.515625 26.8125 
Q 5.515625 40.234375 12.765625 48.109375 
Q 20.015625 56 32.328125 56 
Q 43.359375 56 49.78125 48.890625 
Q 56.203125 41.796875 56.203125 29.59375 
z
M 47.21875 32.234375 
Q 47.125 39.59375 43.09375 43.984375 
Q 39.0625 48.390625 32.421875 48.390625 
Q 24.90625 48.390625 20.390625 44.140625 
Q 15.875 39.890625 15.1875 32.171875 
z
" id="DejaVuSans-101"/>
       <path d="M 45.40625 46.390625 
L 45.40625 75.984375 
L 54.390625 75.984375 
L 54.390625 0 
L 45.40625 0 
L 45.40625 8.203125 
Q 42.578125 3.328125 38.25 0.953125 
Q 33.9375 -1.421875 27.875 -1.421875 
Q 17.96875 -1.421875 11.734375 6.484375 
Q 5.515625 14.40625 5.515625 27.296875 
Q 5.515625 40.1875 11.734375 48.09375 
Q 17.96875 56 27.875 56 
Q 33.9375 56 38.25 53.625 
Q 42.578125 51.265625 45.40625 46.390625 
z
M 14.796875 27.296875 
Q 14.796875 17.390625 18.875 11.75 
Q 22.953125 6.109375 30.078125 6.109375 
Q 37.203125 6.109375 41.296875 11.75 
Q 45.40625 17.390625 45.40625 27.296875 
Q 45.40625 37.203125 41.296875 42.84375 
Q 37.203125 48.484375 30.078125 48.484375 
Q 22.953125 48.484375 18.875 42.84375 
Q 14.796875 37.203125 14.796875 27.296875 
z
" id="DejaVuSans-100"/>
       <path id="DejaVuSans-32"/>
       <path d="M -0.296875 72.90625 
L 61.375 72.90625 
L 61.375 64.59375 
L 35.5 64.59375 
L 35.5 0 
L 25.59375 0 
L 25.59375 64.59375 
L -0.296875 64.59375 
z
" id="DejaVuSans-84"/>
       <path d="M 9.421875 54.6875 
L 18.40625 54.6875 
L 18.40625 0 
L 9.421875 0 
z
M 9.421875 75.984375 
L 18.40625 75.984375 
L 18.40625 64.59375 
L 9.421875 64.59375 
z
" id="DejaVuSans-105"/>
       <path d="M 52 44.1875 
Q 55.375 50.25 60.0625 53.125 
Q 64.75 56 71.09375 56 
Q 79.640625 56 84.28125 50.015625 
Q 88.921875 44.046875 88.921875 33.015625 
L 88.921875 0 
L 79.890625 0 
L 79.890625 32.71875 
Q 79.890625 40.578125 77.09375 44.375 
Q 74.3125 48.1875 68.609375 48.1875 
Q 61.625 48.1875 57.5625 43.546875 
Q 53.515625 38.921875 53.515625 30.90625 
L 53.515625 0 
L 44.484375 0 
L 44.484375 32.71875 
Q 44.484375 40.625 41.703125 44.40625 
Q 38.921875 48.1875 33.109375 48.1875 
Q 26.21875 48.1875 22.15625 43.53125 
Q 18.109375 38.875 18.109375 30.90625 
L 18.109375 0 
L 9.078125 0 
L 9.078125 54.6875 
L 18.109375 54.6875 
L 18.109375 46.1875 
Q 21.1875 51.21875 25.484375 53.609375 
Q 29.78125 56 35.6875 56 
Q 41.65625 56 45.828125 52.96875 
Q 50 49.953125 52 44.1875 
z
" id="DejaVuSans-109"/>
       <path d="M 31 75.875 
Q 24.46875 64.65625 21.28125 53.65625 
Q 18.109375 42.671875 18.109375 31.390625 
Q 18.109375 20.125 21.3125 9.0625 
Q 24.515625 -2 31 -13.1875 
L 23.1875 -13.1875 
Q 15.875 -1.703125 12.234375 9.375 
Q 8.59375 20.453125 8.59375 31.390625 
Q 8.59375 42.28125 12.203125 53.3125 
Q 15.828125 64.359375 23.1875 75.875 
z
" id="DejaVuSans-40"/>
       <path d="M 53.515625 70.515625 
L 53.515625 60.890625 
Q 47.90625 63.578125 42.921875 64.890625 
Q 37.9375 66.21875 33.296875 66.21875 
Q 25.25 66.21875 20.875 63.09375 
Q 16.5 59.96875 16.5 54.203125 
Q 16.5 49.359375 19.40625 46.890625 
Q 22.3125 44.4375 30.421875 42.921875 
L 36.375 41.703125 
Q 47.40625 39.59375 52.65625 34.296875 
Q 57.90625 29 57.90625 20.125 
Q 57.90625 9.515625 50.796875 4.046875 
Q 43.703125 -1.421875 29.984375 -1.421875 
Q 24.8125 -1.421875 18.96875 -0.25 
Q 13.140625 0.921875 6.890625 3.21875 
L 6.890625 13.375 
Q 12.890625 10.015625 18.65625 8.296875 
Q 24.421875 6.59375 29.984375 6.59375 
Q 38.421875 6.59375 43.015625 9.90625 
Q 47.609375 13.234375 47.609375 19.390625 
Q 47.609375 24.75 44.3125 27.78125 
Q 41.015625 30.8125 33.5 32.328125 
L 27.484375 33.5 
Q 16.453125 35.6875 11.515625 40.375 
Q 6.59375 45.0625 6.59375 53.421875 
Q 6.59375 63.09375 13.40625 68.65625 
Q 20.21875 74.21875 32.171875 74.21875 
Q 37.3125 74.21875 42.625 73.28125 
Q 47.953125 72.359375 53.515625 70.515625 
z
" id="DejaVuSans-83"/>
       <path d="M 48.78125 52.59375 
L 48.78125 44.1875 
Q 44.96875 46.296875 41.140625 47.34375 
Q 37.3125 48.390625 33.40625 48.390625 
Q 24.65625 48.390625 19.8125 42.84375 
Q 14.984375 37.3125 14.984375 27.296875 
Q 14.984375 17.28125 19.8125 11.734375 
Q 24.65625 6.203125 33.40625 6.203125 
Q 37.3125 6.203125 41.140625 7.25 
Q 44.96875 8.296875 48.78125 10.40625 
L 48.78125 2.09375 
Q 45.015625 0.34375 40.984375 -0.53125 
Q 36.96875 -1.421875 32.421875 -1.421875 
Q 20.0625 -1.421875 12.78125 6.34375 
Q 5.515625 14.109375 5.515625 27.296875 
Q 5.515625 40.671875 12.859375 48.328125 
Q 20.21875 56 33.015625 56 
Q 37.15625 56 41.109375 55.140625 
Q 45.0625 54.296875 48.78125 52.59375 
z
" id="DejaVuSans-99"/>
       <path d="M 30.609375 48.390625 
Q 23.390625 48.390625 19.1875 42.75 
Q 14.984375 37.109375 14.984375 27.296875 
Q 14.984375 17.484375 19.15625 11.84375 
Q 23.34375 6.203125 30.609375 6.203125 
Q 37.796875 6.203125 41.984375 11.859375 
Q 46.1875 17.53125 46.1875 27.296875 
Q 46.1875 37.015625 41.984375 42.703125 
Q 37.796875 48.390625 30.609375 48.390625 
z
M 30.609375 56 
Q 42.328125 56 49.015625 48.375 
Q 55.71875 40.765625 55.71875 27.296875 
Q 55.71875 13.875 49.015625 6.21875 
Q 42.328125 -1.421875 30.609375 -1.421875 
Q 18.84375 -1.421875 12.171875 6.21875 
Q 5.515625 13.875 5.515625 27.296875 
Q 5.515625 40.765625 12.171875 48.375 
Q 18.84375 56 30.609375 56 
z
" id="DejaVuSans-111"/>
       <path d="M 54.890625 33.015625 
L 54.890625 0 
L 45.90625 0 
L 45.90625 32.71875 
Q 45.90625 40.484375 42.875 44.328125 
Q 39.84375 48.1875 33.796875 48.1875 
Q 26.515625 48.1875 22.3125 43.546875 
Q 18.109375 38.921875 18.109375 30.90625 
L 18.109375 0 
L 9.078125 0 
L 9.078125 54.6875 
L 18.109375 54.6875 
L 18.109375 46.1875 
Q 21.34375 51.125 25.703125 53.5625 
Q 30.078125 56 35.796875 56 
Q 45.21875 56 50.046875 50.171875 
Q 54.890625 44.34375 54.890625 33.015625 
z
" id="DejaVuSans-110"/>
       <path d="M 8.015625 75.875 
L 15.828125 75.875 
Q 23.140625 64.359375 26.78125 53.3125 
Q 30.421875 42.28125 30.421875 31.390625 
Q 30.421875 20.453125 26.78125 9.375 
Q 23.140625 -1.703125 15.828125 -13.1875 
L 8.015625 -13.1875 
Q 14.5 -2 17.703125 9.0625 
Q 20.90625 20.125 20.90625 31.390625 
Q 20.90625 42.671875 17.703125 53.65625 
Q 14.5 64.65625 8.015625 75.875 
z
" id="DejaVuSans-41"/>
      </defs>
      <use xlink:href="#DejaVuSans-69"/>
      <use x="63.183594" xlink:href="#DejaVuSans-108"/>
      <use x="90.966797" xlink:href="#DejaVuSans-97"/>
      <use x="152.246094" xlink:href="#DejaVuSans-112"/>
      <use x="215.722656" xlink:href="#DejaVuSans-115"/>
      <use x="267.822266" xlink:href="#DejaVuSans-101"/>
      <use x="329.345703" xlink:href="#DejaVuSans-100"/>
      <use x="392.822266" xlink:href="#DejaVuSans-32"/>
      <use x="424.609375" xlink:href="#DejaVuSans-84"/>
      <use x="482.568359" xlink:href="#DejaVuSans-105"/>
      <use x="510.351562" xlink:href="#DejaVuSans-109"/>
      <use x="607.763672" xlink:href="#DejaVuSans-101"/>
      <use x="669.287109" xlink:href="#DejaVuSans-32"/>
      <use x="701.074219" xlink:href="#DejaVuSans-40"/>
      <use x="740.087891" xlink:href="#DejaVuSans-83"/>
      <use x="803.564453" xlink:href="#DejaVuSans-101"/>
      <use x="865.087891" xlink:href="#DejaVuSans-99"/>
      <use x="920.068359" xlink:href="#DejaVuSans-111"/>
      <use x="981.25" xlink:href="#DejaVuSans-110"/>
      <use x="1044.628906" xlink:href="#DejaVuSans-100"/>
      <use x="1108.105469" xlink:href="#DejaVuSans-115"/>
      <use x="1160.205078" xlink:href="#DejaVuSans-41"/>
     </g>
    </g>
   </g>
   <g id="matplotlib.axis_2">
    <g id="ytick_1">
     <g id="line2d_6">
      <defs>
       <path d="M 0 0 
L -3.5 0 
" id="mf118243762" style="stroke:#000000;stroke-width:0.8;"/>
      </defs>
      <g>
       <use style="stroke:#000000;stroke-width:0.8;" x="108" xlink:href="#mf118243762" y="567"/>
      </g>
     </g>
     <g id="text_7">
      <!-- 0 -->
      <g transform="translate(83.82125 577.257891)scale(0.27 -0.27)">
       <use xlink:href="#DejaVuSans-48"/>
      </g>
     </g>
    </g>
    <g id="ytick_2">
     <g id="line2d_7">
      <g>
       <use style="stroke:#000000;stroke-width:0.8;" x="108" xlink:href="#mf118243762" y="427.217143"/>
      </g>
     </g>
     <g id="text_8">
      <!-- 1 -->
      <g transform="translate(83.82125 437.475033)scale(0.27 -0.27)">
       <defs>
        <path d="M 12.40625 8.296875 
L 28.515625 8.296875 
L 28.515625 63.921875 
L 10.984375 60.40625 
L 10.984375 69.390625 
L 28.421875 72.90625 
L 38.28125 72.90625 
L 38.28125 8.296875 
L 54.390625 8.296875 
L 54.390625 0 
L 12.40625 0 
z
" id="DejaVuSans-49"/>
       </defs>
       <use xlink:href="#DejaVuSans-49"/>
      </g>
     </g>
    </g>
    <g id="ytick_3">
     <g id="line2d_8">
      <g>
       <use style="stroke:#000000;stroke-width:0.8;" x="108" xlink:href="#mf118243762" y="287.434286"/>
      </g>
     </g>
     <g id="text_9">
      <!-- 10 -->
      <g transform="translate(66.6425 297.692176)scale(0.27 -0.27)">
       <use xlink:href="#DejaVuSans-49"/>
       <use x="63.623047" xlink:href="#DejaVuSans-48"/>
      </g>
     </g>
    </g>
    <g id="ytick_4">
     <g id="line2d_9">
      <g>
       <use style="stroke:#000000;stroke-width:0.8;" x="108" xlink:href="#mf118243762" y="147.651429"/>
      </g>
     </g>
     <g id="text_10">
      <!-- 100 -->
      <g transform="translate(49.46375 157.909319)scale(0.27 -0.27)">
       <use xlink:href="#DejaVuSans-49"/>
       <use x="63.623047" xlink:href="#DejaVuSans-48"/>
       <use x="127.246094" xlink:href="#DejaVuSans-48"/>
      </g>
     </g>
    </g>
    <g id="ytick_5">
     <g id="line2d_10">
      <defs>
       <path d="M 0 0 
L -2 0 
" id="mebc5af9407" style="stroke:#000000;stroke-width:0.6;"/>
      </defs>
      <g>
       <use style="stroke:#000000;stroke-width:0.6;" x="108" xlink:href="#mebc5af9407" y="524.921167"/>
      </g>
     </g>
    </g>
    <g id="ytick_6">
     <g id="line2d_11">
      <g>
       <use style="stroke:#000000;stroke-width:0.6;" x="108" xlink:href="#mebc5af9407" y="500.306628"/>
      </g>
     </g>
    </g>
    <g id="ytick_7">
     <g id="line2d_12">
      <g>
       <use style="stroke:#000000;stroke-width:0.6;" x="108" xlink:href="#mebc5af9407" y="482.842334"/>
      </g>
     </g>
    </g>
    <g id="ytick_8">
     <g id="line2d_13">
      <g>
       <use style="stroke:#000000;stroke-width:0.6;" x="108" xlink:href="#mebc5af9407" y="469.295976"/>
      </g>
     </g>
    </g>
    <g id="ytick_9">
     <g id="line2d_14">
      <g>
       <use style="stroke:#000000;stroke-width:0.6;" x="108" xlink:href="#mebc5af9407" y="458.227795"/>
      </g>
     </g>
    </g>
    <g id="ytick_10">
     <g id="line2d_15">
      <g>
       <use style="stroke:#000000;stroke-width:0.6;" x="108" xlink:href="#mebc5af9407" y="448.869781"/>
      </g>
     </g>
    </g>
    <g id="ytick_11">
     <g id="line2d_16">
      <g>
       <use style="stroke:#000000;stroke-width:0.6;" x="108" xlink:href="#mebc5af9407" y="440.763501"/>
      </g>
     </g>
    </g>
    <g id="ytick_12">
     <g id="line2d_17">
      <g>
       <use style="stroke:#000000;stroke-width:0.6;" x="108" xlink:href="#mebc5af9407" y="433.613256"/>
      </g>
     </g>
    </g>
    <g id="ytick_13">
     <g id="line2d_18">
      <g>
       <use style="stroke:#000000;stroke-width:0.6;" x="108" xlink:href="#mebc5af9407" y="385.13831"/>
      </g>
     </g>
    </g>
    <g id="ytick_14">
     <g id="line2d_19">
      <g>
       <use style="stroke:#000000;stroke-width:0.6;" x="108" xlink:href="#mebc5af9407" y="360.523771"/>
      </g>
     </g>
    </g>
    <g id="ytick_15">
     <g id="line2d_20">
      <g>
       <use style="stroke:#000000;stroke-width:0.6;" x="108" xlink:href="#mebc5af9407" y="343.059477"/>
      </g>
     </g>
    </g>
    <g id="ytick_16">
     <g id="line2d_21">
      <g>
       <use style="stroke:#000000;stroke-width:0.6;" x="108" xlink:href="#mebc5af9407" y="329.513119"/>
      </g>
     </g>
    </g>
    <g id="ytick_17">
     <g id="line2d_22">
      <g>
       <use style="stroke:#000000;stroke-width:0.6;" x="108" xlink:href="#mebc5af9407" y="318.444938"/>
      </g>
     </g>
    </g>
    <g id="ytick_18">
     <g id="line2d_23">
      <g>
       <use style="stroke:#000000;stroke-width:0.6;" x="108" xlink:href="#mebc5af9407" y="309.086924"/>
      </g>
     </g>
    </g>
    <g id="ytick_19">
     <g id="line2d_24">
      <g>
       <use style="stroke:#000000;stroke-width:0.6;" x="108" xlink:href="#mebc5af9407" y="300.980644"/>
      </g>
     </g>
    </g>
    <g id="ytick_20">
     <g id="line2d_25">
      <g>
       <use style="stroke:#000000;stroke-width:0.6;" x="108" xlink:href="#mebc5af9407" y="293.830398"/>
      </g>
     </g>
    </g>
    <g id="ytick_21">
     <g id="line2d_26">
      <g>
       <use style="stroke:#000000;stroke-width:0.6;" x="108" xlink:href="#mebc5af9407" y="245.355453"/>
      </g>
     </g>
    </g>
    <g id="ytick_22">
     <g id="line2d_27">
      <g>
       <use style="stroke:#000000;stroke-width:0.6;" x="108" xlink:href="#mebc5af9407" y="220.740914"/>
      </g>
     </g>
    </g>
    <g id="ytick_23">
     <g id="line2d_28">
      <g>
       <use style="stroke:#000000;stroke-width:0.6;" x="108" xlink:href="#mebc5af9407" y="203.27662"/>
      </g>
     </g>
    </g>
    <g id="ytick_24">
     <g id="line2d_29">
      <g>
       <use style="stroke:#000000;stroke-width:0.6;" x="108" xlink:href="#mebc5af9407" y="189.730261"/>
      </g>
     </g>
    </g>
    <g id="ytick_25">
     <g id="line2d_30">
      <g>
       <use style="stroke:#000000;stroke-width:0.6;" x="108" xlink:href="#mebc5af9407" y="178.662081"/>
      </g>
     </g>
    </g>
    <g id="ytick_26">
     <g id="line2d_31">
      <g>
       <use style="stroke:#000000;stroke-width:0.6;" x="108" xlink:href="#mebc5af9407" y="169.304067"/>
      </g>
     </g>
    </g>
    <g id="ytick_27">
     <g id="line2d_32">
      <g>
       <use style="stroke:#000000;stroke-width:0.6;" x="108" xlink:href="#mebc5af9407" y="161.197787"/>
      </g>
     </g>
    </g>
    <g id="ytick_28">
     <g id="line2d_33">
      <g>
       <use style="stroke:#000000;stroke-width:0.6;" x="108" xlink:href="#mebc5af9407" y="154.047541"/>
      </g>
     </g>
    </g>
    <g id="ytick_29">
     <g id="line2d_34">
      <g>
       <use style="stroke:#000000;stroke-width:0.6;" x="108" xlink:href="#mebc5af9407" y="105.572596"/>
      </g>
     </g>
    </g>
    <g id="ytick_30">
     <g id="line2d_35">
      <g>
       <use style="stroke:#000000;stroke-width:0.6;" x="108" xlink:href="#mebc5af9407" y="80.958056"/>
      </g>
     </g>
    </g>
    <g id="text_11">
     <!-- Particles/cc -->
     <g transform="translate(39.848594 398.684531)rotate(-90)scale(0.27 -0.27)">
      <defs>
       <path d="M 19.671875 64.796875 
L 19.671875 37.40625 
L 32.078125 37.40625 
Q 38.96875 37.40625 42.71875 40.96875 
Q 46.484375 44.53125 46.484375 51.125 
Q 46.484375 57.671875 42.71875 61.234375 
Q 38.96875 64.796875 32.078125 64.796875 
z
M 9.8125 72.90625 
L 32.078125 72.90625 
Q 44.34375 72.90625 50.609375 67.359375 
Q 56.890625 61.8125 56.890625 51.125 
Q 56.890625 40.328125 50.609375 34.8125 
Q 44.34375 29.296875 32.078125 29.296875 
L 19.671875 29.296875 
L 19.671875 0 
L 9.8125 0 
z
" id="DejaVuSans-80"/>
       <path d="M 41.109375 46.296875 
Q 39.59375 47.171875 37.8125 47.578125 
Q 36.03125 48 33.890625 48 
Q 26.265625 48 22.1875 43.046875 
Q 18.109375 38.09375 18.109375 28.8125 
L 18.109375 0 
L 9.078125 0 
L 9.078125 54.6875 
L 18.109375 54.6875 
L 18.109375 46.1875 
Q 20.953125 51.171875 25.484375 53.578125 
Q 30.03125 56 36.53125 56 
Q 37.453125 56 38.578125 55.875 
Q 39.703125 55.765625 41.0625 55.515625 
z
" id="DejaVuSans-114"/>
       <path d="M 18.3125 70.21875 
L 18.3125 54.6875 
L 36.8125 54.6875 
L 36.8125 47.703125 
L 18.3125 47.703125 
L 18.3125 18.015625 
Q 18.3125 11.328125 20.140625 9.421875 
Q 21.96875 7.515625 27.59375 7.515625 
L 36.8125 7.515625 
L 36.8125 0 
L 27.59375 0 
Q 17.1875 0 13.234375 3.875 
Q 9.28125 7.765625 9.28125 18.015625 
L 9.28125 47.703125 
L 2.6875 47.703125 
L 2.6875 54.6875 
L 9.28125 54.6875 
L 9.28125 70.21875 
z
" id="DejaVuSans-116"/>
       <path d="M 25.390625 72.90625 
L 33.6875 72.90625 
L 8.296875 -9.28125 
L 0 -9.28125 
z
" id="DejaVuSans-47"/>
      </defs>
      <use xlink:href="#DejaVuSans-80"/>
      <use x="55.802734" xlink:href="#DejaVuSans-97"/>
      <use x="117.082031" xlink:href="#DejaVuSans-114"/>
      <use x="158.195312" xlink:href="#DejaVuSans-116"/>
      <use x="197.404297" xlink:href="#DejaVuSans-105"/>
      <use x="225.1875" xlink:href="#DejaVuSans-99"/>
      <use x="280.167969" xlink:href="#DejaVuSans-108"/>
      <use x="307.951172" xlink:href="#DejaVuSans-101"/>
      <use x="369.474609" xlink:href="#DejaVuSans-115"/>
      <use x="421.574219" xlink:href="#DejaVuSans-47"/>
      <use x="455.265625" xlink:href="#DejaVuSans-99"/>
      <use x="510.246094" xlink:href="#DejaVuSans-99"/>
     </g>
    </g>
   </g>
   <g id="line2d_36">
    <path clip-path="url(#p16300a2d0b)" d="M 78.567033 452.441807 
L 80.774505 459.92062 
L 82.981978 468.451973 
L 84.453626 474.888012 
L 85.925275 482.088201 
L 91.076044 477.541173 
L 93.283516 475.692089 
L 96.962637 479.880433 
L 100.641758 484.3793 
L 102.849231 489.491921 
L 105.056703 495.075045 
L 107.264176 501.22413 
L 108 503.420486 
L 115.358242 500.306628 
L 116.094066 311.339677 
L 116.82989 270.626125 
L 117.565714 246.473588 
L 118.301538 229.241622 
L 119.037363 215.835087 
L 119.773187 204.860302 
L 121.244835 187.512955 
L 122.716484 174.036872 
L 123.452308 161.134457 
L 124.923956 141.452661 
L 126.395604 126.613667 
L 127.867253 114.698773 
L 129.338901 104.743113 
L 130.074725 100.317347 
L 131.546374 111.805021 
L 133.018022 125.986104 
L 133.753846 134.549856 
L 134.48967 144.523245 
L 135.225495 156.463568 
L 135.961319 171.342093 
L 136.697143 191.093761 
L 137.432967 220.559065 
L 139.64044 228.708593 
L 141.112088 234.820795 
L 142.583736 241.618009 
L 144.055385 249.273388 
L 144.791209 253.496432 
L 145.527033 206.238103 
L 146.262857 179.990822 
L 146.998681 161.726334 
L 147.734505 147.704874 
L 148.47033 136.322012 
L 149.941978 118.466647 
L 151.413626 104.686849 
L 152.149451 98.816196 
L 155.092747 103.184914 
L 158.036044 107.892573 
L 159.507692 110.390779 
L 160.979341 120.937928 
L 162.450989 133.711028 
L 163.922637 149.908051 
L 164.658462 159.981125 
L 165.394286 172.064755 
L 166.13011 187.166863 
L 166.865934 207.31609 
L 169.073407 216.299746 
L 170.545055 223.124311 
L 172.016703 230.81441 
L 173.488352 239.621916 
L 174.224176 244.556368 
L 181.582418 240.85225 
L 185.261538 246.311487 
L 188.204835 251.062421 
L 188.940659 252.310612 
L 197.770549 253.945844 
L 204.392967 254.892055 
L 211.015385 256.593851 
L 213.958681 261.975744 
L 216.901978 267.881587 
L 218.373626 271.064944 
L 225.731868 273.839381 
L 228.675165 279.129515 
L 231.618462 284.925034 
L 233.09011 288.044411 
L 240.448352 288.22865 
L 243.391648 292.787161 
L 246.334945 297.715965 
L 247.806593 300.339036 
L 254.429011 304.210435 
L 255.164835 304.656236 
L 258.843956 309.631385 
L 262.523077 315.050957 
L 265.466374 310.41079 
L 269.145495 305.068797 
L 269.881319 304.054577 
L 276.503736 308.17881 
L 288.276923 315.918214 
L 291.956044 318.444938 
L 297.106813 313.941735 
L 299.314286 312.109562 
L 306.672527 310.224939 
L 312.559121 314.621931 
L 314.030769 315.772808 
L 316.974066 320.796774 
L 319.917363 326.274333 
L 321.389011 329.21034 
L 328.747253 330.677649 
L 334.633846 334.66741 
L 336.105495 335.707211 
L 339.048791 329.646821 
L 341.992088 324.136903 
L 343.463736 321.558796 
L 347.878681 326.343436 
L 351.557802 330.436785 
L 355.972747 334.687239 
L 358.18022 336.92954 
L 361.859341 341.969017 
L 364.802637 346.325293 
L 365.538462 347.465021 
L 369.217582 342.417869 
L 372.896703 337.758316 
L 375.104176 342.711412 
L 377.311648 348.104824 
L 379.519121 354.024544 
L 380.254945 356.133406 
L 387.613187 353.373525 
L 389.820659 345.490246 
L 392.028132 338.514014 
L 394.235604 332.257472 
L 394.971429 330.307483 
L 402.32967 326.724914 
L 406.008791 330.863581 
L 409.687912 335.305177 
L 411.895385 340.380086 
L 414.102857 345.918264 
L 416.31033 352.012865 
L 417.046154 354.188395 
L 419.253626 359.679768 
L 421.461099 365.717727 
L 423.668571 372.423231 
L 424.404396 374.833748 
L 431.762637 374.070129 
L 435.441758 369.327839 
L 439.120879 364.929314 
L 440.592527 357.273475 
L 442.064176 350.475898 
L 444.271648 341.523459 
L 446.479121 333.723148 
L 448.686593 342.870064 
L 450.158242 349.836199 
L 451.62989 357.706583 
L 453.101538 366.751487 
L 453.837363 371.835266 
L 456.044835 377.223939 
L 458.252308 383.13795 
L 460.45978 389.690903 
L 461.195604 392.042433 
L 463.403077 382.961988 
L 465.610549 375.06472 
L 467.818022 368.077538 
L 468.553846 365.91644 
L 470.761319 371.434318 
L 472.968791 377.504341 
L 475.176264 384.249422 
L 475.912088 386.675276 
L 481.798681 390.930369 
L 483.27033 392.042433 
L 484.741978 380.046123 
L 486.213626 370.033742 
L 487.685275 361.441273 
L 489.156923 353.915555 
L 490.628571 347.220727 
L 496.515165 351.044465 
L 497.986813 352.039253 
L 500.194286 358.288908 
L 502.401758 365.256576 
L 504.609231 373.128918 
L 505.345055 375.997495 
L 508.288352 370.461257 
L 511.231648 365.387976 
L 512.703297 363.001948 
L 515.646593 369.257698 
L 517.854066 374.41257 
L 520.061538 380.046123 
L 522.269011 387.94939 
L 524.476484 397.037771 
L 525.948132 403.953066 
L 527.41978 411.758597 
L 531.098901 407.335409 
L 534.778022 403.212729 
L 537.721319 398.04306 
L 540.664615 393.27929 
L 542.136264 391.030628 
L 544.343736 399.756445 
L 545.815385 406.358869 
L 547.287033 413.767993 
L 548.758681 422.208748 
L 549.494505 426.914365 
L 550.966154 419.905227 
L 553.173626 410.708884 
L 555.381099 402.724139 
L 556.852747 397.930536 
L 564.210989 396.816616 
L 567.89011 392.298042 
L 571.569231 388.092623 
L 573.776703 394.118086 
L 575.984176 400.80818 
L 578.191648 408.327915 
L 578.927473 411.056775 
L 582.606593 415.394829 
L 586.285714 420.066897 
L 587.757363 413.187061 
L 589.964835 404.13957 
L 592.172308 396.267228 
L 593.643956 391.534423 
L 598.058901 395.614459 
L 601.002198 398.495255 
L 603.20967 404.01517 
L 605.417143 410.087659 
L 607.624615 416.835786 
L 608.36044 419.26282 
L 609.832088 411.056775 
L 611.303736 403.829048 
L 613.511209 394.382605 
L 615.718681 386.210087 
L 622.341099 390.084785 
L 623.076923 390.53098 
L 625.284396 384.699773 
L 627.491868 379.379923 
L 630.435165 372.942414 
L 633.378462 378.231379 
L 636.321758 384.025494 
L 637.793407 387.144058 
L 640.736703 392.246834 
L 643.68 397.818219 
L 645.887473 402.058685 
L 648.830769 407.335409 
L 651.774066 413.114834 
L 658.396484 427.09585 
L 659.868132 430.651355 
L 664.283077 426.193799 
L 667.226374 423.394137 
L 668.698022 415.997384 
L 670.905495 406.358869 
L 673.112967 398.04306 
L 674.584615 393.071389 
L 681.942857 392.042433 
L 683.414505 399.065277 
L 684.886154 407.008147 
L 686.357802 416.148962 
L 687.829451 426.914365 
L 689.301099 440.009368 
L 691.508571 446.405481 
L 693.716044 453.555727 
L 695.923516 461.662007 
L 696.659341 464.623908 
L 698.130989 456.13939 
L 699.602637 448.69658 
L 701.81011 439.005925 
L 704.017582 430.651355 
L 706.225055 425.393257 
L 709.168352 419.023659 
L 711.375824 414.64995 
L 714.319121 419.905227 
L 717.262418 425.658933 
L 718.734066 428.754109 
L 720.205714 435.046538 
L 721.677363 442.067427 
L 723.149011 450.007796 
L 724.620659 459.145297 
L 726.092308 469.906101 
L 728.29978 464.120113 
L 730.507253 458.83792 
L 733.450549 452.441807 
L 739.337143 448.179923 
L 740.808791 447.159614 
L 748.167033 449.743277 
L 750.374505 443.717814 
L 752.581978 438.236778 
L 755.525275 431.622686 
L 756.996923 438.455541 
L 758.468571 446.156171 
L 759.94022 454.9775 
L 761.411868 465.302204 
L 762.883516 477.750147 
L 765.090989 469.53929 
L 767.298462 462.307831 
L 769.505934 455.846826 
L 770.241758 453.83743 
L 773.185055 458.532091 
L 776.128352 463.620465 
L 777.6 466.334075 
L 777.6 466.334075 
" style="fill:none;stroke:#1f77b4;stroke-linecap:square;stroke-width:4;"/>
   </g>
   <g id="line2d_37">
    <path clip-path="url(#p16300a2d0b)" d="M 78.567033 449.743277 
L 80.774505 443.005005 
L 82.981978 436.940495 
L 85.189451 431.427173 
L 85.925275 429.695321 
L 87.396923 436.51448 
L 88.868571 444.197713 
L 90.34022 452.996212 
L 91.811868 463.289636 
L 93.283516 475.692089 
L 95.490989 469.356713 
L 97.698462 463.620465 
L 99.905934 458.379752 
L 100.641758 456.728782 
L 106.528352 452.718377 
L 108 451.755846 
L 110.207473 446.280698 
L 113.150769 439.673041 
L 115.358242 435.150222 
L 116.094066 418.62714 
L 116.82989 405.652593 
L 118.301538 385.886562 
L 119.773187 370.99992 
L 121.244835 359.054378 
L 122.716484 349.077352 
L 124.188132 358.611583 
L 125.65978 369.927331 
L 127.131429 383.846944 
L 127.867253 392.221246 
L 128.603077 401.938473 
L 129.338901 413.513151 
L 130.074725 427.827268 
L 131.546374 411.688049 
L 133.018022 398.950844 
L 134.48967 388.428153 
L 135.961319 379.462799 
L 137.432967 371.652689 
L 140.376264 376.429854 
L 143.31956 381.615303 
L 144.791209 384.384177 
L 145.527033 369.521145 
L 146.262857 357.590785 
L 147.734505 339.065706 
L 149.206154 324.891661 
L 150.677802 313.408599 
L 152.149451 303.755968 
L 154.356923 296.726316 
L 156.564396 290.426851 
L 158.771868 284.720053 
L 159.507692 282.931083 
L 162.450989 287.989248 
L 165.394286 293.507489 
L 166.865934 296.466873 
L 170.545055 301.361253 
L 174.224176 306.685112 
L 176.431648 299.895774 
L 178.639121 293.789941 
L 180.846593 288.242491 
L 181.582418 286.500546 
L 183.78989 278.438557 
L 185.997363 271.322782 
L 188.204835 264.95426 
L 188.940659 262.971704 
L 195.563077 258.79188 
L 196.298901 258.344733 
L 199.242198 264.213675 
L 202.185495 270.711331 
L 203.657143 274.241052 
L 211.751209 270.783965 
L 218.373626 266.83489 
L 221.316923 271.190242 
L 224.26022 275.882382 
L 225.731868 278.371853 
L 229.410989 282.699014 
L 233.09011 287.358449 
L 240.448352 288.691711 
L 247.806593 286.053841 
L 255.164835 289.628565 
L 260.315604 294.190648 
L 262.523077 296.255902 
L 269.881319 294.645269 
L 276.503736 298.552267 
L 277.23956 299.002315 
L 280.918681 303.28123 
L 284.597802 307.884768 
L 291.956044 304.777287 
L 294.899341 299.422434 
L 297.842637 294.501875 
L 299.314286 292.183501 
L 301.521758 297.296739 
L 303.729231 302.8806 
L 305.936703 309.03058 
L 306.672527 311.227277 
L 309.615824 316.93112 
L 312.559121 323.226985 
L 314.030769 326.638004 
L 316.974066 320.907308 
L 319.917363 315.671231 
L 321.389011 313.213355 
L 328.747253 315.62775 
L 332.426374 320.25492 
L 336.105495 325.264097 
L 340.52044 321.128982 
L 343.463736 318.520869 
L 351.557802 317.74329 
L 358.916044 315.910935 
L 365.538462 313.283013 
L 368.481758 318.490485 
L 371.425055 324.186929 
L 372.896703 327.249006 
L 376.575824 331.518866 
L 380.254945 336.111926 
L 384.66989 331.93441 
L 387.613187 329.301015 
L 391.292308 334.50901 
L 394.235604 339.023089 
L 394.971429 340.206078 
L 402.32967 341.857321 
L 404.537143 336.693346 
L 407.48044 330.42754 
L 409.687912 326.119138 
L 413.367033 331.565944 
L 416.31033 336.305114 
L 417.781978 338.587989 
L 421.461099 344.061782 
L 424.404396 348.826497 
L 428.819341 353.427511 
L 431.762637 356.700764 
L 434.705934 362.310303 
L 437.649231 368.49145 
L 439.120879 371.835266 
L 442.8 366.332528 
L 453.837363 350.733678 
L 456.780659 355.964227 
L 459.723956 361.688301 
L 461.195604 364.766342 
L 468.553846 368.111923 
L 475.912088 365.750801 
L 479.591209 370.211507 
L 483.27033 375.026163 
L 486.213626 379.837149 
L 489.156923 385.062474 
L 490.628571 387.854088 
L 495.043516 383.18202 
L 497.986813 380.255819 
L 503.873407 384.249422 
L 505.345055 385.290267 
L 511.967473 381.50799 
L 512.703297 381.101922 
L 520.061538 380.255819 
L 522.269011 385.381625 
L 524.476484 390.980478 
L 526.683956 397.148651 
L 527.41978 399.352308 
L 529.627253 390.381884 
L 531.834725 382.567928 
L 534.042198 375.646023 
L 534.778022 373.503653 
L 539.192967 377.826395 
L 542.136264 380.889288 
L 545.07956 385.656524 
L 548.022857 390.830275 
L 549.494505 393.592482 
L 551.701978 398.922269 
L 553.909451 404.76542 
L 556.116923 411.231472 
L 556.852747 413.549492 
L 558.324396 404.95444 
L 559.796044 397.426741 
L 561.267692 390.730346 
L 563.475165 381.895208 
L 564.210989 379.214508 
L 566.418462 385.062474 
L 568.625934 391.534423 
L 570.833407 398.779597 
L 571.569231 401.400447 
L 574.512527 396.048858 
L 577.455824 391.131053 
L 578.927473 388.813902 
L 586.285714 391.534423 
L 589.229011 396.927092 
L 592.172308 402.845918 
L 594.37978 407.763504 
L 596.587253 413.259374 
L 598.794725 419.302772 
L 601.002198 426.014986 
L 604.681319 420.881767 
L 608.36044 416.148962 
L 615.718681 417.685928 
L 623.076923 416.912581 
L 626.02022 422.208748 
L 628.963516 428.011507 
L 630.435165 431.135078 
L 631.906813 419.824554 
L 633.378462 410.294028 
L 634.85011 402.058685 
L 636.321758 394.808246 
L 637.793407 388.332098 
L 644.415824 384.361697 
L 645.151648 383.936153 
L 647.359121 391.408082 
L 649.566593 399.930474 
L 651.038242 406.358869 
L 652.50989 413.549492 
L 654.717363 406.552924 
L 656.924835 400.280035 
L 659.132308 394.595052 
L 659.868132 392.81251 
L 667.226374 395.722768 
L 669.433846 401.519597 
L 671.641319 407.928963 
L 673.848791 415.09578 
L 674.584615 417.685928 
L 677.527912 423.909333 
L 679.735385 429.034943 
L 681.942857 434.633564 
L 684.886154 429.885327 
L 688.565275 424.428939 
L 689.301099 423.394137 
L 691.508571 418.233193 
L 694.451868 411.970736 
L 696.659341 407.664445 
L 699.602637 413.187061 
L 702.545934 419.26282 
L 704.017582 422.545075 
L 707.696703 417.491666 
L 711.375824 412.826782 
L 718.734066 414.64995 
L 726.092308 412.826782 
L 728.29978 418.944148 
L 730.507253 425.747751 
L 732.714725 433.411236 
L 733.450549 436.196919 
L 736.393846 441.029677 
L 739.337143 446.280698 
L 740.808791 449.08698 
L 743.752088 444.318283 
L 747.431209 438.840286 
L 748.167033 437.801601 
L 750.374505 432.064908 
L 752.581978 426.823825 
L 755.525275 420.472965 
L 759.204396 425.570245 
L 762.147692 429.980553 
L 762.883516 431.135078 
L 765.090989 436.620704 
L 767.298462 442.651714 
L 769.505934 449.348648 
L 770.241758 451.755846 
L 774.656703 447.795295 
L 777.6 445.291561 
L 777.6 445.291561 
" style="fill:none;stroke:#ff7f0e;stroke-linecap:square;stroke-width:4;"/>
   </g>
   <g id="line2d_38">
    <path clip-path="url(#p16300a2d0b)" d="M 78.567033 430.148698 
L 82.981978 434.918412 
L 85.925275 438.320023 
L 93.283516 441.527121 
L 99.905934 437.605755 
L 100.641758 437.185281 
L 104.320879 432.609813 
L 108 428.355157 
L 110.943297 434.643364 
L 113.150769 439.827627 
L 115.358242 445.496307 
L 119.773187 449.56757 
L 122.716484 452.441807 
L 129.338901 456.349231 
L 130.810549 457.139109 
L 137.432967 460.285854 
L 139.64044 450.910754 
L 141.847912 442.791663 
L 144.055385 435.631454 
L 144.791209 433.42084 
L 146.262857 425.12036 
L 147.734505 417.819497 
L 149.941978 408.289806 
L 152.149451 400.055086 
L 153.621099 389.088631 
L 155.092747 379.803383 
L 156.564396 371.751734 
L 158.036044 364.644013 
L 159.507692 358.281942 
L 160.979341 347.409095 
L 162.450989 338.190992 
L 163.922637 330.189856 
L 165.394286 323.121516 
L 167.601758 313.855903 
L 169.809231 305.816669 
L 172.016703 298.718621 
L 174.224176 292.364298 
L 177.167473 287.24725 
L 180.110769 282.528193 
L 181.582418 280.29946 
L 188.940659 281.522285 
L 196.298901 278.581368 
L 205.864615 280.963896 
L 212.487033 282.387571 
L 219.845275 284.404695 
L 226.467692 286.392185 
L 233.09011 287.460309 
L 239.712527 291.621082 
L 240.448352 292.101497 
L 248.542418 292.651864 
L 255.900659 294.189921 
L 263.258901 296.336688 
L 272.088791 299.46154 
L 277.23956 301.013174 
L 285.333626 301.85304 
L 291.956044 301.843144 
L 295.635165 306.735744 
L 299.314286 312.057498 
L 304.465055 316.457166 
L 306.672527 318.444938 
L 314.030769 317.200284 
L 320.653187 321.312816 
L 321.389011 321.787447 
L 328.747253 321.513169 
L 336.105495 324.440872 
L 341.256264 328.648593 
L 343.463736 330.545187 
L 347.142857 326.303939 
L 350.821978 322.339751 
L 358.18022 326.139644 
L 369.953407 332.335554 
L 372.896703 333.806863 
L 375.84 340.076931 
L 378.047473 345.244765 
L 380.254945 350.893805 
L 387.613187 348.286507 
L 390.556484 341.785093 
L 393.49978 335.913086 
L 394.971429 333.177194 
L 402.32967 335.851443 
L 406.008791 341.044434 
L 408.952088 345.544431 
L 409.687912 346.723553 
L 413.367033 350.84449 
L 417.046154 355.265672 
L 424.404396 358.031719 
L 429.555165 353.450662 
L 431.762637 351.588457 
L 439.120879 349.311221 
L 444.271648 353.687829 
L 446.479121 355.664624 
L 453.837363 356.714338 
L 457.516484 361.499998 
L 461.195604 366.695458 
L 468.553846 370.833536 
L 471.497143 366.293572 
L 475.176264 361.058023 
L 475.912088 360.062995 
L 482.534505 363.98246 
L 483.27033 364.433997 
L 487.685275 369.264375 
L 491.364396 373.620113 
L 495.043516 378.374734 
L 497.986813 382.46618 
L 504.609231 378.4213 
L 509.76 375.496012 
L 512.703297 373.889722 
L 516.382418 378.103807 
L 520.061538 382.632387 
L 527.41978 383.301802 
L 532.570549 387.382063 
L 534.778022 389.218346 
L 537.721319 394.183479 
L 540.664615 399.591166 
L 542.136264 402.487081 
L 548.758681 398.711776 
L 549.494505 398.306431 
L 553.909451 393.49288 
L 556.852747 390.483608 
L 564.210989 392.407919 
L 567.89011 397.371021 
L 571.569231 402.7763 
L 573.776703 396.70634 
L 575.984176 391.188513 
L 578.927473 384.534256 
L 581.870769 379.986343 
L 585.54989 374.742336 
L 586.285714 373.745782 
L 593.643956 375.127196 
L 595.851429 380.751979 
L 598.058901 386.951643 
L 600.266374 393.857218 
L 601.002198 396.345408 
L 603.20967 401.383445 
L 605.417143 406.877735 
L 607.624615 412.919221 
L 608.36044 415.074475 
L 613.511209 419.667356 
L 615.718681 421.747338 
L 620.869451 417.878955 
L 623.812747 415.867761 
L 630.435165 412.163312 
L 637.793407 414.509098 
L 645.151648 411.893202 
L 652.50989 412.502647 
L 658.396484 416.905263 
L 659.868132 418.05768 
L 667.226374 420.803688 
L 674.584615 418.506809 
L 678.99956 413.865358 
L 681.942857 410.957174 
L 688.565275 406.747602 
L 689.301099 406.297394 
L 692.244396 411.12992 
L 695.187692 416.380668 
L 697.395165 420.383784 
L 700.338462 425.422719 
L 703.281758 430.918078 
L 704.017582 432.373322 
L 709.168352 428.4082 
L 711.375824 426.785063 
L 718.734066 424.752843 
L 722.413187 429.514914 
L 726.092308 434.682581 
L 733.450549 434.977514 
L 740.808791 433.03783 
L 746.695385 428.976887 
L 748.167033 428.002721 
L 751.846154 433.468887 
L 754.789451 438.22638 
L 755.525275 439.476381 
L 762.883516 442.858953 
L 770.241758 441.636997 
L 777.6 442.858953 
L 777.6 442.858953 
" style="fill:none;stroke:#2ca02c;stroke-linecap:square;stroke-width:4;"/>
   </g>
   <g id="line2d_39">
    <path clip-path="url(#p16300a2d0b)" d="M 78.567033 447.159614 
L 80.774505 441.719536 
L 83.717802 435.150222 
L 85.925275 430.651355 
L 88.868571 435.046538 
L 91.811868 439.784943 
L 93.283516 442.300468 
L 95.490989 450.540316 
L 96.962637 456.728782 
L 98.434286 463.620465 
L 99.905934 471.395916 
L 100.641758 475.692089 
L 102.849231 466.160874 
L 105.056703 457.925017 
L 107.264176 450.674179 
L 108 448.437702 
L 109.471648 435.046538 
L 110.943297 424.082041 
L 112.414945 414.798196 
L 113.886593 406.747602 
L 115.358242 399.640703 
L 119.037363 394.648281 
L 122.716484 390.03541 
L 124.188132 398.950844 
L 125.65978 409.404784 
L 127.131429 422.04128 
L 128.603077 438.018799 
L 129.338901 447.923233 
L 130.074725 459.764761 
L 132.282198 453.135608 
L 134.48967 447.159614 
L 136.697143 441.719536 
L 138.168791 438.455541 
L 141.112088 432.609813 
L 144.055385 427.27788 
L 144.791209 426.014986 
L 152.149451 425.128738 
L 154.356923 431.818832 
L 156.564396 439.338567 
L 158.771868 447.923233 
L 159.507692 451.077549 
L 161.715165 457.025638 
L 163.922637 463.620465 
L 166.13011 471.02002 
L 166.865934 473.701519 
L 169.073407 466.507772 
L 171.280879 460.07688 
L 173.488352 454.262451 
L 174.224176 452.441807 
L 175.695824 440.915459 
L 177.167473 431.232287 
L 178.639121 422.883276 
L 180.110769 415.544908 
L 181.582418 408.998716 
L 183.054066 394.541871 
L 184.525714 382.874198 
L 185.997363 373.091571 
L 187.469011 364.668769 
L 188.940659 357.273475 
L 196.298901 361.441273 
L 199.242198 355.795519 
L 202.185495 350.630434 
L 203.657143 348.203856 
L 205.128791 340.140954 
L 206.60044 333.024468 
L 208.807912 323.70506 
L 211.015385 315.62775 
L 213.958681 321.718762 
L 216.166154 326.724914 
L 218.373626 332.181302 
L 225.731868 331.42482 
L 227.939341 336.847281 
L 230.146813 342.802019 
L 232.354286 349.405022 
L 233.09011 351.775882 
L 240.448352 350.475898 
L 247.070769 354.297876 
L 247.806593 354.737783 
L 250.014066 347.563014 
L 252.221538 341.14729 
L 254.429011 335.345261 
L 255.164835 333.528263 
L 258.843956 329.21034 
L 262.523077 325.179252 
L 264.730549 333.56719 
L 266.202198 339.881152 
L 267.673846 346.928866 
L 269.145495 354.903573 
L 269.881319 359.321614 
L 275.767912 355.403679 
L 277.23956 354.462468 
L 280.182857 349.709064 
L 283.861978 344.247217 
L 285.333626 342.282864 
L 289.012747 337.841819 
L 291.956044 334.50901 
L 294.899341 340.140954 
L 297.842637 346.349321 
L 299.314286 349.709064 
L 304.465055 353.942784 
L 306.672527 355.851703 
L 309.615824 360.889109 
L 312.559121 366.382651 
L 314.030769 369.327839 
L 320.653187 373.578878 
L 321.389011 374.070129 
L 325.068132 379.421347 
L 328.011429 384.070214 
L 328.747253 385.290267 
L 336.105495 384.384177 
L 338.312967 376.548307 
L 340.52044 369.609216 
L 342.727912 363.382557 
L 343.463736 361.441273 
L 350.821978 362.060737 
L 358.18022 360.828067 
L 366.274286 364.766342 
L 372.896703 366.249082 
L 377.311648 361.998505 
L 380.254945 359.321614 
L 383.198242 365.453783 
L 385.405714 370.497019 
L 387.613187 375.997495 
L 392.028132 380.889288 
L 394.971429 384.384177 
L 397.178901 375.490463 
L 399.386374 367.734754 
L 401.593846 360.85858 
L 402.32967 358.729347 
L 409.687912 355.292188 
L 413.367033 360.523771 
L 416.31033 365.060007 
L 417.046154 366.249082 
L 419.253626 372.460169 
L 421.461099 379.379923 
L 423.668571 387.191136 
L 424.404396 390.03541 
L 428.819341 385.47312 
L 431.762637 382.611586 
L 433.97011 374.641941 
L 436.177582 367.59818 
L 438.385055 361.28739 
L 439.120879 359.321614 
L 441.328352 365.22377 
L 443.535824 371.762169 
L 445.743297 379.090743 
L 446.479121 381.74433 
L 453.837363 379.628892 
L 458.988132 384.159752 
L 461.195604 386.210087 
L 464.138901 392.246834 
L 466.346374 397.204167 
L 468.553846 402.602604 
L 470.025495 393.071389 
L 471.497143 384.835532 
L 472.968791 377.584694 
L 475.176264 368.111923 
L 475.912088 365.256576 
L 481.798681 369.327839 
L 483.27033 370.389795 
L 485.477802 376.232946 
L 487.685275 382.698997 
L 489.892747 389.93678 
L 490.628571 392.554731 
L 492.836044 386.815531 
L 495.043516 381.572355 
L 497.986813 375.21919 
L 500.194286 381.315304 
L 502.401758 388.092623 
L 504.609231 395.722768 
L 508.288352 409.950468 
L 509.76 416.60598 
L 511.231648 424.082041 
L 512.703297 432.609813 
L 514.910769 423.223372 
L 517.118242 415.09578 
L 519.325714 407.928963 
L 520.061538 405.716462 
L 525.212308 409.881989 
L 527.41978 411.758597 
L 529.627253 417.066465 
L 531.834725 422.883276 
L 534.042198 429.317083 
L 534.778022 431.622686 
L 536.985495 424.16858 
L 539.192967 417.530469 
L 541.40044 411.547197 
L 542.136264 409.677013 
L 545.07956 415.997384 
L 547.287033 421.210803 
L 549.494505 426.914365 
L 551.701978 421.707725 
L 554.645275 415.394829 
L 556.852747 411.056775 
L 564.210989 407.664445 
L 567.154286 414.060557 
L 569.361758 419.34275 
L 571.569231 425.128738 
L 573.776703 432.709414 
L 575.984176 441.373626 
L 577.455824 447.923233 
L 578.927473 455.265894 
L 580.399121 447.413088 
L 581.870769 440.460723 
L 584.078242 431.329652 
L 586.285714 423.394137 
L 589.964835 418.864741 
L 593.643956 414.64995 
L 596.587253 419.26282 
L 599.530549 424.255242 
L 601.002198 426.914365 
L 602.473846 419.583174 
L 604.681319 410.019025 
L 606.888791 401.758601 
L 608.36044 396.816616 
L 610.567912 403.27408 
L 612.775385 410.501102 
L 614.982857 418.706237 
L 615.718681 421.707725 
L 623.076923 425.128738 
L 626.756044 420.472965 
L 630.435165 416.148962 
L 633.378462 410.639544 
L 636.321758 405.588792 
L 637.793407 403.212729 
L 640.736703 408.595347 
L 643.68 414.502064 
L 645.151648 417.685928 
L 652.50989 413.914099 
L 655.453187 419.743987 
L 658.396484 426.193799 
L 659.868132 429.695321 
L 664.283077 433.81595 
L 669.433846 438.675097 
L 673.848791 442.769249 
L 674.584615 443.47928 
L 681.207033 439.338567 
L 681.942857 438.895449 
L 684.886154 444.439093 
L 687.829451 450.540316 
L 689.301099 453.83743 
L 690.772747 446.405481 
L 692.98022 436.727114 
L 695.187692 428.381673 
L 696.659341 423.394137 
L 701.074286 419.422786 
L 704.017582 416.912581 
L 706.225055 422.71394 
L 708.432527 429.128844 
L 710.64 436.302588 
L 711.375824 438.895449 
L 715.054945 443.47928 
L 718.734066 448.437702 
L 721.677363 454.404789 
L 723.884835 459.299572 
L 726.092308 464.623908 
L 729.035604 458.227795 
L 731.978901 452.441807 
L 733.450549 449.743277 
L 735.658022 455.555665 
L 737.865495 461.98406 
L 740.072967 469.174683 
L 742.28044 477.332916 
L 743.752088 483.452459 
L 745.223736 490.258755 
L 746.695385 497.925659 
L 748.167033 506.702741 
L 751.846154 501.843594 
L 755.525275 497.344727 
L 756.996923 490.258755 
L 759.204396 480.974282 
L 761.411868 472.923215 
L 762.883516 468.093819 
L 764.355165 459.145297 
L 765.826813 451.347959 
L 767.298462 444.439093 
L 769.505934 435.358122 
L 770.241758 432.609813 
L 777.6 431.622686 
L 777.6 431.622686 
" style="fill:none;stroke:#d62728;stroke-linecap:square;stroke-width:4;"/>
   </g>
   <g id="line2d_40">
    <path clip-path="url(#p16300a2d0b)" d="M 78.567033 468.093819 
L 80.774505 474.888012 
L 82.981978 482.539556 
L 85.189451 491.296506 
L 85.925275 494.52064 
L 88.132747 485.320512 
L 90.34022 477.332916 
L 92.547692 470.275141 
L 93.283516 468.093819 
L 95.490989 459.609302 
L 97.698462 452.166492 
L 99.905934 445.537339 
L 100.641758 443.47928 
L 105.792527 439.449854 
L 108 437.801601 
L 110.943297 442.300468 
L 113.886593 447.159614 
L 115.358242 449.743277 
L 117.565714 458.227795 
L 119.037363 464.623908 
L 120.509011 471.774153 
L 121.980659 479.880433 
L 122.716484 484.3793 
L 125.65978 479.019328 
L 128.603077 474.094446 
L 130.074725 471.774153 
L 135.225495 475.894783 
L 137.432967 477.750147 
L 138.904615 469.53929 
L 140.376264 462.307831 
L 142.583736 452.857135 
L 144.791209 444.681436 
L 146.262857 435.881011 
L 147.734505 428.196308 
L 149.206154 421.375992 
L 151.413626 412.39725 
L 152.149451 409.677013 
L 156.564396 413.914099 
L 159.507692 416.912581 
L 161.715165 425.836699 
L 163.186813 432.609813 
L 164.658462 440.234626 
L 166.13011 448.956568 
L 166.865934 453.83743 
L 172.752527 449.479906 
L 178.639121 445.414326 
L 181.582418 443.47928 
L 183.054066 449.743277 
L 184.525714 456.728782 
L 185.997363 464.623908 
L 187.469011 473.701519 
L 188.940659 484.3793 
L 191.148132 491.82211 
L 193.355604 500.306628 
L 194.827253 506.702741 
L 196.298901 513.852986 
L 199.242198 508.066999 
L 202.185495 502.784806 
L 203.657143 500.306628 
L 205.864615 491.82211 
L 208.072088 484.3793 
L 210.27956 477.750147 
L 211.015385 475.692089 
L 212.487033 465.302204 
L 213.958681 456.433371 
L 215.43033 448.69658 
L 216.901978 441.835278 
L 218.373626 435.671315 
L 222.052747 430.171456 
L 227.203516 423.053086 
L 230.882637 418.15471 
L 233.09011 415.394829 
L 238.976703 411.336531 
L 240.448352 410.362974 
L 242.655824 416.453258 
L 244.863297 423.223372 
L 247.070769 430.844382 
L 247.806593 433.613256 
L 250.014066 440.009368 
L 252.221538 447.159614 
L 254.429011 455.265894 
L 255.164835 458.227795 
L 260.315604 462.633338 
L 262.523077 464.623908 
L 266.202198 469.906101 
L 269.145495 474.489932 
L 269.881319 475.692089 
L 275.032088 480.097632 
L 277.23956 482.088201 
L 277.975385 470.832942 
L 279.447033 453.135608 
L 280.918681 439.449854 
L 282.39033 428.28892 
L 283.861978 418.864741 
L 284.597802 414.64995 
L 286.805275 421.458755 
L 289.012747 429.128844 
L 291.22022 437.910103 
L 291.956044 441.14411 
L 294.163516 447.286219 
L 296.370989 454.120447 
L 298.578462 461.82282 
L 299.314286 464.623908 
L 300.785934 457.323953 
L 302.993407 447.795295 
L 305.200879 439.561345 
L 306.672527 434.633564 
L 309.615824 439.338567 
L 312.559121 444.439093 
L 314.030769 447.159614 
L 317.70989 441.719536 
L 321.389011 436.727114 
L 327.275604 432.609813 
L 328.747253 431.622686 
L 330.954725 423.651188 
L 333.162198 416.60598 
L 335.36967 410.294028 
L 336.105495 408.327915 
L 339.048791 414.502064 
L 341.256264 419.583174 
L 343.463736 425.128738 
L 346.407033 429.505907 
L 349.35033 434.223381 
L 350.821978 436.727114 
L 352.293626 443.47928 
L 353.765275 451.077549 
L 355.236923 459.764761 
L 356.708571 469.906101 
L 358.18022 482.088201 
L 360.387692 475.088035 
L 362.595165 468.812253 
L 364.802637 463.124895 
L 365.538462 461.341653 
L 367.01011 443.47928 
L 368.481758 429.695321 
L 369.953407 418.469254 
L 371.425055 408.998716 
L 372.896703 400.80818 
L 375.104176 408.729506 
L 377.311648 417.841787 
L 378.783297 424.77783 
L 380.254945 432.609813 
L 387.613187 434.633564 
L 394.971429 430.651355 
L 397.914725 435.046538 
L 400.858022 439.784943 
L 402.32967 442.300468 
L 409.687912 444.681436 
L 412.631209 438.675097 
L 415.574505 433.209886 
L 417.046154 430.651355 
L 419.253626 437.693292 
L 421.461099 445.660602 
L 422.932747 451.619579 
L 424.404396 458.227795 
L 425.876044 449.743277 
L 427.347692 442.300468 
L 429.555165 432.609813 
L 431.762637 424.255242 
L 437.649231 420.228998 
L 439.120879 419.26282 
L 441.328352 427.186797 
L 443.535824 436.302588 
L 445.007473 443.241679 
L 446.479121 451.077549 
L 448.686593 442.417324 
L 450.894066 434.8397 
L 453.101538 428.103837 
L 453.837363 426.014986 
L 458.988132 430.555071 
L 461.195604 432.609813 
L 468.553846 432.609813 
L 473.704615 436.940495 
L 475.912088 438.895449 
L 478.855385 434.223381 
L 482.534505 428.847576 
L 483.27033 427.827268 
L 485.477802 435.776072 
L 487.685275 444.924751 
L 489.156923 451.892419 
L 490.628571 459.764761 
L 492.836044 451.483617 
L 495.043516 444.197713 
L 497.250989 437.693292 
L 497.986813 435.671315 
L 499.458462 426.73342 
L 500.93011 418.944148 
L 502.401758 412.041614 
L 504.609231 402.967942 
L 505.345055 400.221635 
L 508.288352 394.223755 
L 511.231648 388.765549 
L 512.703297 386.210087 
L 514.910769 392.349293 
L 517.118242 399.179927 
L 519.325714 406.877735 
L 522.269011 418.469254 
L 523.740659 425.128738 
L 525.212308 432.609813 
L 526.683956 441.14411 
L 527.41978 445.907881 
L 528.891429 436.51448 
L 530.363077 428.381673 
L 531.834725 421.210803 
L 534.042198 411.829228 
L 534.778022 408.998716 
L 536.985495 417.452888 
L 538.457143 423.823163 
L 539.928791 430.941126 
L 541.40044 439.005925 
L 542.136264 443.47928 
L 544.343736 437.693292 
L 546.551209 432.411099 
L 549.494505 426.014986 
L 551.701978 431.038024 
L 553.909451 436.51448 
L 556.116923 442.534406 
L 556.852747 444.681436 
L 559.06022 449.611449 
L 561.267692 454.9775 
L 563.475165 460.86427 
L 564.210989 462.9606 
L 567.89011 458.227795 
L 571.569231 453.83743 
L 573.040879 443.95729 
L 574.512527 435.46234 
L 575.984176 428.011507 
L 578.191648 418.311778 
L 578.927473 415.394829 
L 580.399121 422.04128 
L 581.870769 429.505907 
L 583.342418 438.018799 
L 584.814066 447.923233 
L 586.285714 459.764761 
L 587.757363 451.892419 
L 589.229011 444.924751 
L 591.436484 435.776072 
L 593.643956 427.827268 
L 598.794725 431.818832 
L 601.002198 433.613256 
L 602.473846 422.545075 
L 603.945495 413.187061 
L 605.417143 405.080781 
L 606.888791 397.930536 
L 608.36044 391.534423 
L 615.718681 393.071389 
L 617.926154 398.0994 
L 620.133626 403.581769 
L 622.341099 409.608841 
L 623.076923 411.758597 
L 624.548571 421.375992 
L 626.02022 432.809179 
L 627.491868 446.907194 
L 628.227692 455.410607 
L 628.963516 465.302204 
L 629.699341 477.125371 
L 630.435165 491.82211 
L 631.906813 479.019328 
L 633.378462 468.451973 
L 634.85011 459.454239 
L 636.321758 451.619579 
L 637.793407 444.681436 
L 643.68 448.69658 
L 645.151648 449.743277 
L 651.038242 445.660602 
L 652.50989 444.681436 
L 655.453187 449.743277 
L 658.396484 455.265894 
L 659.868132 458.227795 
L 667.226374 459.764761 
L 668.698022 445.907881 
L 670.16967 434.633564 
L 671.641319 425.128738 
L 673.112967 416.912581 
L 674.584615 409.677013 
L 676.792088 417.066465 
L 678.99956 425.481686 
L 680.471209 431.818832 
L 681.942857 438.895449 
L 688.565275 443.005005 
L 689.301099 443.47928 
L 692.98022 448.437702 
L 696.659341 453.83743 
L 699.602637 460.390611 
L 701.81011 465.815947 
L 704.017582 471.774153 
L 706.225055 464.28758 
L 708.432527 457.623741 
L 710.64 451.619579 
L 711.375824 449.743277 
L 714.319121 444.681436 
L 717.262418 440.009368 
L 718.734066 437.801601 
L 725.356484 441.835278 
L 726.092308 442.300468 
L 732.714725 438.236778 
L 734.186374 437.477253 
L 740.808791 434.633564 
L 743.016264 441.14411 
L 745.223736 448.437702 
L 747.431209 456.728782 
L 748.167033 459.764761 
L 750.374505 453.978773 
L 752.581978 448.69658 
L 755.525275 442.300468 
L 762.883516 440.009368 
L 765.826813 445.169045 
L 768.77011 450.808338 
L 770.241758 453.83743 
L 772.449231 459.609302 
L 774.656703 465.988166 
L 776.864176 473.116857 
L 777.6 475.692089 
L 777.6 475.692089 
" style="fill:none;stroke:#9467bd;stroke-linecap:square;stroke-width:4;"/>
   </g>
   <g id="patch_3">
    <path d="M 108 567 
L 108 77.76 
" style="fill:none;stroke:#000000;stroke-linecap:square;stroke-linejoin:miter;stroke-width:0.8;"/>
   </g>
   <g id="patch_4">
    <path d="M 108 567 
L 777.6 567 
" style="fill:none;stroke:#000000;stroke-linecap:square;stroke-linejoin:miter;stroke-width:0.8;"/>
   </g>
   <g id="legend_1">
    <g id="patch_5">
     <path d="M 577.8 297.514688 
L 758.7 297.514688 
Q 764.1 297.514688 764.1 292.114688 
L 764.1 96.66 
Q 764.1 91.26 758.7 91.26 
L 577.8 91.26 
Q 572.4 91.26 572.4 96.66 
L 572.4 292.114688 
Q 572.4 297.514688 577.8 297.514688 
z
" style="fill:#ffffff;opacity:0.8;stroke:#cccccc;stroke-linejoin:miter;"/>
    </g>
    <g id="line2d_41">
     <path d="M 583.2 113.125781 
L 637.2 113.125781 
" style="fill:none;stroke:#1f77b4;stroke-linecap:square;stroke-width:4;"/>
    </g>
    <g id="line2d_42"/>
    <g id="text_12">
     <!-- Zone 1 -->
     <g transform="translate(658.8 122.575781)scale(0.27 -0.27)">
      <defs>
       <path d="M 5.609375 72.90625 
L 62.890625 72.90625 
L 62.890625 65.375 
L 16.796875 8.296875 
L 64.015625 8.296875 
L 64.015625 0 
L 4.5 0 
L 4.5 7.515625 
L 50.59375 64.59375 
L 5.609375 64.59375 
z
" id="DejaVuSans-90"/>
      </defs>
      <use xlink:href="#DejaVuSans-90"/>
      <use x="68.505859" xlink:href="#DejaVuSans-111"/>
      <use x="129.6875" xlink:href="#DejaVuSans-110"/>
      <use x="193.066406" xlink:href="#DejaVuSans-101"/>
      <use x="254.589844" xlink:href="#DejaVuSans-32"/>
      <use x="286.376953" xlink:href="#DejaVuSans-49"/>
     </g>
    </g>
    <g id="line2d_43">
     <path d="M 583.2 152.756719 
L 637.2 152.756719 
" style="fill:none;stroke:#ff7f0e;stroke-linecap:square;stroke-width:4;"/>
    </g>
    <g id="line2d_44"/>
    <g id="text_13">
     <!-- Zone 2 -->
     <g transform="translate(658.8 162.206719)scale(0.27 -0.27)">
      <use xlink:href="#DejaVuSans-90"/>
      <use x="68.505859" xlink:href="#DejaVuSans-111"/>
      <use x="129.6875" xlink:href="#DejaVuSans-110"/>
      <use x="193.066406" xlink:href="#DejaVuSans-101"/>
      <use x="254.589844" xlink:href="#DejaVuSans-32"/>
      <use x="286.376953" xlink:href="#DejaVuSans-50"/>
     </g>
    </g>
    <g id="line2d_45">
     <path d="M 583.2 192.387656 
L 637.2 192.387656 
" style="fill:none;stroke:#2ca02c;stroke-linecap:square;stroke-width:4;"/>
    </g>
    <g id="line2d_46"/>
    <g id="text_14">
     <!-- Zone 3 -->
     <g transform="translate(658.8 201.837656)scale(0.27 -0.27)">
      <defs>
       <path d="M 40.578125 39.3125 
Q 47.65625 37.796875 51.625 33 
Q 55.609375 28.21875 55.609375 21.1875 
Q 55.609375 10.40625 48.1875 4.484375 
Q 40.765625 -1.421875 27.09375 -1.421875 
Q 22.515625 -1.421875 17.65625 -0.515625 
Q 12.796875 0.390625 7.625 2.203125 
L 7.625 11.71875 
Q 11.71875 9.328125 16.59375 8.109375 
Q 21.484375 6.890625 26.8125 6.890625 
Q 36.078125 6.890625 40.9375 10.546875 
Q 45.796875 14.203125 45.796875 21.1875 
Q 45.796875 27.640625 41.28125 31.265625 
Q 36.765625 34.90625 28.71875 34.90625 
L 20.21875 34.90625 
L 20.21875 43.015625 
L 29.109375 43.015625 
Q 36.375 43.015625 40.234375 45.921875 
Q 44.09375 48.828125 44.09375 54.296875 
Q 44.09375 59.90625 40.109375 62.90625 
Q 36.140625 65.921875 28.71875 65.921875 
Q 24.65625 65.921875 20.015625 65.03125 
Q 15.375 64.15625 9.8125 62.3125 
L 9.8125 71.09375 
Q 15.4375 72.65625 20.34375 73.4375 
Q 25.25 74.21875 29.59375 74.21875 
Q 40.828125 74.21875 47.359375 69.109375 
Q 53.90625 64.015625 53.90625 55.328125 
Q 53.90625 49.265625 50.4375 45.09375 
Q 46.96875 40.921875 40.578125 39.3125 
z
" id="DejaVuSans-51"/>
      </defs>
      <use xlink:href="#DejaVuSans-90"/>
      <use x="68.505859" xlink:href="#DejaVuSans-111"/>
      <use x="129.6875" xlink:href="#DejaVuSans-110"/>
      <use x="193.066406" xlink:href="#DejaVuSans-101"/>
      <use x="254.589844" xlink:href="#DejaVuSans-32"/>
      <use x="286.376953" xlink:href="#DejaVuSans-51"/>
     </g>
    </g>
    <g id="line2d_47">
     <path d="M 583.2 232.018594 
L 637.2 232.018594 
" style="fill:none;stroke:#d62728;stroke-linecap:square;stroke-width:4;"/>
    </g>
    <g id="line2d_48"/>
    <g id="text_15">
     <!-- Zone 4 -->
     <g transform="translate(658.8 241.468594)scale(0.27 -0.27)">
      <use xlink:href="#DejaVuSans-90"/>
      <use x="68.505859" xlink:href="#DejaVuSans-111"/>
      <use x="129.6875" xlink:href="#DejaVuSans-110"/>
      <use x="193.066406" xlink:href="#DejaVuSans-101"/>
      <use x="254.589844" xlink:href="#DejaVuSans-32"/>
      <use x="286.376953" xlink:href="#DejaVuSans-52"/>
     </g>
    </g>
    <g id="line2d_49">
     <path d="M 583.2 271.649531 
L 637.2 271.649531 
" style="fill:none;stroke:#9467bd;stroke-linecap:square;stroke-width:4;"/>
    </g>
    <g id="line2d_50"/>
    <g id="text_16">
     <!-- Zone 5 -->
     <g transform="translate(658.8 281.099531)scale(0.27 -0.27)">
      <defs>
       <path d="M 10.796875 72.90625 
L 49.515625 72.90625 
L 49.515625 64.59375 
L 19.828125 64.59375 
L 19.828125 46.734375 
Q 21.96875 47.46875 24.109375 47.828125 
Q 26.265625 48.1875 28.421875 48.1875 
Q 40.625 48.1875 47.75 41.5 
Q 54.890625 34.8125 54.890625 23.390625 
Q 54.890625 11.625 47.5625 5.09375 
Q 40.234375 -1.421875 26.90625 -1.421875 
Q 22.3125 -1.421875 17.546875 -0.640625 
Q 12.796875 0.140625 7.71875 1.703125 
L 7.71875 11.625 
Q 12.109375 9.234375 16.796875 8.0625 
Q 21.484375 6.890625 26.703125 6.890625 
Q 35.15625 6.890625 40.078125 11.328125 
Q 45.015625 15.765625 45.015625 23.390625 
Q 45.015625 31 40.078125 35.4375 
Q 35.15625 39.890625 26.703125 39.890625 
Q 22.75 39.890625 18.8125 39.015625 
Q 14.890625 38.140625 10.796875 36.28125 
z
" id="DejaVuSans-53"/>
      </defs>
      <use xlink:href="#DejaVuSans-90"/>
      <use x="68.505859" xlink:href="#DejaVuSans-111"/>
      <use x="129.6875" xlink:href="#DejaVuSans-110"/>
      <use x="193.066406" xlink:href="#DejaVuSans-101"/>
      <use x="254.589844" xlink:href="#DejaVuSans-32"/>
      <use x="286.376953" xlink:href="#DejaVuSans-53"/>
     </g>
    </g>
   </g>
  </g>
 </g>
 <defs>
  <clipPath id="p16300a2d0b">
   <rect height="489.24" width="669.6" x="108" y="77.76"/>
  </clipPath>
 </defs>
</svg>
